<?xml version="1.0" standalone="no"?>
<!DOCTYPE svg PUBLIC "-//W3C//DTD SVG 20010904//EN"
 "http://www.w3.org/TR/2001/REC-SVG-20010904/DTD/svg10.dtd">
<svg version="1.0" xmlns="http://www.w3.org/2000/svg"
 width="899.000000pt" height="372.000000pt" viewBox="0 0 899.000000 372.000000"
 preserveAspectRatio="xMidYMid meet">
<metadata>
Created by potrace 1.16, written by Peter Selinger 2001-2019
</metadata>
<g transform="translate(0.000000,372.000000) scale(0.100000,-0.100000)"
fill="#000000" stroke="none">
<path d="M8950 1860 c0 -1853 0 -1860 20 -1860 20 0 20 7 20 1860 0 1853 0
1860 -20 1860 -20 0 -20 -7 -20 -1860z"/>
<path d="M50 3450 l0 -200 595 0 c458 0 595 -3 595 -12 0 -7 67 -256 150 -554
83 -299 150 -545 150 -548 0 -3 -313 -6 -695 -6 l-695 0 0 -200 0 -200 695 0
695 0 0 -107 c0 -60 -3 -179 -7 -265 l-6 -158 -604 0 -603 0 0 -200 0 -200
598 0 597 0 -3 -160 -3 -160 -699 0 -700 0 0 -200 0 -200 1395 0 1395 0 0 200
0 200 -669 2 -670 3 347 158 347 157 252 0 252 0 3 116 3 117 778 353 778 354
128 0 127 0 12 -247 c7 -137 12 -263 12 -280 l0 -33 -660 0 -660 0 0 -200 0
-200 1325 0 1325 0 0 200 0 200 -642 2 -642 3 396 277 396 278 321 0 321 0 0
199 0 200 -32 3 c-30 3 37 52 709 523 407 286 739 523 736 527 -2 5 322 8 721
8 l726 0 0 200 0 200 -1460 0 -1460 0 0 -200 0 -200 722 -2 722 -3 -1499 -504
-1498 -504 -326 107 c-179 58 -546 179 -816 270 l-490 163 215 104 c118 58
342 165 496 239 155 74 280 138 277 143 -2 4 271 7 606 7 l611 0 0 200 0 200
-1220 0 -1220 0 0 -200 0 -200 601 -2 602 -3 -499 -239 -499 -239 -765 256
-765 255 573 1 572 1 0 200 0 200 -1185 0 -1185 0 0 -200z m2349 0 l2 -180
-1165 0 -1166 0 0 180 0 180 1163 0 1163 0 3 -180z m2620 -30 l2 -180 -1200 0
-1201 0 0 180 0 180 1198 0 1198 0 3 -180z m3910 -20 l2 -180 -1445 0 -1446 0
0 180 0 180 1443 0 1443 0 3 -180z m-6381 -597 l233 -78 -608 -292 c-525 -252
-609 -290 -615 -275 -4 9 -71 247 -148 527 -77 281 -143 517 -146 526 -4 16
399 -113 1284 -408z m4812 313 c0 -2 -312 -223 -694 -490 l-693 -486 -382 2
-381 3 1067 486 c588 268 1071 487 1076 488 4 1 7 -1 7 -3z m-120 -25 c-8 -5
-482 -221 -1052 -480 l-1037 -471 -278 1 c-237 0 -285 3 -327 18 l-50 17 830
279 c456 153 1072 361 1369 461 509 172 582 196 545 175z m-3613 -648 l803
-268 -47 -17 c-43 -15 -115 -17 -675 -17 l-628 -1 0 -199 c0 -193 1 -200 20
-203 12 -2 -330 -121 -759 -265 l-780 -262 -3 259 -3 260 693 0 692 0 0 200 0
200 -671 2 -671 3 599 287 c329 158 605 288 613 288 8 0 376 -120 817 -267z
m878 -293 c14 -6 0 -9 -45 -9 -45 0 -59 3 -45 9 11 5 31 9 45 9 14 0 34 -4 45
-9z m1533 -62 c28 -28 7 -78 -33 -78 -27 0 -45 18 -45 45 0 27 18 45 45 45 12
0 26 -5 33 -12z m-3140 -10 c28 -28 7 -78 -33 -78 -27 0 -45 18 -45 45 0 27
18 45 45 45 12 0 26 -5 33 -12z m1361 -342 c-2 -2 -340 -157 -751 -344 l-748
-340 0 74 0 74 -577 2 -578 3 790 266 790 267 539 1 c297 1 537 -1 535 -3z
m1121 -13 c-14 -9 -190 -133 -391 -274 l-366 -256 -12 231 c-6 127 -11 250
-11 274 l0 42 402 0 c382 0 401 -1 378 -17z m-2641 -723 l2 -180 -1200 0
-1201 0 0 180 0 180 1198 0 1198 0 3 -180z m3170 -20 l2 -180 -1305 0 -1306 0
0 180 0 180 1303 0 1303 0 3 -180z m-3720 -185 c-8 -7 -642 -295 -651 -295
-10 0 -11 284 -1 293 3 4 153 7 331 7 179 0 323 -2 321 -5z m690 -515 l2 -180
-1375 0 -1376 0 0 180 0 180 1373 0 1373 0 3 -180z"/>
<path d="M2307 3602 c-10 -10 -17 -25 -17 -32 0 -7 -8 -22 -17 -33 -10 -11
-12 -17 -5 -13 8 5 12 -2 12 -23 0 -16 -6 -32 -12 -34 -7 -3 1 -5 17 -5 17 0
24 2 18 5 -7 2 -13 21 -13 40 0 34 1 35 18 20 24 -22 56 -22 73 1 11 14 11 15
-1 5 -31 -28 -80 -9 -80 32 0 41 49 60 80 33 12 -11 12 -10 1 5 -17 22 -54 22
-74 -1z"/>
<path d="M170 3535 c-9 -11 -10 -16 -2 -11 8 5 12 -1 12 -23 0 -16 -6 -32 -12
-34 -7 -3 1 -6 17 -6 17 0 25 3 18 7 -6 4 -13 25 -15 46 -3 37 -4 38 -18 21z"/>
<path d="M1578 3514 c3 -24 0 -39 -9 -45 -10 -6 -5 -8 16 -8 17 0 24 3 18 6
-8 2 -13 22 -13 44 0 21 -4 39 -8 39 -4 0 -6 -16 -4 -36z"/>
<path d="M1993 3543 c28 -4 28 -5 11 -24 -16 -17 -16 -19 -1 -19 10 0 17 -7
17 -16 0 -12 -7 -15 -25 -12 -13 3 -22 1 -19 -3 9 -15 44 -10 50 6 4 8 1 22
-5 29 -8 10 -9 16 -1 21 21 13 9 25 -22 24 -32 -2 -32 -2 -5 -6z"/>
<path d="M2060 3535 c-9 -11 -10 -16 -2 -11 8 5 12 -1 12 -23 0 -16 -6 -32
-12 -34 -7 -3 1 -6 17 -6 17 0 25 3 18 7 -6 4 -13 25 -15 46 -3 37 -4 38 -18
21z"/>
<path d="M2133 3528 c-28 -30 -29 -48 -4 -48 11 0 21 -5 23 -12 8 -23 14 16 8
50 l-5 34 -22 -24z m17 -18 c0 -11 -7 -20 -15 -20 -18 0 -19 12 -3 28 16 16
18 15 18 -8z"/>
<path d="M2203 3528 c-28 -30 -29 -48 -4 -48 11 0 21 -5 23 -12 8 -23 14 16 8
50 l-5 34 -22 -24z m17 -18 c0 -11 -7 -20 -15 -20 -18 0 -19 12 -3 28 16 16
18 15 18 -8z"/>
<path d="M1278 3528 c-13 -39 21 -83 44 -60 8 8 5 9 -11 5 -16 -4 -21 -1 -21
15 0 11 4 22 9 24 5 2 3 8 -4 15 -10 10 -14 10 -17 1z"/>
<path d="M431 3476 c1 -27 3 -34 7 -21 4 11 16 20 27 20 13 0 20 7 20 20 0 15
-7 20 -27 21 -26 1 -28 -1 -27 -40z m49 19 c0 -8 -6 -15 -14 -15 -17 0 -28 14
-19 24 12 12 33 6 33 -9z"/>
<path d="M514 3490 c1 -18 7 -25 21 -25 15 0 20 7 22 30 l2 30 -9 -30 c-5 -22
-8 -24 -10 -10 l-1 20 -9 -20 c-7 -19 -8 -18 -12 5 l-5 25 1 -25z"/>
<path d="M574 3506 c-3 -9 -4 -23 0 -31 6 -16 41 -21 50 -6 3 4 -6 6 -19 3
-15 -2 -25 0 -25 7 0 6 12 11 26 11 16 0 24 5 22 13 -7 18 -47 21 -54 3z m39
-3 c-7 -2 -19 -2 -25 0 -7 3 -2 5 12 5 14 0 19 -2 13 -5z"/>
<path d="M651 3487 l2 -32 5 30 5 30 7 -25 8 -25 2 25 c2 24 3 24 10 -5 l9
-30 -2 29 c-2 22 -8 30 -24 32 -20 3 -23 0 -22 -29z"/>
<path d="M947 3499 c4 -12 0 -25 -8 -30 -10 -6 -5 -9 16 -8 17 0 24 3 18 6 -7
2 -13 16 -13 29 0 13 -4 24 -9 24 -5 0 -7 -9 -4 -21z"/>
<path d="M1001 3487 l2 -32 5 30 5 30 7 -25 8 -25 2 25 c2 24 3 24 10 -5 l9
-30 -2 29 c-2 22 -8 30 -24 32 -20 3 -23 0 -22 -29z"/>
<path d="M1061 3476 c1 -27 3 -34 7 -21 4 11 16 20 27 20 13 0 20 7 20 20 0
15 -7 20 -27 21 -26 1 -28 -1 -27 -40z m49 19 c0 -8 -6 -15 -14 -15 -17 0 -28
14 -19 24 12 12 33 6 33 -9z"/>
<path d="M1134 3506 c-10 -26 4 -48 28 -44 17 2 23 10 23 28 0 18 -6 26 -23
28 -13 2 -25 -3 -28 -12z m46 -16 c0 -13 -7 -20 -20 -20 -13 0 -20 7 -20 20 0
13 7 20 20 20 13 0 20 -7 20 -20z"/>
<path d="M1209 3485 l6 -30 3 28 c3 23 8 28 23 24 10 -3 17 -1 14 4 -4 5 -16
8 -28 7 -20 -2 -22 -6 -18 -33z"/>
<path d="M1421 3509 c-1 -8 5 -24 13 -34 13 -18 14 -18 25 3 6 11 11 27 11 34
-1 7 -7 0 -14 -17 l-13 -30 -10 30 c-7 17 -12 23 -12 14z"/>
<path d="M1484 3506 c-10 -26 4 -48 28 -44 17 2 23 10 23 28 0 18 -6 26 -23
28 -13 2 -25 -3 -28 -12z m46 -16 c0 -13 -7 -20 -20 -20 -13 0 -20 7 -20 20 0
13 7 20 20 20 13 0 20 -7 20 -20z"/>
<path d="M1624 3490 c1 -20 6 -25 29 -26 24 -1 27 2 26 30 -1 29 -1 30 -8 6
-9 -33 -38 -39 -44 -8 -4 21 -4 21 -3 -2z"/>
<path d="M1701 3487 l2 -32 5 30 5 30 7 -25 8 -25 2 25 c2 24 3 24 10 -5 l9
-30 -2 29 c-2 22 -8 30 -24 32 -20 3 -23 0 -22 -29z"/>
<path d="M1764 3506 c-3 -9 -4 -23 0 -31 6 -16 41 -21 50 -6 3 4 -6 6 -19 3
-15 -2 -25 0 -25 7 0 6 12 11 26 11 16 0 24 5 22 13 -7 18 -47 21 -54 3z m39
-3 c-7 -2 -19 -2 -25 0 -7 3 -2 5 12 5 14 0 19 -2 13 -5z"/>
<path d="M1835 3510 c-3 -5 7 -16 22 -25 l28 -16 -27 4 c-15 2 -25 0 -22 -4 7
-12 41 -11 49 1 3 5 -7 16 -22 25 l-28 16 27 -4 c15 -2 25 0 22 4 -7 12 -41
11 -49 -1z"/>
<path d="M313 3503 c9 -2 23 -2 30 0 6 3 -1 5 -18 5 -16 0 -22 -2 -12 -5z"/>
<path d="M803 3503 c9 -2 23 -2 30 0 6 3 -1 5 -18 5 -16 0 -22 -2 -12 -5z"/>
<path d="M246 3471 c-4 -5 -2 -12 3 -15 5 -4 12 -2 15 3 4 5 2 12 -3 15 -5 4
-12 2 -15 -3z"/>
<path d="M961 3418 c-4 -11 -5 -33 -2 -47 4 -22 6 -23 9 -6 2 11 9 23 16 27 8
6 7 8 -1 8 -7 0 -13 7 -13 16 0 11 6 15 20 11 11 -3 18 -1 14 4 -10 16 -35 9
-43 -13z"/>
<path d="M1302 3395 c0 -36 2 -43 7 -25 10 36 38 38 44 3 5 -28 5 -28 3 2 -1
23 -6 30 -21 30 -11 0 -23 9 -27 20 -3 12 -6 -1 -6 -30z"/>
<path d="M1490 3422 c0 -13 -7 -18 -22 -18 -18 1 -23 -5 -23 -24 0 -20 5 -25
28 -26 25 -1 27 1 27 42 0 24 -2 44 -5 44 -3 0 -5 -8 -5 -18z m-5 -42 c0 -8
-8 -16 -17 -18 -13 -2 -18 3 -18 18 0 15 5 20 18 18 9 -2 17 -10 17 -18z"/>
<path d="M1047 3389 c4 -12 0 -25 -8 -30 -10 -6 -5 -9 16 -8 17 0 24 3 18 6
-7 2 -13 16 -13 29 0 13 -4 24 -9 24 -5 0 -7 -9 -4 -21z"/>
<path d="M1091 3376 c1 -29 1 -30 8 -6 10 35 38 38 44 5 4 -24 4 -24 3 2 -1
23 -6 28 -28 29 -25 1 -28 -2 -27 -30z"/>
<path d="M1187 3389 c4 -12 0 -25 -8 -30 -10 -6 -5 -9 16 -8 17 0 24 3 18 6
-7 2 -13 16 -13 29 0 13 -4 24 -9 24 -5 0 -7 -9 -4 -21z"/>
<path d="M1235 3400 c-3 -5 7 -16 22 -25 l28 -16 -27 4 c-15 2 -25 0 -22 -4 7
-12 41 -11 49 1 3 5 -7 16 -22 25 l-28 16 27 -4 c15 -2 25 0 22 4 -7 12 -41
11 -49 -1z"/>
<path d="M1374 3396 c-3 -9 -4 -23 0 -31 6 -16 41 -21 50 -6 3 4 -6 6 -19 3
-15 -2 -25 0 -25 7 0 6 12 11 26 11 16 0 24 5 22 13 -7 18 -47 21 -54 3z m39
-3 c-7 -2 -19 -2 -25 0 -7 3 -2 5 12 5 14 0 19 -2 13 -5z"/>
<path d="M4926 3571 c-14 -15 -17 -29 -11 -63 l6 -43 -26 28 -25 28 1 -48 c2
-43 2 -45 8 -14 6 32 7 32 22 15 9 -11 19 -26 22 -34 3 -8 6 -1 6 16 1 28 4
30 29 26 19 -2 33 2 42 15 12 15 12 16 0 6 -18 -16 -52 -17 -68 -1 -7 7 -12
21 -12 33 0 41 49 60 80 33 12 -11 12 -10 1 5 -18 23 -54 22 -75 -2z"/>
<path d="M2705 3509 c-4 -6 -4 -13 -1 -16 3 -4 6 -1 6 5 0 7 9 12 20 12 28 0
25 -24 -5 -44 -34 -23 -31 -36 8 -35 l32 2 -29 4 -29 5 28 22 c19 15 26 28 22
39 -7 19 -42 23 -52 6z"/>
<path d="M4607 3512 c6 -4 13 -25 16 -47 l4 -40 1 42 c1 23 8 44 15 46 6 3 -1
6 -18 6 -17 0 -25 -3 -18 -7z"/>
<path d="M4672 3508 c-7 -7 -11 -28 -11 -47 1 -20 3 -28 6 -18 2 9 13 17 23
17 10 0 21 -8 23 -17 3 -10 5 -2 6 18 1 31 -13 59 -29 59 -3 0 -11 -5 -18 -12z
m36 -21 c2 -12 -3 -17 -17 -17 -12 0 -21 6 -21 13 0 31 32 34 38 4z"/>
<path d="M4734 3506 c-3 -8 -4 -27 -2 -43 3 -29 31 -44 50 -25 6 6 0 8 -16 5
-24 -5 -26 -3 -26 32 0 34 2 37 25 33 13 -3 22 -1 19 3 -8 14 -44 10 -50 -5z"/>
<path d="M4812 3508 c-7 -7 -11 -28 -11 -47 1 -20 3 -28 6 -18 2 9 13 17 23
17 10 0 21 -8 23 -17 3 -10 5 -2 6 18 1 31 -13 59 -29 59 -3 0 -11 -5 -18 -12z
m36 -21 c2 -12 -3 -17 -17 -17 -12 0 -21 6 -21 13 0 31 32 34 38 4z"/>
<path d="M3828 3498 c-13 -39 21 -83 44 -60 8 8 5 9 -11 5 -16 -4 -21 -1 -21
15 0 11 4 22 9 24 5 2 3 8 -4 15 -10 10 -14 10 -17 1z"/>
<path d="M2981 3446 c1 -27 3 -34 7 -21 4 11 16 20 27 20 13 0 20 7 20 20 0
15 -7 20 -27 21 -26 1 -28 -1 -27 -40z m49 19 c0 -8 -6 -15 -14 -15 -17 0 -28
14 -19 24 12 12 33 6 33 -9z"/>
<path d="M3064 3460 c1 -18 7 -25 21 -25 15 0 20 7 22 30 l2 30 -9 -30 c-5
-22 -8 -24 -10 -10 l-1 20 -9 -20 c-7 -19 -8 -18 -12 5 l-5 25 1 -25z"/>
<path d="M3124 3476 c-3 -9 -4 -23 0 -31 6 -16 41 -21 50 -6 3 4 -6 6 -19 3
-15 -2 -25 0 -25 7 0 6 12 11 26 11 16 0 24 5 22 13 -7 18 -47 21 -54 3z m39
-3 c-7 -2 -19 -2 -25 0 -7 3 -2 5 12 5 14 0 19 -2 13 -5z"/>
<path d="M3201 3457 l2 -32 5 30 5 30 7 -25 8 -25 2 25 c2 24 3 24 10 -5 l9
-30 -2 29 c-2 22 -8 30 -24 32 -20 3 -23 0 -22 -29z"/>
<path d="M3497 3469 c4 -12 0 -25 -8 -30 -10 -6 -5 -9 16 -8 17 0 24 3 18 6
-7 2 -13 16 -13 29 0 13 -4 24 -9 24 -5 0 -7 -9 -4 -21z"/>
<path d="M3551 3457 l2 -32 5 30 5 30 7 -25 8 -25 2 25 c2 24 3 24 10 -5 l9
-30 -2 29 c-2 22 -8 30 -24 32 -20 3 -23 0 -22 -29z"/>
<path d="M3611 3446 c1 -27 3 -34 7 -21 4 11 16 20 27 20 13 0 20 7 20 20 0
15 -7 20 -27 21 -26 1 -28 -1 -27 -40z m49 19 c0 -8 -6 -15 -14 -15 -17 0 -28
14 -19 24 12 12 33 6 33 -9z"/>
<path d="M3684 3476 c-10 -26 4 -48 28 -44 17 2 23 10 23 28 0 18 -6 26 -23
28 -13 2 -25 -3 -28 -12z m46 -16 c0 -13 -7 -20 -20 -20 -13 0 -20 7 -20 20 0
13 7 20 20 20 13 0 20 -7 20 -20z"/>
<path d="M3759 3455 l6 -30 3 28 c3 23 8 28 23 24 10 -3 17 -1 14 4 -4 5 -16
8 -28 7 -20 -2 -22 -6 -18 -33z"/>
<path d="M3965 3480 c-3 -5 7 -16 22 -25 l28 -16 -27 4 c-15 2 -25 0 -22 -4 7
-12 41 -11 49 1 3 5 -7 16 -22 25 l-28 16 27 -4 c15 -2 25 0 22 4 -7 12 -41
11 -49 -1z"/>
<path d="M4034 3476 c-3 -9 -4 -23 0 -31 6 -16 41 -21 50 -6 3 4 -6 6 -19 3
-15 -2 -25 0 -25 7 0 6 12 11 26 11 16 0 24 5 22 13 -7 18 -47 21 -54 3z m39
-3 c-7 -2 -19 -2 -25 0 -7 3 -2 5 12 5 14 0 19 -2 13 -5z"/>
<path d="M4104 3475 c-8 -21 6 -37 27 -32 12 3 19 -2 22 -17 2 -11 5 -3 6 19
1 37 -2 41 -24 43 -15 1 -28 -4 -31 -13z m39 -10 c1 -5 -6 -11 -15 -13 -11 -2
-18 3 -18 13 0 17 30 18 33 0z"/>
<path d="M4174 3460 c1 -20 6 -25 29 -26 24 -1 27 2 26 30 -1 29 -1 30 -8 6
-9 -33 -38 -39 -44 -8 -4 21 -4 21 -3 -2z"/>
<path d="M4244 3476 c-3 -9 -4 -23 0 -31 6 -16 41 -21 50 -6 3 4 -6 6 -19 3
-15 -2 -25 0 -25 7 0 6 12 11 26 11 16 0 24 5 22 13 -7 18 -47 21 -54 3z m39
-3 c-7 -2 -19 -2 -25 0 -7 3 -2 5 12 5 14 0 19 -2 13 -5z"/>
<path d="M4311 3456 c1 -29 1 -30 8 -6 10 35 38 38 44 5 4 -24 4 -24 3 2 -1
23 -6 28 -28 29 -25 1 -28 -2 -27 -30z"/>
<path d="M4384 3475 c-9 -23 3 -45 25 -45 11 0 22 4 25 9 3 4 -6 6 -19 3 -21
-3 -25 0 -25 18 0 18 4 21 25 18 13 -3 22 -1 19 3 -9 15 -44 10 -50 -6z"/>
<path d="M4454 3476 c-3 -9 -4 -23 0 -31 6 -16 41 -21 50 -6 3 4 -6 6 -19 3
-15 -2 -25 0 -25 7 0 6 12 11 26 11 16 0 24 5 22 13 -7 18 -47 21 -54 3z m39
-3 c-7 -2 -19 -2 -25 0 -7 3 -2 5 12 5 14 0 19 -2 13 -5z"/>
<path d="M2863 3473 c9 -2 23 -2 30 0 6 3 -1 5 -18 5 -16 0 -22 -2 -12 -5z"/>
<path d="M3353 3473 c9 -2 23 -2 30 0 6 3 -1 5 -18 5 -16 0 -22 -2 -12 -5z"/>
<path d="M2796 3441 c-4 -5 -2 -12 3 -15 5 -4 12 -2 15 3 4 5 2 12 -3 15 -5 4
-12 2 -15 -3z"/>
<path d="M3551 3388 c-4 -11 -5 -33 -2 -47 4 -22 6 -23 9 -6 2 11 9 23 16 27
8 6 7 8 -1 8 -7 0 -13 7 -13 16 0 11 6 15 20 11 11 -3 18 -1 14 4 -10 16 -35
9 -43 -13z"/>
<path d="M3892 3365 c0 -36 2 -43 7 -25 10 36 38 38 44 3 5 -28 5 -28 3 2 -1
23 -6 30 -21 30 -11 0 -23 9 -27 20 -3 12 -6 -1 -6 -30z"/>
<path d="M4080 3392 c0 -13 -7 -18 -22 -18 -18 1 -23 -5 -23 -24 0 -20 5 -25
28 -26 25 -1 27 1 27 42 0 24 -2 44 -5 44 -3 0 -5 -8 -5 -18z m-5 -42 c0 -8
-8 -16 -17 -18 -13 -2 -18 3 -18 18 0 15 5 20 18 18 9 -2 17 -10 17 -18z"/>
<path d="M3637 3359 c4 -12 0 -25 -8 -30 -10 -6 -5 -9 16 -8 17 0 24 3 18 6
-7 2 -13 16 -13 29 0 13 -4 24 -9 24 -5 0 -7 -9 -4 -21z"/>
<path d="M3681 3346 c1 -29 1 -30 8 -6 10 35 38 38 44 5 4 -24 4 -24 3 2 -1
23 -6 28 -28 29 -25 1 -28 -2 -27 -30z"/>
<path d="M3777 3359 c4 -12 0 -25 -8 -30 -10 -6 -5 -9 16 -8 17 0 24 3 18 6
-7 2 -13 16 -13 29 0 13 -4 24 -9 24 -5 0 -7 -9 -4 -21z"/>
<path d="M3825 3370 c-3 -5 7 -16 22 -25 l28 -16 -27 4 c-15 2 -25 0 -22 -4 7
-12 41 -11 49 1 3 5 -7 16 -22 25 l-28 16 27 -4 c15 -2 25 0 22 4 -7 12 -41
11 -49 -1z"/>
<path d="M3964 3366 c-3 -9 -4 -23 0 -31 6 -16 41 -21 50 -6 3 4 -6 6 -19 3
-15 -2 -25 0 -25 7 0 6 12 11 26 11 16 0 24 5 22 13 -7 18 -47 21 -54 3z m39
-3 c-7 -2 -19 -2 -25 0 -7 3 -2 5 12 5 14 0 19 -2 13 -5z"/>
<path d="M8837 3552 c-18 -20 -23 -57 -8 -66 14 -9 -3 -61 -21 -64 -11 -2 -18
6 -21 23 -4 24 -4 24 -3 -2 1 -23 6 -28 29 -29 23 -1 27 3 27 26 0 23 3 26 28
22 19 -2 33 2 42 15 12 15 12 16 0 6 -18 -16 -52 -17 -68 -1 -7 7 -12 21 -12
33 0 41 49 60 80 33 12 -11 12 -10 1 5 -17 22 -54 22 -74 -1z"/>
<path d="M6120 3475 c0 -22 3 -25 25 -19 21 5 25 3 25 -16 0 -19 -4 -22 -26
-17 -16 3 -22 1 -16 -5 18 -18 47 -4 47 22 0 19 -5 25 -22 24 -33 -1 -28 24 5
29 25 4 25 4 -5 6 -29 1 -33 -2 -33 -24z"/>
<path d="M8592 3493 l27 -4 -19 -32 c-11 -18 -20 -36 -20 -42 0 -5 11 10 25
34 14 23 25 45 25 47 0 2 -15 3 -32 3 -30 -2 -30 -2 -6 -6z"/>
<path d="M8651 3478 c-4 -11 -5 -33 -2 -47 4 -22 6 -23 9 -6 2 11 9 23 16 27
8 6 7 8 -1 8 -7 0 -13 7 -13 16 0 11 6 15 20 11 11 -3 18 -1 14 4 -10 16 -35
9 -43 -13z"/>
<path d="M8733 3493 c28 -4 28 -5 11 -24 -16 -17 -16 -19 -1 -19 10 0 17 -7
17 -16 0 -12 -7 -15 -25 -12 -13 3 -22 1 -19 -3 9 -15 44 -10 50 6 4 8 1 22
-5 29 -8 10 -9 16 -1 21 21 13 9 25 -22 24 -32 -2 -32 -2 -5 -6z"/>
<path d="M7248 3478 c-13 -39 21 -83 44 -60 8 8 5 9 -11 5 -16 -4 -21 -1 -21
15 0 11 4 22 9 24 5 2 3 8 -4 15 -10 10 -14 10 -17 1z"/>
<path d="M7458 3478 c-13 -39 21 -83 44 -60 8 8 5 9 -11 5 -16 -4 -21 -1 -21
15 0 11 4 22 9 24 5 2 3 8 -4 15 -10 10 -14 10 -17 1z"/>
<path d="M7948 3478 c-13 -39 21 -83 44 -60 8 8 5 9 -11 5 -16 -4 -21 -1 -21
15 0 11 4 22 9 24 5 2 3 8 -4 15 -10 10 -14 10 -17 1z"/>
<path d="M8228 3478 c-13 -39 21 -83 44 -60 8 8 5 9 -11 5 -16 -4 -21 -1 -21
15 0 11 4 22 9 24 5 2 3 8 -4 15 -10 10 -14 10 -17 1z"/>
<path d="M6401 3426 c1 -27 3 -34 7 -21 4 11 16 20 27 20 13 0 20 7 20 20 0
15 -7 20 -27 21 -26 1 -28 -1 -27 -40z m49 19 c0 -8 -6 -15 -14 -15 -17 0 -28
14 -19 24 12 12 33 6 33 -9z"/>
<path d="M6484 3440 c1 -18 7 -25 21 -25 15 0 20 7 22 30 l2 30 -9 -30 c-5
-22 -8 -24 -10 -10 l-1 20 -9 -20 c-7 -19 -8 -18 -12 5 l-5 25 1 -25z"/>
<path d="M6544 3456 c-3 -9 -4 -23 0 -31 6 -16 41 -21 50 -6 3 4 -6 6 -19 3
-15 -2 -25 0 -25 7 0 6 12 11 26 11 16 0 24 5 22 13 -7 18 -47 21 -54 3z m39
-3 c-7 -2 -19 -2 -25 0 -7 3 -2 5 12 5 14 0 19 -2 13 -5z"/>
<path d="M6621 3437 l2 -32 5 30 5 30 7 -25 8 -25 2 25 c2 24 3 24 10 -5 l9
-30 -2 29 c-2 22 -8 30 -24 32 -20 3 -23 0 -22 -29z"/>
<path d="M6917 3449 c4 -12 0 -25 -8 -30 -10 -6 -5 -9 16 -8 17 0 24 3 18 6
-7 2 -13 16 -13 29 0 13 -4 24 -9 24 -5 0 -7 -9 -4 -21z"/>
<path d="M6971 3437 l2 -32 5 30 5 30 7 -25 8 -25 2 25 c2 24 3 24 10 -5 l9
-30 -2 29 c-2 22 -8 30 -24 32 -20 3 -23 0 -22 -29z"/>
<path d="M7031 3426 c1 -27 3 -34 7 -21 4 11 16 20 27 20 13 0 20 7 20 20 0
15 -7 20 -27 21 -26 1 -28 -1 -27 -40z m49 19 c0 -8 -6 -15 -14 -15 -17 0 -28
14 -19 24 12 12 33 6 33 -9z"/>
<path d="M7104 3456 c-10 -26 4 -48 28 -44 17 2 23 10 23 28 0 18 -6 26 -23
28 -13 2 -25 -3 -28 -12z m46 -16 c0 -13 -7 -20 -20 -20 -13 0 -20 7 -20 20 0
13 7 20 20 20 13 0 20 -7 20 -20z"/>
<path d="M7179 3435 l6 -30 3 28 c3 23 8 28 23 24 10 -3 17 -1 14 4 -4 5 -16
8 -28 7 -20 -2 -22 -6 -18 -33z"/>
<path d="M7410 3461 l25 -8 -25 -4 c-35 -6 -33 -34 3 -35 25 -1 28 2 25 25 -2
20 -9 26 -28 28 l-25 2 25 -8z m15 -31 c-3 -5 -13 -10 -21 -10 -8 0 -14 5 -14
10 0 6 9 10 21 10 11 0 17 -4 14 -10z"/>
<path d="M7524 3456 c-10 -26 4 -48 28 -44 17 2 23 10 23 28 0 18 -6 26 -23
28 -13 2 -25 -3 -28 -12z m46 -16 c0 -13 -7 -20 -20 -20 -13 0 -20 7 -20 20 0
13 7 20 20 20 13 0 20 -7 20 -20z"/>
<path d="M7601 3437 l2 -32 5 30 5 30 7 -25 8 -25 2 25 c2 24 3 24 10 -5 l9
-30 -2 29 c-2 22 -8 30 -24 32 -20 3 -23 0 -22 -29z"/>
<path d="M7687 3449 c4 -12 0 -25 -8 -30 -10 -6 -5 -9 16 -8 17 0 24 3 18 6
-7 2 -13 16 -13 29 0 13 -4 24 -9 24 -5 0 -7 -9 -4 -21z"/>
<path d="M7734 3455 c-9 -23 3 -45 25 -45 11 0 22 4 25 9 3 4 -6 6 -19 3 -21
-3 -25 0 -25 18 0 18 4 21 25 18 13 -3 22 -1 19 3 -9 15 -44 10 -50 -6z"/>
<path d="M7875 3460 c-3 -5 7 -16 22 -25 l28 -16 -27 4 c-15 2 -25 0 -22 -4 7
-12 41 -11 49 1 3 5 -7 16 -22 25 l-28 16 27 -4 c15 -2 25 0 22 4 -7 12 -41
11 -49 -1z"/>
<path d="M8019 3435 l6 -30 3 28 c3 23 8 28 23 24 10 -3 17 -1 14 4 -4 5 -16
8 -28 7 -20 -2 -22 -6 -18 -33z"/>
<path d="M8084 3440 c1 -20 6 -25 29 -26 24 -1 27 2 26 30 -1 29 -1 30 -8 6
-9 -33 -38 -39 -44 -8 -4 21 -4 21 -3 -2z"/>
<path d="M8154 3455 c-9 -23 3 -45 25 -45 11 0 22 4 25 9 3 4 -6 6 -19 3 -21
-3 -25 0 -25 18 0 18 4 21 25 18 13 -3 22 -1 19 3 -9 15 -44 10 -50 -6z"/>
<path d="M8294 3440 c1 -20 6 -25 29 -26 24 -1 27 2 26 30 -1 29 -1 30 -8 6
-9 -33 -38 -39 -44 -8 -4 21 -4 21 -3 -2z"/>
<path d="M8369 3435 l6 -30 3 28 c3 23 8 28 23 24 10 -3 17 -1 14 4 -4 5 -16
8 -28 7 -20 -2 -22 -6 -18 -33z"/>
<path d="M8434 3456 c-3 -9 -4 -23 0 -31 6 -16 41 -21 50 -6 3 4 -6 6 -19 3
-15 -2 -25 0 -25 7 0 6 12 11 26 11 16 0 24 5 22 13 -7 18 -47 21 -54 3z m39
-3 c-7 -2 -19 -2 -25 0 -7 3 -2 5 12 5 14 0 19 -2 13 -5z"/>
<path d="M6283 3453 c9 -2 23 -2 30 0 6 3 -1 5 -18 5 -16 0 -22 -2 -12 -5z"/>
<path d="M6773 3453 c9 -2 23 -2 30 0 6 3 -1 5 -18 5 -16 0 -22 -2 -12 -5z"/>
<path d="M6216 3421 c-4 -5 -2 -12 3 -15 5 -4 12 -2 15 3 4 5 2 12 -3 15 -5 4
-12 2 -15 -3z"/>
<path d="M7211 3368 c-4 -11 -5 -33 -2 -47 4 -22 6 -23 9 -6 2 11 9 23 16 27
8 6 7 8 -1 8 -7 0 -13 7 -13 16 0 11 6 15 20 11 11 -3 18 -1 14 4 -10 16 -35
9 -43 -13z"/>
<path d="M7552 3345 c0 -36 2 -43 7 -25 10 36 38 38 44 3 5 -28 5 -28 3 2 -1
23 -6 30 -21 30 -11 0 -23 9 -27 20 -3 12 -6 -1 -6 -30z"/>
<path d="M7740 3372 c0 -13 -7 -18 -22 -18 -18 1 -23 -5 -23 -24 0 -20 5 -25
28 -26 25 -1 27 1 27 42 0 24 -2 44 -5 44 -3 0 -5 -8 -5 -18z m-5 -42 c0 -8
-8 -16 -17 -18 -13 -2 -18 3 -18 18 0 15 5 20 18 18 9 -2 17 -10 17 -18z"/>
<path d="M7297 3339 c4 -12 0 -25 -8 -30 -10 -6 -5 -9 16 -8 17 0 24 3 18 6
-7 2 -13 16 -13 29 0 13 -4 24 -9 24 -5 0 -7 -9 -4 -21z"/>
<path d="M7341 3326 c1 -29 1 -30 8 -6 10 35 38 38 44 5 4 -24 4 -24 3 2 -1
23 -6 28 -28 29 -25 1 -28 -2 -27 -30z"/>
<path d="M7437 3339 c4 -12 0 -25 -8 -30 -10 -6 -5 -9 16 -8 17 0 24 3 18 6
-7 2 -13 16 -13 29 0 13 -4 24 -9 24 -5 0 -7 -9 -4 -21z"/>
<path d="M7485 3350 c-3 -5 7 -16 22 -25 l28 -16 -27 4 c-15 2 -25 0 -22 -4 7
-12 41 -11 49 1 3 5 -7 16 -22 25 l-28 16 27 -4 c15 -2 25 0 22 4 -7 12 -41
11 -49 -1z"/>
<path d="M7624 3346 c-3 -9 -4 -23 0 -31 6 -16 41 -21 50 -6 3 4 -6 6 -19 3
-15 -2 -25 0 -25 7 0 6 12 11 26 11 16 0 24 5 22 13 -7 18 -47 21 -54 3z m39
-3 c-7 -2 -19 -2 -25 0 -7 3 -2 5 12 5 14 0 19 -2 13 -5z"/>
<path d="M2647 1152 c-20 -22 -22 -53 -5 -70 7 -7 8 -12 3 -13 -6 -1 -19 -2
-30 -3 -13 0 -20 -8 -20 -21 0 -13 7 -20 20 -20 11 0 23 -9 27 -20 4 -13 6 -7
7 21 1 39 2 40 29 36 19 -2 33 2 42 15 12 15 12 16 0 6 -31 -28 -80 -9 -80 32
0 41 49 60 80 33 12 -11 12 -10 1 5 -17 22 -54 22 -74 -1z m-14 -107 c1 -5 -6
-11 -15 -13 -11 -2 -18 3 -18 13 0 17 30 18 33 0z"/>
<path d="M431 1086 c-7 -8 -11 -27 -9 -43 2 -22 8 -28 28 -28 18 0 25 5 25 20
0 14 -6 20 -22 19 -13 0 -23 5 -23 13 0 8 10 18 23 23 15 6 17 9 6 9 -9 1 -22
-5 -28 -13z m39 -51 c0 -8 -9 -15 -20 -15 -20 0 -26 11 -13 23 12 13 33 7 33
-8z"/>
<path d="M772 1055 c0 -36 2 -43 7 -25 10 36 38 38 44 3 5 -28 5 -28 3 2 -1
23 -6 30 -21 30 -11 0 -23 9 -27 20 -3 12 -6 -1 -6 -30z"/>
<path d="M2047 1092 c6 -4 13 -25 16 -47 l4 -40 1 42 c1 23 8 44 15 46 6 3 -1
6 -18 6 -17 0 -25 -3 -18 -7z"/>
<path d="M2112 1088 c-7 -7 -11 -28 -11 -47 1 -20 3 -28 6 -18 2 9 13 17 23
17 10 0 21 -8 23 -17 3 -10 5 -2 6 18 1 31 -13 59 -29 59 -3 0 -11 -5 -18 -12z
m36 -21 c2 -12 -3 -17 -17 -17 -12 0 -21 6 -21 13 0 31 32 34 38 4z"/>
<path d="M2174 1086 c-3 -8 -4 -27 -2 -43 3 -29 31 -44 50 -25 6 6 0 8 -16 5
-24 -5 -26 -3 -26 32 0 34 2 37 25 33 13 -3 22 -1 19 3 -8 14 -44 10 -50 -5z"/>
<path d="M2252 1088 c-7 -7 -11 -28 -11 -47 1 -20 3 -28 6 -18 2 9 13 17 23
17 10 0 21 -8 23 -17 3 -10 5 -2 6 18 1 31 -13 59 -29 59 -3 0 -11 -5 -18 -12z
m36 -21 c2 -12 -3 -17 -17 -17 -12 0 -21 6 -21 13 0 31 32 34 38 4z"/>
<path d="M2311 1054 c1 -44 2 -46 8 -15 6 32 7 32 22 15 9 -11 19 -26 22 -34
3 -8 5 8 5 35 0 39 -2 44 -7 20 l-6 -29 -23 28 -22 29 1 -49z"/>
<path d="M1828 1078 c-13 -39 21 -83 44 -60 8 8 5 9 -11 5 -16 -4 -21 -1 -21
15 0 11 4 22 9 24 5 2 3 8 -4 15 -10 10 -14 10 -17 1z"/>
<path d="M704 1055 c-9 -23 3 -45 25 -45 11 0 22 4 25 9 3 4 -6 6 -19 3 -21
-3 -25 0 -25 18 0 18 4 21 25 18 13 -3 22 -1 19 3 -9 15 -44 10 -50 -6z"/>
<path d="M867 1049 c4 -12 0 -25 -8 -30 -10 -6 -5 -9 16 -8 17 0 24 3 18 6 -7
2 -13 16 -13 29 0 13 -4 24 -9 24 -5 0 -7 -9 -4 -21z"/>
<path d="M921 1037 l2 -32 5 30 5 30 7 -25 8 -25 2 25 c2 24 3 24 10 -5 l9
-30 -2 29 c-2 22 -8 30 -24 32 -20 3 -23 0 -22 -29z"/>
<path d="M984 1056 c-3 -9 -4 -23 0 -31 6 -16 41 -21 50 -6 3 4 -6 6 -19 3
-15 -2 -25 0 -25 7 0 6 12 11 26 11 16 0 24 5 22 13 -7 18 -47 21 -54 3z m39
-3 c-7 -2 -19 -2 -25 0 -7 3 -2 5 12 5 14 0 19 -2 13 -5z"/>
<path d="M1059 1035 l6 -30 3 28 c3 23 8 28 23 24 10 -3 17 -1 14 4 -4 5 -16
8 -28 7 -20 -2 -22 -6 -18 -33z"/>
<path d="M1150 1061 l25 -8 -25 -4 c-35 -6 -33 -34 3 -35 25 -1 28 2 25 25 -2
20 -9 26 -28 28 l-25 2 25 -8z m15 -31 c-3 -5 -13 -10 -21 -10 -8 0 -14 5 -14
10 0 6 9 10 21 10 11 0 17 -4 14 -10z"/>
<path d="M1199 1058 c11 -15 11 -21 0 -35 -13 -16 -12 -17 4 -4 14 11 20 11
35 0 15 -13 16 -12 3 4 -11 14 -11 20 0 35 13 15 12 16 -3 3 -15 -11 -21 -11
-35 0 -16 13 -17 12 -4 -3z"/>
<path d="M1474 1056 c-10 -26 4 -48 28 -44 17 2 23 10 23 28 0 18 -6 26 -23
28 -13 2 -25 -3 -28 -12z m46 -16 c0 -13 -7 -20 -20 -20 -13 0 -20 7 -20 20 0
13 7 20 20 20 13 0 20 -7 20 -20z"/>
<path d="M1541 1026 c1 -27 3 -34 7 -21 4 11 16 20 27 20 13 0 20 7 20 20 0
15 -7 20 -27 21 -26 1 -28 -1 -27 -40z m49 19 c0 -8 -6 -15 -14 -15 -17 0 -28
14 -19 24 12 12 33 6 33 -9z"/>
<path d="M1614 1056 c-3 -9 -4 -23 0 -31 6 -16 41 -21 50 -6 3 4 -6 6 -19 3
-15 -2 -25 0 -25 7 0 6 12 11 26 11 16 0 24 5 22 13 -7 18 -47 21 -54 3z m39
-3 c-7 -2 -19 -2 -25 0 -7 3 -2 5 12 5 14 0 19 -2 13 -5z"/>
<path d="M1689 1035 l6 -30 3 28 c3 23 8 28 23 24 10 -3 17 -1 14 4 -4 5 -16
8 -28 7 -20 -2 -22 -6 -18 -33z"/>
<path d="M1780 1061 l25 -8 -25 -4 c-35 -6 -33 -34 3 -35 25 -1 28 2 25 25 -2
20 -9 26 -28 28 l-25 2 25 -8z m15 -31 c-3 -5 -13 -10 -21 -10 -8 0 -14 5 -14
10 0 6 9 10 21 10 11 0 17 -4 14 -10z"/>
<path d="M1894 1056 c-3 -9 -4 -23 0 -31 6 -16 41 -21 50 -6 3 4 -6 6 -19 3
-15 -2 -25 0 -25 7 0 6 12 11 26 11 16 0 24 5 22 13 -7 18 -47 21 -54 3z m39
-3 c-7 -2 -19 -2 -25 0 -7 3 -2 5 12 5 14 0 19 -2 13 -5z"/>
<path d="M2455 1060 c-3 -5 7 -16 22 -25 l28 -16 -27 4 c-15 2 -25 0 -22 -4 7
-12 41 -11 49 1 3 5 -7 16 -22 25 l-28 16 27 -4 c15 -2 25 0 22 4 -7 12 -41
11 -49 -1z"/>
<path d="M2524 1056 c-3 -9 -4 -23 0 -31 6 -16 41 -21 50 -6 3 4 -6 6 -19 3
-15 -2 -25 0 -25 7 0 6 12 11 26 11 16 0 24 5 22 13 -7 18 -47 21 -54 3z m39
-3 c-7 -2 -19 -2 -25 0 -7 3 -2 5 12 5 14 0 19 -2 13 -5z"/>
<path d="M583 1053 c9 -2 23 -2 30 0 6 3 -1 5 -18 5 -16 0 -22 -2 -12 -5z"/>
<path d="M1353 1053 c9 -2 23 -2 30 0 6 3 -1 5 -18 5 -16 0 -22 -2 -12 -5z"/>
<path d="M516 1021 c-4 -5 -2 -12 3 -15 5 -4 12 -2 15 3 4 5 2 12 -3 15 -5 4
-12 2 -15 -3z"/>
<path d="M1271 968 c-4 -11 -5 -33 -2 -47 4 -22 6 -23 9 -6 2 11 9 23 16 27 8
6 7 8 -1 8 -7 0 -13 7 -13 16 0 11 6 15 20 11 11 -3 18 -1 14 4 -10 16 -35 9
-43 -13z"/>
<path d="M1612 945 c0 -36 2 -43 7 -25 10 36 38 38 44 3 5 -28 5 -28 3 2 -1
23 -6 30 -21 30 -11 0 -23 9 -27 20 -3 12 -6 -1 -6 -30z"/>
<path d="M1800 972 c0 -13 -7 -18 -22 -18 -18 1 -23 -5 -23 -24 0 -20 5 -25
28 -26 25 -1 27 1 27 42 0 24 -2 44 -5 44 -3 0 -5 -8 -5 -18z m-5 -42 c0 -8
-8 -16 -17 -18 -13 -2 -18 3 -18 18 0 15 5 20 18 18 9 -2 17 -10 17 -18z"/>
<path d="M1357 939 c4 -12 0 -25 -8 -30 -10 -6 -5 -9 16 -8 17 0 24 3 18 6 -7
2 -13 16 -13 29 0 13 -4 24 -9 24 -5 0 -7 -9 -4 -21z"/>
<path d="M1401 926 c1 -29 1 -30 8 -6 10 35 38 38 44 5 4 -24 4 -24 3 2 -1 23
-6 28 -28 29 -25 1 -28 -2 -27 -30z"/>
<path d="M1497 939 c4 -12 0 -25 -8 -30 -10 -6 -5 -9 16 -8 17 0 24 3 18 6 -7
2 -13 16 -13 29 0 13 -4 24 -9 24 -5 0 -7 -9 -4 -21z"/>
<path d="M1545 950 c-3 -5 7 -16 22 -25 l28 -16 -27 4 c-15 2 -25 0 -22 -4 7
-12 41 -11 49 1 3 5 -7 16 -22 25 l-28 16 27 -4 c15 -2 25 0 22 4 -7 12 -41
11 -49 -1z"/>
<path d="M1684 946 c-3 -9 -4 -23 0 -31 6 -16 41 -21 50 -6 3 4 -6 6 -19 3
-15 -2 -25 0 -25 7 0 6 12 11 26 11 16 0 24 5 22 13 -7 18 -47 21 -54 3z m39
-3 c-7 -2 -19 -2 -25 0 -7 3 -2 5 12 5 14 0 19 -2 13 -5z"/>
<path d="M5817 1132 c-20 -22 -22 -53 -5 -70 7 -7 8 -12 3 -13 -6 -1 -19 -2
-30 -3 -13 0 -20 -8 -20 -21 0 -13 7 -20 20 -20 11 0 23 -9 27 -20 4 -13 6 -7
7 21 1 39 2 40 29 36 19 -2 33 2 42 15 12 15 12 16 0 6 -31 -28 -80 -9 -80 32
0 41 49 60 80 33 12 -11 12 -10 1 5 -17 22 -54 22 -74 -1z m-14 -107 c1 -5 -6
-11 -15 -13 -11 -2 -18 3 -18 13 0 17 30 18 33 0z"/>
<path d="M3402 1073 l27 -4 -19 -32 c-11 -18 -20 -36 -20 -42 0 -5 11 10 25
34 14 23 25 45 25 47 0 2 -15 3 -32 3 -30 -2 -30 -2 -6 -6z"/>
<path d="M3732 1035 c0 -36 2 -43 7 -25 10 36 38 38 44 3 5 -28 5 -28 3 2 -1
23 -6 30 -21 30 -11 0 -23 9 -27 20 -3 12 -6 -1 -6 -30z"/>
<path d="M5007 1072 c6 -4 13 -25 16 -47 l4 -40 1 42 c1 23 8 44 15 46 6 3 -1
6 -18 6 -17 0 -25 -3 -18 -7z"/>
<path d="M5072 1068 c-7 -7 -11 -28 -11 -47 1 -20 3 -28 6 -18 2 9 13 17 23
17 10 0 21 -8 23 -17 3 -10 5 -2 6 18 1 31 -13 59 -29 59 -3 0 -11 -5 -18 -12z
m36 -21 c2 -12 -3 -17 -17 -17 -12 0 -21 6 -21 13 0 31 32 34 38 4z"/>
<path d="M5134 1066 c-3 -8 -4 -27 -2 -43 3 -29 31 -44 50 -25 6 6 0 8 -16 5
-24 -5 -26 -3 -26 32 0 34 2 37 25 33 13 -3 22 -1 19 3 -8 14 -44 10 -50 -5z"/>
<path d="M5212 1068 c-7 -7 -11 -28 -11 -47 1 -20 3 -28 6 -18 2 9 13 17 23
17 10 0 21 -8 23 -17 3 -10 5 -2 6 18 1 31 -13 59 -29 59 -3 0 -11 -5 -18 -12z
m36 -21 c2 -12 -3 -17 -17 -17 -12 0 -21 6 -21 13 0 31 32 34 38 4z"/>
<path d="M5271 1034 c1 -44 2 -46 8 -15 6 32 7 32 22 15 9 -11 19 -26 22 -34
3 -8 5 8 5 35 0 39 -2 44 -7 20 l-6 -29 -23 28 -22 29 1 -49z"/>
<path d="M5411 1034 c1 -44 2 -46 8 -15 6 32 7 32 22 15 9 -11 19 -26 22 -34
3 -8 5 8 5 35 0 39 -2 44 -7 20 l-6 -29 -23 28 -22 29 1 -49z"/>
<path d="M5484 1067 c-3 -9 -4 -28 -2 -44 2 -22 8 -28 28 -28 23 0 25 4 25 40
0 34 -3 40 -23 43 -13 2 -24 -3 -28 -11z m46 -32 c0 -28 -4 -35 -20 -35 -16 0
-20 7 -20 35 0 28 4 35 20 35 16 0 20 -7 20 -35z"/>
<path d="M4788 1058 c-13 -39 21 -83 44 -60 8 8 5 9 -11 5 -16 -4 -21 -1 -21
15 0 11 4 22 9 24 5 2 3 8 -4 15 -10 10 -14 10 -17 1z"/>
<path d="M3664 1035 c-9 -23 3 -45 25 -45 11 0 22 4 25 9 3 4 -6 6 -19 3 -21
-3 -25 0 -25 18 0 18 4 21 25 18 13 -3 22 -1 19 3 -9 15 -44 10 -50 -6z"/>
<path d="M3827 1029 c4 -12 0 -25 -8 -30 -10 -6 -5 -9 16 -8 17 0 24 3 18 6
-7 2 -13 16 -13 29 0 13 -4 24 -9 24 -5 0 -7 -9 -4 -21z"/>
<path d="M3881 1017 l2 -32 5 30 5 30 7 -25 8 -25 2 25 c2 24 3 24 10 -5 l9
-30 -2 29 c-2 22 -8 30 -24 32 -20 3 -23 0 -22 -29z"/>
<path d="M3944 1036 c-3 -9 -4 -23 0 -31 6 -16 41 -21 50 -6 3 4 -6 6 -19 3
-15 -2 -25 0 -25 7 0 6 12 11 26 11 16 0 24 5 22 13 -7 18 -47 21 -54 3z m39
-3 c-7 -2 -19 -2 -25 0 -7 3 -2 5 12 5 14 0 19 -2 13 -5z"/>
<path d="M4019 1015 l6 -30 3 28 c3 23 8 28 23 24 10 -3 17 -1 14 4 -4 5 -16
8 -28 7 -20 -2 -22 -6 -18 -33z"/>
<path d="M4110 1041 l25 -8 -25 -4 c-35 -6 -33 -34 3 -35 25 -1 28 2 25 25 -2
20 -9 26 -28 28 l-25 2 25 -8z m15 -31 c-3 -5 -13 -10 -21 -10 -8 0 -14 5 -14
10 0 6 9 10 21 10 11 0 17 -4 14 -10z"/>
<path d="M4159 1038 c11 -15 11 -21 0 -35 -13 -16 -12 -17 4 -4 14 11 20 11
35 0 15 -13 16 -12 3 4 -11 14 -11 20 0 35 13 15 12 16 -3 3 -15 -11 -21 -11
-35 0 -16 13 -17 12 -4 -3z"/>
<path d="M4434 1036 c-10 -26 4 -48 28 -44 17 2 23 10 23 28 0 18 -6 26 -23
28 -13 2 -25 -3 -28 -12z m46 -16 c0 -13 -7 -20 -20 -20 -13 0 -20 7 -20 20 0
13 7 20 20 20 13 0 20 -7 20 -20z"/>
<path d="M4501 1006 c1 -27 3 -34 7 -21 4 11 16 20 27 20 13 0 20 7 20 20 0
15 -7 20 -27 21 -26 1 -28 -1 -27 -40z m49 19 c0 -8 -6 -15 -14 -15 -17 0 -28
14 -19 24 12 12 33 6 33 -9z"/>
<path d="M4574 1036 c-3 -9 -4 -23 0 -31 6 -16 41 -21 50 -6 3 4 -6 6 -19 3
-15 -2 -25 0 -25 7 0 6 12 11 26 11 16 0 24 5 22 13 -7 18 -47 21 -54 3z m39
-3 c-7 -2 -19 -2 -25 0 -7 3 -2 5 12 5 14 0 19 -2 13 -5z"/>
<path d="M4649 1015 l6 -30 3 28 c3 23 8 28 23 24 10 -3 17 -1 14 4 -4 5 -16
8 -28 7 -20 -2 -22 -6 -18 -33z"/>
<path d="M4740 1041 l25 -8 -25 -4 c-35 -6 -33 -34 3 -35 25 -1 28 2 25 25 -2
20 -9 26 -28 28 l-25 2 25 -8z m15 -31 c-3 -5 -13 -10 -21 -10 -8 0 -14 5 -14
10 0 6 9 10 21 10 11 0 17 -4 14 -10z"/>
<path d="M4854 1036 c-3 -9 -4 -23 0 -31 6 -16 41 -21 50 -6 3 4 -6 6 -19 3
-15 -2 -25 0 -25 7 0 6 12 11 26 11 16 0 24 5 22 13 -7 18 -47 21 -54 3z m39
-3 c-7 -2 -19 -2 -25 0 -7 3 -2 5 12 5 14 0 19 -2 13 -5z"/>
<path d="M5625 1040 c-3 -5 7 -16 22 -25 l28 -16 -27 4 c-15 2 -25 0 -22 -4 7
-12 41 -11 49 1 3 5 -7 16 -22 25 l-28 16 27 -4 c15 -2 25 0 22 4 -7 12 -41
11 -49 -1z"/>
<path d="M5694 1036 c-3 -9 -4 -23 0 -31 6 -16 41 -21 50 -6 3 4 -6 6 -19 3
-15 -2 -25 0 -25 7 0 6 12 11 26 11 16 0 24 5 22 13 -7 18 -47 21 -54 3z m39
-3 c-7 -2 -19 -2 -25 0 -7 3 -2 5 12 5 14 0 19 -2 13 -5z"/>
<path d="M3543 1033 c9 -2 23 -2 30 0 6 3 -1 5 -18 5 -16 0 -22 -2 -12 -5z"/>
<path d="M4313 1033 c9 -2 23 -2 30 0 6 3 -1 5 -18 5 -16 0 -22 -2 -12 -5z"/>
<path d="M3476 1001 c-4 -5 -2 -12 3 -15 5 -4 12 -2 15 3 4 5 2 12 -3 15 -5 4
-12 2 -15 -3z"/>
<path d="M4331 948 c-4 -11 -5 -33 -2 -47 4 -22 6 -23 9 -6 2 11 9 23 16 27 8
6 7 8 -1 8 -7 0 -13 7 -13 16 0 11 6 15 20 11 11 -3 18 -1 14 4 -10 16 -35 9
-43 -13z"/>
<path d="M4672 925 c0 -36 2 -43 7 -25 10 36 38 38 44 3 5 -28 5 -28 3 2 -1
23 -6 30 -21 30 -11 0 -23 9 -27 20 -3 12 -6 -1 -6 -30z"/>
<path d="M4860 952 c0 -13 -7 -18 -22 -18 -18 1 -23 -5 -23 -24 0 -20 5 -25
28 -26 25 -1 27 1 27 42 0 24 -2 44 -5 44 -3 0 -5 -8 -5 -18z m-5 -42 c0 -8
-8 -16 -17 -18 -13 -2 -18 3 -18 18 0 15 5 20 18 18 9 -2 17 -10 17 -18z"/>
<path d="M4417 919 c4 -12 0 -25 -8 -30 -10 -6 -5 -9 16 -8 17 0 24 3 18 6 -7
2 -13 16 -13 29 0 13 -4 24 -9 24 -5 0 -7 -9 -4 -21z"/>
<path d="M4461 906 c1 -29 1 -30 8 -6 10 35 38 38 44 5 4 -24 4 -24 3 2 -1 23
-6 28 -28 29 -25 1 -28 -2 -27 -30z"/>
<path d="M4557 919 c4 -12 0 -25 -8 -30 -10 -6 -5 -9 16 -8 17 0 24 3 18 6 -7
2 -13 16 -13 29 0 13 -4 24 -9 24 -5 0 -7 -9 -4 -21z"/>
<path d="M4605 930 c-3 -5 7 -16 22 -25 l28 -16 -27 4 c-15 2 -25 0 -22 -4 7
-12 41 -11 49 1 3 5 -7 16 -22 25 l-28 16 27 -4 c15 -2 25 0 22 4 -7 12 -41
11 -49 -1z"/>
<path d="M4744 926 c-3 -9 -4 -23 0 -31 6 -16 41 -21 50 -6 3 4 -6 6 -19 3
-15 -2 -25 0 -25 7 0 6 12 11 26 11 16 0 24 5 22 13 -7 18 -47 21 -54 3z m39
-3 c-7 -2 -19 -2 -25 0 -7 3 -2 5 12 5 14 0 19 -2 13 -5z"/>
<path d="M2787 432 c-20 -22 -22 -53 -5 -70 7 -7 8 -12 3 -13 -6 -1 -19 -2
-30 -3 -13 0 -20 -8 -20 -21 0 -13 7 -20 20 -20 11 0 23 -9 27 -20 4 -13 6 -7
7 21 1 39 2 40 29 36 19 -2 33 2 42 15 12 15 12 16 0 6 -31 -28 -80 -9 -80 32
0 41 49 60 80 33 12 -11 12 -10 1 5 -17 22 -54 22 -74 -1z m-14 -107 c1 -5 -6
-11 -15 -13 -11 -2 -18 3 -18 13 0 17 30 18 33 0z"/>
<path d="M216 368 c-3 -7 -4 -26 -3 -43 2 -25 6 -30 27 -30 23 0 25 4 25 40 0
34 -3 40 -23 43 -12 2 -24 -3 -26 -10z m44 -13 c0 -8 -9 -15 -20 -15 -11 0
-20 7 -20 15 0 8 9 15 20 15 11 0 20 -7 20 -15z m0 -40 c0 -8 -9 -15 -20 -15
-11 0 -20 7 -20 15 0 8 9 15 20 15 11 0 20 -7 20 -15z"/>
<path d="M562 335 c0 -36 2 -43 7 -25 10 36 38 38 44 3 5 -28 5 -28 3 2 -1 23
-6 30 -21 30 -11 0 -23 9 -27 20 -3 12 -6 -1 -6 -30z"/>
<path d="M1940 362 c0 -13 -7 -18 -22 -18 -18 1 -23 -5 -23 -24 0 -20 5 -25
28 -26 25 -1 27 1 27 42 0 24 -2 44 -5 44 -3 0 -5 -8 -5 -18z m-5 -42 c0 -8
-8 -16 -17 -18 -13 -2 -18 3 -18 18 0 15 5 20 18 18 9 -2 17 -10 17 -18z"/>
<path d="M1961 339 c-1 -44 0 -46 27 -45 22 1 27 6 27 26 0 18 -5 25 -20 25
-11 0 -23 9 -27 20 -4 13 -6 3 -7 -26z m49 -19 c0 -11 -6 -20 -14 -20 -18 0
-29 16 -21 30 11 18 35 11 35 -10z"/>
<path d="M2187 372 c6 -4 13 -25 16 -47 l4 -40 1 42 c1 23 8 44 15 46 6 3 -1
6 -18 6 -17 0 -25 -3 -18 -7z"/>
<path d="M2252 368 c-7 -7 -11 -28 -11 -47 1 -20 3 -28 6 -18 2 9 13 17 23 17
10 0 21 -8 23 -17 3 -10 5 -2 6 18 1 31 -13 59 -29 59 -3 0 -11 -5 -18 -12z
m36 -21 c2 -12 -3 -17 -17 -17 -12 0 -21 6 -21 13 0 31 32 34 38 4z"/>
<path d="M2314 366 c-3 -8 -4 -27 -2 -43 3 -29 31 -44 50 -25 6 6 0 8 -16 5
-24 -5 -26 -3 -26 32 0 34 2 37 25 33 13 -3 22 -1 19 3 -8 14 -44 10 -50 -5z"/>
<path d="M2392 368 c-7 -7 -11 -28 -11 -47 1 -20 3 -28 6 -18 2 9 13 17 23 17
10 0 21 -8 23 -17 3 -10 5 -2 6 18 1 31 -13 59 -29 59 -3 0 -11 -5 -18 -12z
m36 -21 c2 -12 -3 -17 -17 -17 -12 0 -21 6 -21 13 0 31 32 34 38 4z"/>
<path d="M2451 334 c1 -44 2 -46 8 -15 6 32 7 32 22 15 9 -11 19 -26 22 -34 3
-8 5 8 5 35 0 39 -2 44 -7 20 l-6 -29 -23 28 -22 29 1 -49z"/>
<path d="M491 306 c1 -27 3 -34 7 -21 4 11 16 20 27 20 13 0 20 7 20 20 0 15
-7 20 -27 21 -26 1 -28 -1 -27 -40z m49 19 c0 -8 -6 -15 -14 -15 -17 0 -28 14
-19 24 12 12 33 6 33 -9z"/>
<path d="M634 336 c-3 -9 -4 -23 0 -31 6 -16 41 -21 50 -6 3 4 -6 6 -19 3 -15
-2 -25 0 -25 7 0 6 12 11 26 11 16 0 24 5 22 13 -7 18 -47 21 -54 3z m39 -3
c-7 -2 -19 -2 -25 0 -7 3 -2 5 12 5 14 0 19 -2 13 -5z"/>
<path d="M701 316 c1 -29 1 -30 8 -6 10 35 38 38 44 5 4 -24 4 -24 3 2 -1 23
-6 28 -28 29 -25 1 -28 -2 -27 -30z"/>
<path d="M797 329 c4 -12 0 -25 -8 -30 -10 -6 -5 -9 16 -8 17 0 24 3 18 6 -7
2 -13 16 -13 29 0 13 -4 24 -9 24 -5 0 -7 -9 -4 -21z"/>
<path d="M849 338 c11 -15 11 -21 0 -35 -13 -16 -12 -17 4 -4 14 11 20 11 35
0 15 -13 16 -12 3 4 -11 14 -11 20 0 35 13 15 12 16 -3 3 -15 -11 -21 -11 -35
0 -16 13 -17 12 -4 -3z"/>
<path d="M1125 340 c-3 -5 7 -16 22 -25 l28 -16 -27 4 c-15 2 -25 0 -22 -4 7
-12 41 -11 49 1 3 5 -7 16 -22 25 l-28 16 27 -4 c15 -2 25 0 22 4 -7 12 -41
11 -49 -1z"/>
<path d="M1194 320 c1 -20 6 -25 29 -26 24 -1 27 2 26 30 -1 29 -1 30 -8 6 -9
-33 -38 -39 -44 -8 -4 21 -4 21 -3 -2z"/>
<path d="M1260 310 c0 -23 -5 -40 -14 -43 -17 -7 -24 -36 -15 -67 6 -23 7 -23
8 -3 1 12 7 24 14 26 10 4 10 6 0 6 -7 1 -13 8 -13 17 0 11 6 15 18 12 15 -4
17 0 14 22 -3 23 0 27 20 26 17 -1 23 4 23 19 0 15 -7 20 -27 21 -26 1 -28 -2
-28 -36z m50 15 c0 -8 -6 -15 -14 -15 -17 0 -28 14 -19 24 12 12 33 6 33 -9z"/>
<path d="M1334 336 c-3 -9 -4 -23 0 -31 6 -16 41 -21 50 -6 3 4 -6 6 -19 3
-15 -2 -25 0 -25 7 0 6 12 11 26 11 16 0 24 5 22 13 -7 18 -47 21 -54 3z m39
-3 c-7 -2 -19 -2 -25 0 -7 3 -2 5 12 5 14 0 19 -2 13 -5z"/>
<path d="M1409 315 l6 -30 3 28 c3 23 8 28 23 24 10 -3 17 -1 14 4 -4 5 -16 8
-28 7 -20 -2 -22 -6 -18 -33z"/>
<path d="M1471 306 c1 -27 3 -34 7 -21 4 11 16 20 27 20 13 0 20 7 20 20 0 15
-7 20 -27 21 -26 1 -28 -1 -27 -40z m49 19 c0 -8 -6 -15 -14 -15 -17 0 -28 14
-19 24 12 12 33 6 33 -9z"/>
<path d="M1544 336 c-10 -26 4 -48 28 -44 17 2 23 10 23 28 0 18 -6 26 -23 28
-13 2 -25 -3 -28 -12z m46 -16 c0 -13 -7 -20 -20 -20 -13 0 -20 7 -20 20 0 13
7 20 20 20 13 0 20 -7 20 -20z"/>
<path d="M1615 340 c-3 -5 7 -16 22 -25 l28 -16 -27 4 c-15 2 -25 0 -22 -4 7
-12 41 -11 49 1 3 5 -7 16 -22 25 l-28 16 27 -4 c15 -2 25 0 22 4 -7 12 -41
11 -49 -1z"/>
<path d="M1684 336 c-3 -9 -4 -23 0 -31 6 -16 41 -21 50 -6 3 4 -6 6 -19 3
-15 -2 -25 0 -25 7 0 6 12 11 26 11 16 0 24 5 22 13 -7 18 -47 21 -54 3z m39
-3 c-7 -2 -19 -2 -25 0 -7 3 -2 5 12 5 14 0 19 -2 13 -5z"/>
<path d="M1821 306 c1 -27 3 -34 7 -21 4 11 16 20 27 20 13 0 20 7 20 20 0 15
-7 20 -27 21 -26 1 -28 -1 -27 -40z m49 19 c0 -8 -6 -15 -14 -15 -17 0 -28 14
-19 24 12 12 33 6 33 -9z"/>
<path d="M2035 340 c-3 -5 7 -16 22 -25 l28 -16 -27 4 c-15 2 -25 0 -22 -4 7
-12 41 -11 49 1 3 5 -7 16 -22 25 l-28 16 27 -4 c15 -2 25 0 22 4 -7 12 -41
11 -49 -1z"/>
<path d="M2595 340 c-3 -5 7 -16 22 -25 l28 -16 -27 4 c-15 2 -25 0 -22 -4 7
-12 41 -11 49 1 3 5 -7 16 -22 25 l-28 16 27 -4 c15 -2 25 0 22 4 -7 12 -41
11 -49 -1z"/>
<path d="M2664 336 c-3 -9 -4 -23 0 -31 6 -16 41 -21 50 -6 3 4 -6 6 -19 3
-15 -2 -25 0 -25 7 0 6 12 11 26 11 16 0 24 5 22 13 -7 18 -47 21 -54 3z m39
-3 c-7 -2 -19 -2 -25 0 -7 3 -2 5 12 5 14 0 19 -2 13 -5z"/>
<path d="M373 333 c9 -2 23 -2 30 0 6 3 -1 5 -18 5 -16 0 -22 -2 -12 -5z"/>
<path d="M1003 333 c9 -2 23 -2 30 0 6 3 -1 5 -18 5 -16 0 -22 -2 -12 -5z"/>
<path d="M306 301 c-4 -5 -2 -12 3 -15 5 -4 12 -2 15 3 4 5 2 12 -3 15 -5 4
-12 2 -15 -3z"/>
<path d="M1572 225 c0 -36 2 -43 7 -25 10 36 38 38 44 3 5 -28 5 -28 3 2 -1
23 -6 30 -21 30 -11 0 -23 9 -27 20 -3 12 -6 -1 -6 -30z"/>
<path d="M1760 252 c0 -13 -7 -18 -22 -18 -18 1 -23 -5 -23 -24 0 -20 5 -25
28 -26 25 -1 27 1 27 42 0 24 -2 44 -5 44 -3 0 -5 -8 -5 -18z m-5 -42 c0 -8
-8 -16 -17 -18 -13 -2 -18 3 -18 18 0 15 5 20 18 18 9 -2 17 -10 17 -18z"/>
<path d="M1317 219 c4 -12 0 -25 -8 -30 -10 -6 -5 -9 16 -8 17 0 24 3 18 6 -7
2 -13 16 -13 29 0 13 -4 24 -9 24 -5 0 -7 -9 -4 -21z"/>
<path d="M1361 206 c1 -29 1 -30 8 -6 10 35 38 38 44 5 4 -24 4 -24 3 2 -1 23
-6 28 -28 29 -25 1 -28 -2 -27 -30z"/>
<path d="M1457 219 c4 -12 0 -25 -8 -30 -10 -6 -5 -9 16 -8 17 0 24 3 18 6 -7
2 -13 16 -13 29 0 13 -4 24 -9 24 -5 0 -7 -9 -4 -21z"/>
<path d="M1505 230 c-3 -5 7 -16 22 -25 l28 -16 -27 4 c-15 2 -25 0 -22 -4 7
-12 41 -11 49 1 3 5 -7 16 -22 25 l-28 16 27 -4 c15 -2 25 0 22 4 -7 12 -41
11 -49 -1z"/>
<path d="M1644 226 c-3 -9 -4 -23 0 -31 6 -16 41 -21 50 -6 3 4 -6 6 -19 3
-15 -2 -25 0 -25 7 0 6 12 11 26 11 16 0 24 5 22 13 -7 18 -47 21 -54 3z m39
-3 c-7 -2 -19 -2 -25 0 -7 3 -2 5 12 5 14 0 19 -2 13 -5z"/>
</g>
</svg>
