<?xml version="1.0" encoding="UTF-8" standalone="no"?>
<!DOCTYPE svg PUBLIC "-//W3C//DTD SVG 1.1//EN"
 "http://www.w3.org/Graphics/SVG/1.1/DTD/svg11.dtd">
<!-- Generated by graphviz version 2.44.0 (0)
 -->
<!-- Title: classes_object Pages: 1 -->
<svg width="1098pt" height="2058pt"
 viewBox="0.00 0.00 1098.00 2058.00" xmlns="http://www.w3.org/2000/svg" xmlns:xlink="http://www.w3.org/1999/xlink">
<g id="graph0" class="graph" transform="scale(1 1) rotate(0) translate(4 2054)">
<title>classes_object</title>
<polygon fill="white" stroke="transparent" points="-4,4 -4,-2054 1094,-2054 1094,4 -4,4"/>
<!-- 0 -->
<g id="node1" class="node">
<title>0</title>
<polygon fill="none" stroke="black" points="454,-23 454,-93 516,-93 516,-23 454,-23"/>
<text text-anchor="middle" x="485" y="-77.8" font-family="Times,serif" font-size="14.00">Boolean</text>
<polyline fill="none" stroke="black" points="454,-70 516,-70 "/>
<polyline fill="none" stroke="black" points="454,-46 516,-46 "/>
<text text-anchor="middle" x="485" y="-30.8" font-family="Times,serif" font-size="14.00"> </text>
</g>
<!-- 10 -->
<g id="node11" class="node">
<title>10</title>
<polygon fill="none" stroke="black" points="446,-369.5 446,-559.5 674,-559.5 674,-369.5 446,-369.5"/>
<text text-anchor="middle" x="560" y="-544.3" font-family="Times,serif" font-size="14.00">Scalar</text>
<polyline fill="none" stroke="black" points="446,-536.5 674,-536.5 "/>
<polyline fill="none" stroke="black" points="446,-512.5 674,-512.5 "/>
<text text-anchor="start" x="454" y="-497.3" font-family="Times,serif" font-size="14.00">equalAttributes(other, ignore, verbose)</text>
<text text-anchor="start" x="454" y="-482.3" font-family="Times,serif" font-size="14.00">get(default)</text>
<text text-anchor="start" x="454" y="-467.3" font-family="Times,serif" font-size="14.00">getPointer()</text>
<text text-anchor="start" x="454" y="-452.3" font-family="Times,serif" font-size="14.00">hasPointer()</text>
<text text-anchor="start" x="454" y="-437.3" font-family="Times,serif" font-size="14.00">hasValue()</text>
<text text-anchor="start" x="454" y="-422.3" font-family="Times,serif" font-size="14.00">multiply(value)</text>
<text text-anchor="start" x="454" y="-407.3" font-family="Times,serif" font-size="14.00">setPointer(pointer)</text>
<text text-anchor="start" x="454" y="-392.3" font-family="Times,serif" font-size="14.00">sum(value)</text>
<text text-anchor="start" x="454" y="-377.3" font-family="Times,serif" font-size="14.00">swap(other)</text>
</g>
<!-- 0&#45;&gt;10 -->
<g id="edge1" class="edge">
<title>0&#45;&gt;10</title>
<path fill="none" stroke="black" d="M491.33,-93.14C502.09,-151.18 524.37,-271.35 540.65,-359.11"/>
<polygon fill="none" stroke="black" points="537.23,-359.92 542.5,-369.11 544.12,-358.64 537.23,-359.92"/>
</g>
<!-- 1 -->
<g id="node2" class="node">
<title>1</title>
<polygon fill="none" stroke="black" points="342,-0.5 342,-115.5 436,-115.5 436,-0.5 342,-0.5"/>
<text text-anchor="middle" x="389" y="-100.3" font-family="Times,serif" font-size="14.00">CsvList</text>
<polyline fill="none" stroke="black" points="342,-92.5 436,-92.5 "/>
<polyline fill="none" stroke="black" points="342,-68.5 436,-68.5 "/>
<text text-anchor="start" x="350" y="-53.3" font-family="Times,serif" font-size="14.00">clear()</text>
<text text-anchor="start" x="350" y="-38.3" font-family="Times,serif" font-size="14.00">get()</text>
<text text-anchor="start" x="350" y="-23.3" font-family="Times,serif" font-size="14.00">getObjValue()</text>
<text text-anchor="start" x="350" y="-8.3" font-family="Times,serif" font-size="14.00">isEmpty()</text>
</g>
<!-- 1&#45;&gt;10 -->
<g id="edge2" class="edge">
<title>1&#45;&gt;10</title>
<path fill="none" stroke="black" d="M433.14,-115.61C437.06,-121.67 440.76,-127.86 444,-134 481.97,-205.95 512,-292.98 531.99,-359.52"/>
<polygon fill="none" stroke="black" points="528.66,-360.6 534.86,-369.18 535.37,-358.6 528.66,-360.6"/>
</g>
<!-- 11 -->
<g id="node12" class="node">
<title>11</title>
<polygon fill="none" stroke="black" points="112,-167.5 112,-761.5 428,-761.5 428,-167.5 112,-167.5"/>
<text text-anchor="middle" x="270" y="-746.3" font-family="Times,serif" font-size="14.00">Set</text>
<polyline fill="none" stroke="black" points="112,-738.5 428,-738.5 "/>
<text text-anchor="start" x="120" y="-723.3" font-family="Times,serif" font-size="14.00">FILE_TEMPLATE_NAME : str</text>
<text text-anchor="start" x="120" y="-708.3" font-family="Times,serif" font-size="14.00">ITEM_TYPE : NoneType</text>
<text text-anchor="start" x="120" y="-693.3" font-family="Times,serif" font-size="14.00">STREAM_CLOSED : int</text>
<text text-anchor="start" x="120" y="-678.3" font-family="Times,serif" font-size="14.00">STREAM_OPEN : int</text>
<text text-anchor="start" x="120" y="-663.3" font-family="Times,serif" font-size="14.00">indexes : list</text>
<polyline fill="none" stroke="black" points="112,-655.5 428,-655.5 "/>
<text text-anchor="start" x="120" y="-640.3" font-family="Times,serif" font-size="14.00">aggregate(operations, operationLabel, groupByLabels)</text>
<text text-anchor="start" x="120" y="-625.3" font-family="Times,serif" font-size="14.00">append(item)</text>
<text text-anchor="start" x="120" y="-610.3" font-family="Times,serif" font-size="14.00">clear()</text>
<text text-anchor="start" x="120" y="-595.3" font-family="Times,serif" font-size="14.00">close()</text>
<text text-anchor="start" x="120" y="-580.3" font-family="Times,serif" font-size="14.00">create(cls, path, template, suffix)</text>
<text text-anchor="start" x="120" y="-565.3" font-family="Times,serif" font-size="14.00">enableAppend()</text>
<text text-anchor="start" x="120" y="-550.3" font-family="Times,serif" font-size="14.00">equalItemAttributes(other, ignore, verbose)</text>
<text text-anchor="start" x="120" y="-535.3" font-family="Times,serif" font-size="14.00">getFileName()</text>
<text text-anchor="start" x="120" y="-520.3" font-family="Times,serif" font-size="14.00">getFiles()</text>
<text text-anchor="start" x="120" y="-505.3" font-family="Times,serif" font-size="14.00">getFirstItem()</text>
<text text-anchor="start" x="120" y="-490.3" font-family="Times,serif" font-size="14.00">getIdSet()</text>
<text text-anchor="start" x="120" y="-475.3" font-family="Times,serif" font-size="14.00">getPrefix()</text>
<text text-anchor="start" x="120" y="-460.3" font-family="Times,serif" font-size="14.00">getProperty(key, defaultValue)</text>
<text text-anchor="start" x="120" y="-445.3" font-family="Times,serif" font-size="14.00">getRepresentative()</text>
<text text-anchor="start" x="120" y="-430.3" font-family="Times,serif" font-size="14.00">getSize()</text>
<text text-anchor="start" x="120" y="-415.3" font-family="Times,serif" font-size="14.00">getStreamState()</text>
<text text-anchor="start" x="120" y="-400.3" font-family="Times,serif" font-size="14.00">getSubset(n)</text>
<text text-anchor="start" x="120" y="-385.3" font-family="Times,serif" font-size="14.00">hasProperty(key)</text>
<text text-anchor="start" x="120" y="-370.3" font-family="Times,serif" font-size="14.00">hasRepresentative()</text>
<text text-anchor="start" x="120" y="-355.3" font-family="Times,serif" font-size="14.00">isEmpty()</text>
<text text-anchor="start" x="120" y="-340.3" font-family="Times,serif" font-size="14.00">isStreamClosed()</text>
<text text-anchor="start" x="120" y="-325.3" font-family="Times,serif" font-size="14.00">isStreamOpen()</text>
<text text-anchor="start" x="120" y="-310.3" font-family="Times,serif" font-size="14.00">iterItems(orderBy, direction, where, limit)</text>
<text text-anchor="start" x="120" y="-295.3" font-family="Times,serif" font-size="14.00">load()</text>
<text text-anchor="start" x="120" y="-280.3" font-family="Times,serif" font-size="14.00">loadAllProperties()</text>
<text text-anchor="start" x="120" y="-265.3" font-family="Times,serif" font-size="14.00">loadProperty(propertyName, defaultValue)</text>
<text text-anchor="start" x="120" y="-250.3" font-family="Times,serif" font-size="14.00">setClassesDict(classesDict)</text>
<text text-anchor="start" x="120" y="-235.3" font-family="Times,serif" font-size="14.00">setMapperClass(MapperClass)</text>
<text text-anchor="start" x="120" y="-220.3" font-family="Times,serif" font-size="14.00">setRepresentative(representative)</text>
<text text-anchor="start" x="120" y="-205.3" font-family="Times,serif" font-size="14.00">setStreamState(newState)</text>
<text text-anchor="start" x="120" y="-190.3" font-family="Times,serif" font-size="14.00">update(item)</text>
<text text-anchor="start" x="120" y="-175.3" font-family="Times,serif" font-size="14.00">write(properties)</text>
</g>
<!-- 1&#45;&gt;11 -->
<g id="edge12" class="edge">
<title>1&#45;&gt;11</title>
<path fill="none" stroke="black" d="M372.33,-115.67C368.8,-127.68 364.83,-141.15 360.58,-155.62"/>
<polygon fill="black" stroke="black" points="360.49,-155.91 362.63,-162.8 357.1,-167.43 354.96,-160.54 360.49,-155.91"/>
<text text-anchor="middle" x="403.5" y="-137.8" font-family="Times,serif" font-size="14.00" fill="green">_mapperPath</text>
</g>
<!-- 2 -->
<g id="node3" class="node">
<title>2</title>
<polygon fill="none" stroke="black" points="1036,-23 1036,-93 1090,-93 1090,-23 1036,-23"/>
<text text-anchor="middle" x="1063" y="-77.8" font-family="Times,serif" font-size="14.00">Dict</text>
<polyline fill="none" stroke="black" points="1036,-70 1090,-70 "/>
<polyline fill="none" stroke="black" points="1036,-46 1090,-46 "/>
<text text-anchor="middle" x="1063" y="-30.8" font-family="Times,serif" font-size="14.00"> </text>
</g>
<!-- 3 -->
<g id="node4" class="node">
<title>3</title>
<polygon fill="none" stroke="black" points="534,-16 534,-100 762,-100 762,-16 534,-16"/>
<text text-anchor="middle" x="648" y="-84.8" font-family="Times,serif" font-size="14.00">Float</text>
<polyline fill="none" stroke="black" points="534,-77 762,-77 "/>
<text text-anchor="start" x="542" y="-61.8" font-family="Times,serif" font-size="14.00">EQUAL_PRECISION : float</text>
<polyline fill="none" stroke="black" points="534,-54 762,-54 "/>
<text text-anchor="start" x="542" y="-38.8" font-family="Times,serif" font-size="14.00">equalAttributes(other, ignore, verbose)</text>
<text text-anchor="start" x="542" y="-23.8" font-family="Times,serif" font-size="14.00">setPrecision(cls, newPrecision)</text>
</g>
<!-- 3&#45;&gt;10 -->
<g id="edge3" class="edge">
<title>3&#45;&gt;10</title>
<path fill="none" stroke="black" d="M639.08,-100.01C625.96,-160.29 601.05,-274.79 582.68,-359.24"/>
<polygon fill="none" stroke="black" points="579.24,-358.61 580.53,-369.13 586.08,-360.1 579.24,-358.61"/>
</g>
<!-- 4 -->
<g id="node5" class="node">
<title>4</title>
<polygon fill="none" stroke="black" points="230,-23 230,-93 310,-93 310,-23 230,-23"/>
<text text-anchor="middle" x="270" y="-77.8" font-family="Times,serif" font-size="14.00">Integer</text>
<polyline fill="none" stroke="black" points="230,-70 310,-70 "/>
<polyline fill="none" stroke="black" points="230,-46 310,-46 "/>
<text text-anchor="start" x="238" y="-30.8" font-family="Times,serif" font-size="14.00">increment()</text>
</g>
<!-- 4&#45;&gt;10 -->
<g id="edge4" class="edge">
<title>4&#45;&gt;10</title>
<path fill="none" stroke="black" d="M300.27,-93.34C318.7,-112.29 343.7,-134.79 370,-149 397.13,-163.66 413.82,-146.67 437,-167 493.29,-216.37 524.37,-295.59 541.21,-359.72"/>
<polygon fill="none" stroke="black" points="537.83,-360.65 543.69,-369.47 544.61,-358.92 537.83,-360.65"/>
</g>
<!-- 4&#45;&gt;11 -->
<g id="edge13" class="edge">
<title>4&#45;&gt;11</title>
<path fill="none" stroke="black" d="M241.19,-93.04C232.64,-105.19 224.4,-119.47 220,-134 217.91,-140.92 216.13,-147.95 214.66,-155.05"/>
<polygon fill="black" stroke="black" points="214.62,-155.29 217.47,-161.91 212.45,-167.09 209.6,-160.47 214.62,-155.29"/>
<text text-anchor="middle" x="234" y="-137.8" font-family="Times,serif" font-size="14.00" fill="green">_size</text>
</g>
<!-- 4&#45;&gt;11 -->
<g id="edge14" class="edge">
<title>4&#45;&gt;11</title>
<path fill="none" stroke="black" d="M270,-93.14C270,-109.59 270,-131.03 270,-155.3"/>
<polygon fill="black" stroke="black" points="270,-155.44 274,-161.44 270,-167.44 266,-161.44 270,-155.44"/>
<text text-anchor="middle" x="305.5" y="-137.8" font-family="Times,serif" font-size="14.00" fill="green">_streamState</text>
</g>
<!-- 5 -->
<g id="node6" class="node">
<title>5</title>
<polygon fill="none" stroke="black" points="86.5,-1063.5 86.5,-1177.5 217.5,-1177.5 217.5,-1063.5 86.5,-1063.5"/>
<text text-anchor="middle" x="152" y="-1162.3" font-family="Times,serif" font-size="14.00">List</text>
<polyline fill="none" stroke="black" points="86.5,-1154.5 217.5,-1154.5 "/>
<text text-anchor="start" x="94.5" y="-1139.3" font-family="Times,serif" font-size="14.00">ITEM_PREFIX : str</text>
<polyline fill="none" stroke="black" points="86.5,-1131.5 217.5,-1131.5 "/>
<text text-anchor="start" x="94.5" y="-1116.3" font-family="Times,serif" font-size="14.00">clear()</text>
<text text-anchor="start" x="94.5" y="-1101.3" font-family="Times,serif" font-size="14.00">getAttributes()</text>
<text text-anchor="start" x="94.5" y="-1086.3" font-family="Times,serif" font-size="14.00">getSize()</text>
<text text-anchor="start" x="94.5" y="-1071.3" font-family="Times,serif" font-size="14.00">isEmpty()</text>
</g>
<!-- 6 -->
<g id="node7" class="node">
<title>6</title>
<polygon fill="none" stroke="black" points="330.5,-1215.5 330.5,-2049.5 659.5,-2049.5 659.5,-1215.5 330.5,-1215.5"/>
<text text-anchor="middle" x="495" y="-2034.3" font-family="Times,serif" font-size="14.00">Object</text>
<polyline fill="none" stroke="black" points="330.5,-2026.5 659.5,-2026.5 "/>
<text text-anchor="start" x="338.5" y="-2011.3" font-family="Times,serif" font-size="14.00">set</text>
<polyline fill="none" stroke="black" points="330.5,-2003.5 659.5,-2003.5 "/>
<text text-anchor="start" x="338.5" y="-1988.3" font-family="Times,serif" font-size="14.00">cleanObjId()</text>
<text text-anchor="start" x="338.5" y="-1973.3" font-family="Times,serif" font-size="14.00">clone()</text>
<text text-anchor="start" x="338.5" y="-1958.3" font-family="Times,serif" font-size="14.00">copy(other, copyId, ignoreAttrs)</text>
<text text-anchor="start" x="338.5" y="-1943.3" font-family="Times,serif" font-size="14.00">copyAttributes(other)</text>
<text text-anchor="start" x="338.5" y="-1928.3" font-family="Times,serif" font-size="14.00">copyObjId(other)</text>
<text text-anchor="start" x="338.5" y="-1913.3" font-family="Times,serif" font-size="14.00">equalAttributes(other, ignore, verbose)</text>
<text text-anchor="start" x="338.5" y="-1898.3" font-family="Times,serif" font-size="14.00">evalCondition(condition)</text>
<text text-anchor="start" x="338.5" y="-1883.3" font-family="Times,serif" font-size="14.00">get()</text>
<text text-anchor="start" x="338.5" y="-1868.3" font-family="Times,serif" font-size="14.00">getAttributeValue(attrName, defaultValue)</text>
<text text-anchor="start" x="338.5" y="-1853.3" font-family="Times,serif" font-size="14.00">getAttributes()</text>
<text text-anchor="start" x="338.5" y="-1838.3" font-family="Times,serif" font-size="14.00">getAttributesToStore()</text>
<text text-anchor="start" x="338.5" y="-1823.3" font-family="Times,serif" font-size="14.00">getClass()</text>
<text text-anchor="start" x="338.5" y="-1808.3" font-family="Times,serif" font-size="14.00">getClassName()</text>
<text text-anchor="start" x="338.5" y="-1793.3" font-family="Times,serif" font-size="14.00">getDoc(cls)</text>
<text text-anchor="start" x="338.5" y="-1778.3" font-family="Times,serif" font-size="14.00">getLastName()</text>
<text text-anchor="start" x="338.5" y="-1763.3" font-family="Times,serif" font-size="14.00">getMappedDict()</text>
<text text-anchor="start" x="338.5" y="-1748.3" font-family="Times,serif" font-size="14.00">getName()</text>
<text text-anchor="start" x="338.5" y="-1733.3" font-family="Times,serif" font-size="14.00">getNameId()</text>
<text text-anchor="start" x="338.5" y="-1718.3" font-family="Times,serif" font-size="14.00">getNestedValue(key)</text>
<text text-anchor="start" x="338.5" y="-1703.3" font-family="Times,serif" font-size="14.00">getObjComment()</text>
<text text-anchor="start" x="338.5" y="-1688.3" font-family="Times,serif" font-size="14.00">getObjCreation()</text>
<text text-anchor="start" x="338.5" y="-1673.3" font-family="Times,serif" font-size="14.00">getObjCreationAsDate()</text>
<text text-anchor="start" x="338.5" y="-1658.3" font-family="Times,serif" font-size="14.00">getObjDict(includeClass, includeBasic)</text>
<text text-anchor="start" x="338.5" y="-1643.3" font-family="Times,serif" font-size="14.00">getObjId()</text>
<text text-anchor="start" x="338.5" y="-1628.3" font-family="Times,serif" font-size="14.00">getObjLabel()</text>
<text text-anchor="start" x="338.5" y="-1613.3" font-family="Times,serif" font-size="14.00">getObjName()</text>
<text text-anchor="start" x="338.5" y="-1598.3" font-family="Times,serif" font-size="14.00">getObjParentId()</text>
<text text-anchor="start" x="338.5" y="-1583.3" font-family="Times,serif" font-size="14.00">getObjValue()</text>
<text text-anchor="start" x="338.5" y="-1568.3" font-family="Times,serif" font-size="14.00">getStore()</text>
<text text-anchor="start" x="338.5" y="-1553.3" font-family="Times,serif" font-size="14.00">getValuesFromDict(objDict)</text>
<text text-anchor="start" x="338.5" y="-1538.3" font-family="Times,serif" font-size="14.00">getValuesFromMappedDict(mappedDict)</text>
<text text-anchor="start" x="338.5" y="-1523.3" font-family="Times,serif" font-size="14.00">hasAttribute(attrName)</text>
<text text-anchor="start" x="338.5" y="-1508.3" font-family="Times,serif" font-size="14.00">hasAttributeExt(attrName)</text>
<text text-anchor="start" x="338.5" y="-1493.3" font-family="Times,serif" font-size="14.00">hasObjId()</text>
<text text-anchor="start" x="338.5" y="-1478.3" font-family="Times,serif" font-size="14.00">hasObjParentId()</text>
<text text-anchor="start" x="338.5" y="-1463.3" font-family="Times,serif" font-size="14.00">hasValue()</text>
<text text-anchor="start" x="338.5" y="-1448.3" font-family="Times,serif" font-size="14.00">isEnabled()</text>
<text text-anchor="start" x="338.5" y="-1433.3" font-family="Times,serif" font-size="14.00">isPointer()</text>
<text text-anchor="start" x="338.5" y="-1418.3" font-family="Times,serif" font-size="14.00">printAll(name, level)</text>
<text text-anchor="start" x="338.5" y="-1403.3" font-family="Times,serif" font-size="14.00">printObjDict(includeClasses)</text>
<text text-anchor="start" x="338.5" y="-1388.3" font-family="Times,serif" font-size="14.00">set(value)</text>
<text text-anchor="start" x="338.5" y="-1373.3" font-family="Times,serif" font-size="14.00">setAttributeValue(attrName, value, ignoreMissing)</text>
<text text-anchor="start" x="338.5" y="-1358.3" font-family="Times,serif" font-size="14.00">setAttributesFromDict(attrDict, setBasic, ignoreMissing)</text>
<text text-anchor="start" x="338.5" y="-1343.3" font-family="Times,serif" font-size="14.00">setEnabled(enabled)</text>
<text text-anchor="start" x="338.5" y="-1328.3" font-family="Times,serif" font-size="14.00">setName(name)</text>
<text text-anchor="start" x="338.5" y="-1313.3" font-family="Times,serif" font-size="14.00">setObjComment(comment)</text>
<text text-anchor="start" x="338.5" y="-1298.3" font-family="Times,serif" font-size="14.00">setObjCreation(creation)</text>
<text text-anchor="start" x="338.5" y="-1283.3" font-family="Times,serif" font-size="14.00">setObjId(newId)</text>
<text text-anchor="start" x="338.5" y="-1268.3" font-family="Times,serif" font-size="14.00">setObjLabel(label)</text>
<text text-anchor="start" x="338.5" y="-1253.3" font-family="Times,serif" font-size="14.00">setStore(value)</text>
<text text-anchor="start" x="338.5" y="-1238.3" font-family="Times,serif" font-size="14.00">strId()</text>
<text text-anchor="start" x="338.5" y="-1223.3" font-family="Times,serif" font-size="14.00">trace(callback)</text>
</g>
<!-- 5&#45;&gt;6 -->
<g id="edge5" class="edge">
<title>5&#45;&gt;6</title>
<path fill="none" stroke="black" d="M189.69,-1177.54C222.91,-1226.93 273.8,-1302.6 324.56,-1378.08"/>
<polygon fill="none" stroke="black" points="321.95,-1380.46 330.43,-1386.81 327.76,-1376.56 321.95,-1380.46"/>
</g>
<!-- 7 -->
<g id="node8" class="node">
<title>7</title>
<polygon fill="none" stroke="black" points="311,-1078 311,-1163 469,-1163 469,-1078 311,-1078"/>
<text text-anchor="middle" x="390" y="-1147.8" font-family="Times,serif" font-size="14.00">OrderedObject</text>
<polyline fill="none" stroke="black" points="311,-1140 469,-1140 "/>
<polyline fill="none" stroke="black" points="311,-1116 469,-1116 "/>
<text text-anchor="start" x="319" y="-1100.8" font-family="Times,serif" font-size="14.00">deleteAttribute(attrName)</text>
<text text-anchor="start" x="319" y="-1085.8" font-family="Times,serif" font-size="14.00">getAttributes()</text>
</g>
<!-- 7&#45;&gt;6 -->
<g id="edge6" class="edge">
<title>7&#45;&gt;6</title>
<path fill="none" stroke="black" d="M398.59,-1163.24C401.07,-1175.25 403.99,-1189.46 407.25,-1205.3"/>
<polygon fill="none" stroke="black" points="403.88,-1206.28 409.33,-1215.37 410.74,-1204.87 403.88,-1206.28"/>
</g>
<!-- 8 -->
<g id="node9" class="node">
<title>8</title>
<polygon fill="none" stroke="black" points="615,-780.5 615,-1044.5 785,-1044.5 785,-780.5 615,-780.5"/>
<text text-anchor="middle" x="700" y="-1029.3" font-family="Times,serif" font-size="14.00">Pointer</text>
<polyline fill="none" stroke="black" points="615,-1021.5 785,-1021.5 "/>
<text text-anchor="start" x="623" y="-1006.3" font-family="Times,serif" font-size="14.00">EXTENDED_ATTR : str</text>
<text text-anchor="start" x="623" y="-991.3" font-family="Times,serif" font-size="14.00">EXTENDED_ITEMID : str</text>
<polyline fill="none" stroke="black" points="615,-983.5 785,-983.5 "/>
<text text-anchor="start" x="623" y="-968.3" font-family="Times,serif" font-size="14.00">addExtended(attribute)</text>
<text text-anchor="start" x="623" y="-953.3" font-family="Times,serif" font-size="14.00">get(default)</text>
<text text-anchor="start" x="623" y="-938.3" font-family="Times,serif" font-size="14.00">getAttributes()</text>
<text text-anchor="start" x="623" y="-923.3" font-family="Times,serif" font-size="14.00">getExtended()</text>
<text text-anchor="start" x="623" y="-908.3" font-family="Times,serif" font-size="14.00">getExtendedParts()</text>
<text text-anchor="start" x="623" y="-893.3" font-family="Times,serif" font-size="14.00">getUniqueId()</text>
<text text-anchor="start" x="623" y="-878.3" font-family="Times,serif" font-size="14.00">hasExtended()</text>
<text text-anchor="start" x="623" y="-863.3" font-family="Times,serif" font-size="14.00">hasValue()</text>
<text text-anchor="start" x="623" y="-848.3" font-family="Times,serif" font-size="14.00">pointsNone()</text>
<text text-anchor="start" x="623" y="-833.3" font-family="Times,serif" font-size="14.00">removeExtended()</text>
<text text-anchor="start" x="623" y="-818.3" font-family="Times,serif" font-size="14.00">set(other)</text>
<text text-anchor="start" x="623" y="-803.3" font-family="Times,serif" font-size="14.00">setExtended(attribute)</text>
<text text-anchor="start" x="623" y="-788.3" font-family="Times,serif" font-size="14.00">setExtendedParts(parts)</text>
</g>
<!-- 8&#45;&gt;6 -->
<g id="edge7" class="edge">
<title>8&#45;&gt;6</title>
<path fill="none" stroke="black" d="M662.52,-1044.77C649.14,-1091.64 633.24,-1147.31 616.65,-1205.42"/>
<polygon fill="none" stroke="black" points="613.25,-1204.57 613.87,-1215.15 619.99,-1206.5 613.25,-1204.57"/>
</g>
<!-- 9 -->
<g id="node10" class="node">
<title>9</title>
<polygon fill="none" stroke="black" points="0,-429.5 0,-499.5 94,-499.5 94,-429.5 0,-429.5"/>
<text text-anchor="middle" x="47" y="-484.3" font-family="Times,serif" font-size="14.00">PointerList</text>
<polyline fill="none" stroke="black" points="0,-476.5 94,-476.5 "/>
<polyline fill="none" stroke="black" points="0,-452.5 94,-452.5 "/>
<text text-anchor="start" x="8" y="-437.3" font-family="Times,serif" font-size="14.00">append(value)</text>
</g>
<!-- 9&#45;&gt;5 -->
<g id="edge8" class="edge">
<title>9&#45;&gt;5</title>
<path fill="none" stroke="black" d="M52.5,-499.74C69.15,-603.46 119.24,-915.47 141.33,-1053.07"/>
<polygon fill="none" stroke="black" points="137.9,-1053.75 142.94,-1063.07 144.81,-1052.64 137.9,-1053.75"/>
</g>
<!-- 10&#45;&gt;6 -->
<g id="edge9" class="edge">
<title>10&#45;&gt;6</title>
<path fill="none" stroke="black" d="M554.74,-559.93C546.94,-699.83 531.83,-970.9 518.75,-1205.39"/>
<polygon fill="none" stroke="black" points="515.25,-1205.29 518.19,-1215.47 522.24,-1205.68 515.25,-1205.29"/>
</g>
<!-- 11&#45;&gt;7 -->
<g id="edge10" class="edge">
<title>11&#45;&gt;7</title>
<path fill="none" stroke="black" d="M324.38,-761.88C345.85,-878.9 368.29,-1001.19 380.57,-1068.11"/>
<polygon fill="none" stroke="black" points="377.13,-1068.76 382.38,-1077.97 384.02,-1067.5 377.13,-1068.76"/>
</g>
<!-- 12 -->
<g id="node13" class="node">
<title>12</title>
<polygon fill="none" stroke="black" points="780.5,-1 780.5,-115 1017.5,-115 1017.5,-1 780.5,-1"/>
<text text-anchor="middle" x="899" y="-99.8" font-family="Times,serif" font-size="14.00">String</text>
<polyline fill="none" stroke="black" points="780.5,-92 1017.5,-92 "/>
<text text-anchor="start" x="788.5" y="-76.8" font-family="Times,serif" font-size="14.00">DATETIME_FORMAT : str</text>
<text text-anchor="start" x="788.5" y="-61.8" font-family="Times,serif" font-size="14.00">FS : str</text>
<polyline fill="none" stroke="black" points="780.5,-54 1017.5,-54 "/>
<text text-anchor="start" x="788.5" y="-38.8" font-family="Times,serif" font-size="14.00">datetime(formatStr, fs)</text>
<text text-anchor="start" x="788.5" y="-23.8" font-family="Times,serif" font-size="14.00">empty()</text>
<text text-anchor="start" x="788.5" y="-8.8" font-family="Times,serif" font-size="14.00">getDatetime(cls, strValue, formatStr, fs)</text>
</g>
<!-- 12&#45;&gt;8 -->
<g id="edge15" class="edge">
<title>12&#45;&gt;8</title>
<path fill="none" stroke="black" d="M885.87,-115.26C855.19,-246.69 778.05,-577.15 733.38,-768.5"/>
<polygon fill="black" stroke="black" points="733.35,-768.65 735.88,-775.4 730.62,-780.33 728.09,-773.58 733.35,-768.65"/>
<text text-anchor="middle" x="908" y="-137.8" font-family="Times,serif" font-size="14.00" fill="green">_extended</text>
</g>
<!-- 12&#45;&gt;10 -->
<g id="edge11" class="edge">
<title>12&#45;&gt;10</title>
<path fill="none" stroke="black" d="M845.04,-115.09C839.22,-121.41 833.44,-127.8 828,-134 762.67,-208.42 692.14,-295.43 639.83,-361.35"/>
<polygon fill="none" stroke="black" points="637.01,-359.27 633.55,-369.28 642.5,-363.62 637.01,-359.27"/>
</g>
</g>
</svg>
