<?xml version="1.0" encoding="UTF-8" standalone="no"?>
<!DOCTYPE svg PUBLIC "-//W3C//DTD SVG 1.1//EN"
 "http://www.w3.org/Graphics/SVG/1.1/DTD/svg11.dtd">
<!-- Generated by graphviz version 2.36.0 (20140111.2315)
 -->
<!-- Title: classes_data Pages: 1 -->
<svg width="1806pt" height="746pt"
 viewBox="0.00 0.00 1806.00 746.00" xmlns="http://www.w3.org/2000/svg" xmlns:xlink="http://www.w3.org/1999/xlink">
<g id="graph0" class="graph" transform="scale(1 1) rotate(0) translate(4 742)">
<title>classes_data</title>
<polygon fill="white" stroke="none" points="-4,4 -4,-742 1802,-742 1802,4 -4,4"/>
<!-- 0 -->
<g id="node1" class="node"><title>0</title>
<polygon fill="none" stroke="black" points="219,-293 219,-329 299,-329 299,-293 219,-293"/>
<text text-anchor="middle" x="259" y="-307.3" font-family="Times,serif" font-size="14.00">Acquisition</text>
</g>
<!-- 11 -->
<g id="node12" class="node"><title>11</title>
<polygon fill="none" stroke="black" points="979,-549 979,-585 1053,-585 1053,-549 979,-549"/>
<text text-anchor="middle" x="1016" y="-563.3" font-family="Times,serif" font-size="14.00">EMObject</text>
</g>
<!-- 0&#45;&gt;11 -->
<g id="edge1" class="edge"><title>0&#45;&gt;11</title>
<path fill="none" stroke="black" d="M279.085,-329.214C330.927,-373.273 469.012,-488.196 524,-510 604.24,-541.817 861.334,-558.176 968.452,-563.751"/>
<polygon fill="none" stroke="black" points="968.476,-567.256 978.642,-564.272 968.833,-560.265 968.476,-567.256"/>
</g>
<!-- 40 -->
<g id="node41" class="node"><title>40</title>
<polygon fill="none" stroke="black" points="486,-383 486,-419 574,-419 574,-383 486,-383"/>
<text text-anchor="middle" x="530" y="-397.3" font-family="Times,serif" font-size="14.00">SetOfImages</text>
</g>
<!-- 0&#45;&gt;40 -->
<g id="edge53" class="edge"><title>0&#45;&gt;40</title>
<path fill="none" stroke="black" d="M299.108,-327.961C326.924,-338.767 364.946,-353.02 399,-364 423.373,-371.859 450.636,-379.527 473.953,-385.753"/>
<polygon fill="black" stroke="black" points="474.149,-385.804 480.971,-383.47 485.75,-388.87 478.927,-391.204 474.149,-385.804"/>
<text text-anchor="middle" x="432.5" y="-352.3" font-family="Times,serif" font-size="14.00" fill="green">_acquisition</text>
</g>
<!-- 1 -->
<g id="node2" class="node"><title>1</title>
<polygon fill="none" stroke="black" points="101.5,-91 101.5,-127 156.5,-127 156.5,-91 101.5,-91"/>
<text text-anchor="middle" x="129" y="-105.3" font-family="Times,serif" font-size="14.00">Angles</text>
</g>
<!-- 1&#45;&gt;11 -->
<g id="edge2" class="edge"><title>1&#45;&gt;11</title>
<path fill="none" stroke="black" d="M101.326,-119.444C63.4218,-134.344 0,-167.169 0,-220 0,-220 0,-220 0,-492 0,-541.219 768.467,-560.798 968.741,-565.065"/>
<polygon fill="none" stroke="black" points="968.867,-568.568 978.938,-565.28 969.014,-561.57 968.867,-568.568"/>
</g>
<!-- 30 -->
<g id="node31" class="node"><title>30</title>
<polygon fill="none" stroke="black" points="240,-203 240,-239 326,-239 326,-203 240,-203"/>
<text text-anchor="middle" x="283" y="-217.3" font-family="Times,serif" font-size="14.00">SetOfAngles</text>
</g>
<!-- 1&#45;&gt;30 -->
<g id="edge54" class="edge"><title>1&#45;&gt;30</title>
<path fill="none" stroke="black" d="M156.733,-113.34C180.942,-117.477 215.879,-126.534 240,-146 244.2,-149.39 257.484,-172.768 268.187,-192.354"/>
<polygon fill="black" stroke="black" points="268.229,-192.431 274.605,-195.799 273.948,-202.981 267.572,-199.612 268.229,-192.431"/>
<text text-anchor="middle" x="301.5" y="-161.3" font-family="Times,serif" font-size="14.00" fill="green">ITEM_TYPE</text>
</g>
<!-- 2 -->
<g id="node3" class="node"><title>2</title>
<polygon fill="none" stroke="black" points="28.5,-293 28.5,-329 105.5,-329 105.5,-293 28.5,-293"/>
<text text-anchor="middle" x="67" y="-307.3" font-family="Times,serif" font-size="14.00">CTFModel</text>
</g>
<!-- 2&#45;&gt;11 -->
<g id="edge3" class="edge"><title>2&#45;&gt;11</title>
<path fill="none" stroke="black" d="M67.7148,-329.207C69.3085,-351.507 74.4473,-390.966 91,-420 119.966,-470.807 133.649,-486.04 187,-510 258.302,-542.022 803.103,-559.963 968.522,-564.712"/>
<polygon fill="none" stroke="black" points="968.765,-568.22 978.86,-565.006 968.963,-561.223 968.765,-568.22"/>
</g>
<!-- 32 -->
<g id="node33" class="node"><title>32</title>
<polygon fill="none" stroke="black" points="118.5,-383 118.5,-419 191.5,-419 191.5,-383 118.5,-383"/>
<text text-anchor="middle" x="155" y="-397.3" font-family="Times,serif" font-size="14.00">SetOfCTF</text>
</g>
<!-- 2&#45;&gt;32 -->
<g id="edge55" class="edge"><title>2&#45;&gt;32</title>
<path fill="none" stroke="black" d="M84.386,-329.386C97.2449,-342.245 114.962,-359.962 129.432,-374.432"/>
<polygon fill="black" stroke="black" points="129.464,-374.464 136.535,-375.878 137.95,-382.95 130.878,-381.535 129.464,-374.464"/>
<text text-anchor="middle" x="156.5" y="-352.3" font-family="Times,serif" font-size="14.00" fill="green">ITEM_TYPE</text>
</g>
<!-- 3 -->
<g id="node4" class="node"><title>3</title>
<polygon fill="none" stroke="black" points="1268,-203 1268,-239 1330,-239 1330,-203 1268,-203"/>
<text text-anchor="middle" x="1299" y="-217.3" font-family="Times,serif" font-size="14.00">Class2D</text>
</g>
<!-- 34 -->
<g id="node35" class="node"><title>34</title>
<polygon fill="none" stroke="black" points="863.5,-293 863.5,-329 968.5,-329 968.5,-293 863.5,-293"/>
<text text-anchor="middle" x="916" y="-307.3" font-family="Times,serif" font-size="14.00">SetOfClasses2D</text>
</g>
<!-- 3&#45;&gt;34 -->
<g id="edge56" class="edge"><title>3&#45;&gt;34</title>
<path fill="none" stroke="black" d="M1267.86,-236.121C1250.68,-244.034 1231.21,-253.243 1223,-258 1212.23,-264.242 1211.72,-269.796 1200,-274 1110.37,-306.145 1077.85,-276.55 980.471,-291.906"/>
<polygon fill="black" stroke="black" points="980.419,-291.915 975.183,-296.874 968.592,-293.949 973.828,-288.99 980.419,-291.915"/>
<text text-anchor="middle" x="1260.5" y="-262.3" font-family="Times,serif" font-size="14.00" fill="green">ITEM_TYPE</text>
</g>
<!-- 46 -->
<g id="node47" class="node"><title>46</title>
<polygon fill="none" stroke="black" points="750.5,-293 750.5,-329 845.5,-329 845.5,-293 750.5,-293"/>
<text text-anchor="middle" x="798" y="-307.3" font-family="Times,serif" font-size="14.00">SetOfParticles</text>
</g>
<!-- 3&#45;&gt;46 -->
<g id="edge4" class="edge"><title>3&#45;&gt;46</title>
<path fill="none" stroke="black" d="M1267.79,-236.076C1264.5,-237.446 1261.2,-238.779 1258,-240 1233.97,-249.181 1226.51,-247.566 1203,-258 1189.9,-263.814 1188.74,-269.935 1175,-274 1041.05,-313.618 996.492,-268.064 855.62,-292.004"/>
<polygon fill="none" stroke="black" points="854.983,-288.562 845.755,-293.766 856.214,-295.453 854.983,-288.562"/>
</g>
<!-- 4 -->
<g id="node5" class="node"><title>4</title>
<polygon fill="none" stroke="black" points="615,-203 615,-239 677,-239 677,-203 615,-203"/>
<text text-anchor="middle" x="646" y="-217.3" font-family="Times,serif" font-size="14.00">Class3D</text>
</g>
<!-- 35 -->
<g id="node36" class="node"><title>35</title>
<polygon fill="none" stroke="black" points="627.5,-293 627.5,-329 732.5,-329 732.5,-293 627.5,-293"/>
<text text-anchor="middle" x="680" y="-307.3" font-family="Times,serif" font-size="14.00">SetOfClasses3D</text>
</g>
<!-- 4&#45;&gt;35 -->
<g id="edge57" class="edge"><title>4&#45;&gt;35</title>
<path fill="none" stroke="black" d="M631.372,-239.299C624.49,-249.63 618.981,-262.866 625,-274 627.191,-278.053 630.059,-281.723 633.336,-285.031"/>
<polygon fill="black" stroke="black" points="633.587,-285.24 640.754,-286.03 642.782,-292.951 635.614,-292.161 633.587,-285.24"/>
<text text-anchor="middle" x="662.5" y="-262.3" font-family="Times,serif" font-size="14.00" fill="green">ITEM_TYPE</text>
</g>
<!-- 4&#45;&gt;46 -->
<g id="edge5" class="edge"><title>4&#45;&gt;46</title>
<path fill="none" stroke="black" d="M675.668,-239.176C699.626,-253.047 733.517,-272.668 759.554,-287.742"/>
<polygon fill="none" stroke="black" points="757.999,-290.886 768.407,-292.867 761.506,-284.828 757.999,-290.886"/>
</g>
<!-- 5 -->
<g id="node6" class="node"><title>5</title>
<polygon fill="none" stroke="black" points="774,-91 774,-127 840,-127 840,-91 774,-91"/>
<text text-anchor="middle" x="807" y="-105.3" font-family="Times,serif" font-size="14.00">ClassVol</text>
</g>
<!-- 36 -->
<g id="node37" class="node"><title>36</title>
<polygon fill="none" stroke="black" points="797.5,-203 797.5,-239 906.5,-239 906.5,-203 797.5,-203"/>
<text text-anchor="middle" x="852" y="-217.3" font-family="Times,serif" font-size="14.00">SetOfClassesVol</text>
</g>
<!-- 5&#45;&gt;36 -->
<g id="edge58" class="edge"><title>5&#45;&gt;36</title>
<path fill="none" stroke="black" d="M814.031,-127.188C821.098,-144.462 832.111,-171.383 840.46,-191.792"/>
<polygon fill="black" stroke="black" points="840.474,-191.827 846.448,-195.865 845.018,-202.933 839.044,-198.894 840.474,-191.827"/>
<text text-anchor="middle" x="874.5" y="-161.3" font-family="Times,serif" font-size="14.00" fill="green">ITEM_TYPE</text>
</g>
<!-- 47 -->
<g id="node48" class="node"><title>47</title>
<polygon fill="none" stroke="black" points="499,-203 499,-239 597,-239 597,-203 499,-203"/>
<text text-anchor="middle" x="548" y="-217.3" font-family="Times,serif" font-size="14.00">SetOfVolumes</text>
</g>
<!-- 5&#45;&gt;47 -->
<g id="edge6" class="edge"><title>5&#45;&gt;47</title>
<path fill="none" stroke="black" d="M796.363,-127.314C784.632,-144.762 764.057,-170.921 739,-184 688.806,-210.2 666.544,-191.27 607.084,-202.11"/>
<polygon fill="none" stroke="black" points="606.314,-198.694 597.211,-204.116 607.708,-205.554 606.314,-198.694"/>
</g>
<!-- 6 -->
<g id="node7" class="node"><title>6</title>
<polygon fill="none" stroke="black" points="123.5,-293 123.5,-329 200.5,-329 200.5,-293 123.5,-293"/>
<text text-anchor="middle" x="162" y="-307.3" font-family="Times,serif" font-size="14.00">Coordinate</text>
</g>
<!-- 6&#45;&gt;11 -->
<g id="edge7" class="edge"><title>6&#45;&gt;11</title>
<path fill="none" stroke="black" d="M123.39,-328.294C115.634,-333.424 108.494,-339.922 104,-348 95.4317,-363.403 86.1906,-393.105 109,-420 221.286,-552.398 798.467,-565.198 968.692,-566.065"/>
<polygon fill="none" stroke="black" points="968.827,-569.565 978.841,-566.104 968.855,-562.565 968.827,-569.565"/>
</g>
<!-- 37 -->
<g id="node38" class="node"><title>37</title>
<polygon fill="none" stroke="black" points="209.5,-383 209.5,-419 322.5,-419 322.5,-383 209.5,-383"/>
<text text-anchor="middle" x="266" y="-397.3" font-family="Times,serif" font-size="14.00">SetOfCoordinates</text>
</g>
<!-- 6&#45;&gt;37 -->
<g id="edge59" class="edge"><title>6&#45;&gt;37</title>
<path fill="none" stroke="black" d="M181.336,-329.002C193.035,-339.228 208.293,-352.457 222,-364 226.277,-367.602 230.816,-371.373 235.292,-375.062"/>
<polygon fill="black" stroke="black" points="235.582,-375.299 242.758,-376.01 244.862,-382.908 237.686,-382.197 235.582,-375.299"/>
<text text-anchor="middle" x="259.5" y="-352.3" font-family="Times,serif" font-size="14.00" fill="green">ITEM_TYPE</text>
</g>
<!-- 7 -->
<g id="node8" class="node"><title>7</title>
<polygon fill="none" stroke="black" points="1406.5,-293 1406.5,-329 1529.5,-329 1529.5,-293 1406.5,-293"/>
<text text-anchor="middle" x="1468" y="-307.3" font-family="Times,serif" font-size="14.00">CoordinatesTiltPair</text>
</g>
<!-- 49 -->
<g id="node50" class="node"><title>49</title>
<polygon fill="none" stroke="black" points="1359.5,-383 1359.5,-419 1434.5,-419 1434.5,-383 1359.5,-383"/>
<text text-anchor="middle" x="1397" y="-397.3" font-family="Times,serif" font-size="14.00">TiltPairSet</text>
</g>
<!-- 7&#45;&gt;49 -->
<g id="edge8" class="edge"><title>7&#45;&gt;49</title>
<path fill="none" stroke="black" d="M1453.97,-329.386C1443.5,-342.366 1429.03,-360.296 1417.3,-374.84"/>
<polygon fill="none" stroke="black" points="1414.31,-372.969 1410.76,-382.95 1419.76,-377.365 1414.31,-372.969"/>
</g>
<!-- 8 -->
<g id="node9" class="node"><title>8</title>
<polygon fill="none" stroke="black" points="1181.5,-383 1181.5,-419 1240.5,-419 1240.5,-383 1181.5,-383"/>
<text text-anchor="middle" x="1211" y="-397.3" font-family="Times,serif" font-size="14.00">CsvList</text>
</g>
<!-- 20 -->
<g id="node21" class="node"><title>20</title>
<polygon fill="none" stroke="black" points="1044.5,-473 1044.5,-509 1155.5,-509 1155.5,-473 1044.5,-473"/>
<text text-anchor="middle" x="1100" y="-487.3" font-family="Times,serif" font-size="14.00">MovieAlignment</text>
</g>
<!-- 8&#45;&gt;20 -->
<g id="edge60" class="edge"><title>8&#45;&gt;20</title>
<path fill="none" stroke="black" d="M1189.33,-419.176C1172.76,-432.32 1149.66,-450.627 1131.11,-465.336"/>
<polygon fill="black" stroke="black" points="1131.01,-465.412 1128.8,-472.274 1121.61,-472.867 1123.83,-466.005 1131.01,-465.412"/>
<text text-anchor="middle" x="1184.5" y="-442.3" font-family="Times,serif" font-size="14.00" fill="green">_shifts</text>
</g>
<!-- 28 -->
<g id="node29" class="node"><title>28</title>
<polygon fill="none" stroke="black" points="1359,-473 1359,-509 1413,-509 1413,-473 1359,-473"/>
<text text-anchor="middle" x="1386" y="-487.3" font-family="Times,serif" font-size="14.00">Scalar</text>
</g>
<!-- 8&#45;&gt;28 -->
<g id="edge9" class="edge"><title>8&#45;&gt;28</title>
<path fill="none" stroke="black" d="M1240.69,-416.928C1270.77,-432.058 1317.37,-455.489 1349.65,-471.722"/>
<polygon fill="none" stroke="black" points="1348.26,-474.938 1358.76,-476.304 1351.4,-468.684 1348.26,-474.938"/>
</g>
<!-- 29 -->
<g id="node30" class="node"><title>29</title>
<polygon fill="none" stroke="black" points="1132,-549 1132,-585 1186,-585 1186,-549 1132,-549"/>
<text text-anchor="middle" x="1159" y="-563.3" font-family="Times,serif" font-size="14.00">Set</text>
</g>
<!-- 8&#45;&gt;29 -->
<g id="edge61" class="edge"><title>8&#45;&gt;29</title>
<path fill="none" stroke="black" d="M1210.21,-419.077C1209.45,-429.329 1207.95,-442.56 1205,-454 1197.39,-483.505 1183.65,-515.504 1173.16,-537.714"/>
<polygon fill="black" stroke="black" points="1173.09,-537.862 1174.09,-545.004 1167.88,-548.669 1166.88,-541.527 1173.09,-537.862"/>
<text text-anchor="middle" x="1236.5" y="-487.3" font-family="Times,serif" font-size="14.00" fill="green">_mapperPath</text>
</g>
<!-- 9 -->
<g id="node10" class="node"><title>9</title>
<polygon fill="none" stroke="black" points="1081,-293 1081,-329 1177,-329 1177,-293 1081,-293"/>
<text text-anchor="middle" x="1129" y="-307.3" font-family="Times,serif" font-size="14.00">DefocusGroup</text>
</g>
<!-- 9&#45;&gt;11 -->
<g id="edge10" class="edge"><title>9&#45;&gt;11</title>
<path fill="none" stroke="black" d="M1135.66,-329.387C1143.2,-352.237 1152.22,-392.671 1134,-420 1106.43,-461.35 1064.81,-432.234 1035,-472 1020.61,-491.197 1016.4,-518.566 1015.47,-538.825"/>
<polygon fill="none" stroke="black" points="1011.97,-538.895 1015.24,-548.97 1018.96,-539.05 1011.97,-538.895"/>
</g>
<!-- 38 -->
<g id="node39" class="node"><title>38</title>
<polygon fill="none" stroke="black" points="699,-383 699,-419 827,-419 827,-383 699,-383"/>
<text text-anchor="middle" x="763" y="-397.3" font-family="Times,serif" font-size="14.00">SetOfDefocusGroup</text>
</g>
<!-- 9&#45;&gt;38 -->
<g id="edge62" class="edge"><title>9&#45;&gt;38</title>
<path fill="none" stroke="black" d="M1080.99,-327.953C1077.96,-328.712 1074.95,-329.404 1072,-330 987.558,-347.068 962.316,-326.085 879,-348 853.191,-354.789 825.882,-366.766 804.249,-377.516"/>
<polygon fill="black" stroke="black" points="804.186,-377.548 800.653,-383.834 793.492,-382.991 797.024,-376.705 804.186,-377.548"/>
<text text-anchor="middle" x="916.5" y="-352.3" font-family="Times,serif" font-size="14.00" fill="green">ITEM_TYPE</text>
</g>
<!-- 39 -->
<g id="node40" class="node"><title>39</title>
<polygon fill="none" stroke="black" points="845.5,-383 845.5,-419 978.5,-419 978.5,-383 845.5,-383"/>
<text text-anchor="middle" x="912" y="-397.3" font-family="Times,serif" font-size="14.00">SetOfDefocusGroups</text>
</g>
<!-- 9&#45;&gt;39 -->
<g id="edge63" class="edge"><title>9&#45;&gt;39</title>
<path fill="none" stroke="black" d="M1080.91,-327.606C1077.9,-328.451 1074.92,-329.257 1072,-330 1031.63,-340.29 1017.99,-330.896 980,-348 975.679,-349.945 958.788,-362.857 942.922,-375.327"/>
<polygon fill="black" stroke="black" points="942.714,-375.492 940.486,-382.35 933.298,-382.932 935.526,-376.073 942.714,-375.492"/>
<text text-anchor="middle" x="1010.5" y="-352.3" font-family="Times,serif" font-size="14.00" fill="green">_lastGroup</text>
</g>
<!-- 10 -->
<g id="node11" class="node"><title>10</title>
<polygon fill="none" stroke="black" points="1525.5,-473 1525.5,-509 1584.5,-509 1584.5,-473 1525.5,-473"/>
<text text-anchor="middle" x="1555" y="-487.3" font-family="Times,serif" font-size="14.00">EMFile</text>
</g>
<!-- 10&#45;&gt;11 -->
<g id="edge11" class="edge"><title>10&#45;&gt;11</title>
<path fill="none" stroke="black" d="M1525.23,-506.591C1521.83,-507.895 1518.38,-509.071 1515,-510 1346.22,-556.405 1296.68,-526.227 1123,-548 1103.29,-550.471 1081.66,-553.962 1063.03,-557.212"/>
<polygon fill="none" stroke="black" points="1062.26,-553.793 1053.03,-558.985 1063.48,-560.686 1062.26,-553.793"/>
</g>
<!-- 24 -->
<g id="node25" class="node"><title>24</title>
<polygon fill="none" stroke="black" points="1110.5,-625 1110.5,-661 1207.5,-661 1207.5,-625 1110.5,-625"/>
<text text-anchor="middle" x="1159" y="-639.3" font-family="Times,serif" font-size="14.00">OrderedObject</text>
</g>
<!-- 11&#45;&gt;24 -->
<g id="edge12" class="edge"><title>11&#45;&gt;24</title>
<path fill="none" stroke="black" d="M1049.17,-585.163C1069.38,-595.624 1095.4,-609.087 1117.04,-620.285"/>
<polygon fill="none" stroke="black" points="1115.52,-623.442 1126.01,-624.93 1118.74,-617.226 1115.52,-623.442"/>
</g>
<!-- 12 -->
<g id="node13" class="node"><title>12</title>
<polygon fill="none" stroke="black" points="671.5,-473 671.5,-509 726.5,-509 726.5,-473 671.5,-473"/>
<text text-anchor="middle" x="699" y="-487.3" font-family="Times,serif" font-size="14.00">EMSet</text>
</g>
<!-- 12&#45;&gt;11 -->
<g id="edge13" class="edge"><title>12&#45;&gt;11</title>
<path fill="none" stroke="black" d="M726.577,-498.438C780.808,-511.097 901.874,-539.359 968.969,-555.021"/>
<polygon fill="none" stroke="black" points="968.325,-558.465 978.859,-557.33 969.917,-551.648 968.325,-558.465"/>
</g>
<!-- 12&#45;&gt;29 -->
<g id="edge14" class="edge"><title>12&#45;&gt;29</title>
<path fill="none" stroke="black" d="M726.826,-495.998C787.696,-504.808 937.212,-526.801 1062,-548 1081.85,-551.373 1103.93,-555.444 1122,-558.862"/>
<polygon fill="none" stroke="black" points="1121.38,-562.306 1131.86,-560.736 1122.69,-555.429 1121.38,-562.306"/>
</g>
<!-- 13 -->
<g id="node14" class="node"><title>13</title>
<polygon fill="none" stroke="black" points="517,-293 517,-329 571,-329 571,-293 517,-293"/>
<text text-anchor="middle" x="544" y="-307.3" font-family="Times,serif" font-size="14.00">Image</text>
</g>
<!-- 13&#45;&gt;11 -->
<g id="edge15" class="edge"><title>13&#45;&gt;11</title>
<path fill="none" stroke="black" d="M520.128,-329.233C493.606,-350.57 456.989,-388.012 477,-420 525.493,-497.517 574.78,-482.557 662,-510 768.56,-543.528 899.765,-557.572 968.638,-562.97"/>
<polygon fill="none" stroke="black" points="968.505,-566.47 978.741,-563.734 969.033,-559.49 968.505,-566.47"/>
</g>
<!-- 13&#45;&gt;40 -->
<g id="edge64" class="edge"><title>13&#45;&gt;40</title>
<path fill="none" stroke="black" d="M522.902,-329.08C517.686,-334.519 512.795,-340.97 510,-348 506.927,-355.73 508.175,-364.135 511.189,-371.888"/>
<polygon fill="black" stroke="black" points="511.195,-371.9 517.458,-375.473 516.569,-382.629 510.306,-379.056 511.195,-371.9"/>
<text text-anchor="middle" x="547.5" y="-352.3" font-family="Times,serif" font-size="14.00" fill="green">ITEM_TYPE</text>
</g>
<!-- 14 -->
<g id="node15" class="node"><title>14</title>
<polygon fill="none" stroke="black" points="987,-293 987,-329 1063,-329 1063,-293 987,-293"/>
<text text-anchor="middle" x="1025" y="-307.3" font-family="Times,serif" font-size="14.00">ImageDim</text>
</g>
<!-- 14&#45;&gt;8 -->
<g id="edge16" class="edge"><title>14&#45;&gt;8</title>
<path fill="none" stroke="black" d="M986.975,-327.058C983.628,-328.139 980.271,-329.14 977,-330 925.453,-343.548 825.578,-325.088 862,-364 882.698,-386.113 1104.04,-377.538 1134,-382 1146.18,-383.815 1159.28,-386.568 1171.16,-389.38"/>
<polygon fill="none" stroke="black" points="1170.69,-392.867 1181.23,-391.843 1172.35,-386.067 1170.69,-392.867"/>
</g>
<!-- 14&#45;&gt;40 -->
<g id="edge65" class="edge"><title>14&#45;&gt;40</title>
<path fill="none" stroke="black" d="M986.759,-327.338C983.489,-328.344 980.207,-329.252 977,-330 898.704,-348.268 876.739,-337.717 797,-348 752.212,-353.776 644.559,-368.173 585.841,-381.353"/>
<polygon fill="black" stroke="black" points="585.77,-381.37 580.857,-386.648 574.095,-384.143 579.008,-378.865 585.77,-381.37"/>
<text text-anchor="middle" x="824" y="-352.3" font-family="Times,serif" font-size="14.00" fill="green">_firstDim</text>
</g>
<!-- 15 -->
<g id="node16" class="node"><title>15</title>
<polygon fill="none" stroke="black" points="1044,-91 1044,-127 1098,-127 1098,-91 1044,-91"/>
<text text-anchor="middle" x="1071" y="-105.3" font-family="Times,serif" font-size="14.00">Mask</text>
</g>
<!-- 25 -->
<g id="node26" class="node"><title>25</title>
<polygon fill="none" stroke="black" points="1042,-203 1042,-239 1100,-239 1100,-203 1042,-203"/>
<text text-anchor="middle" x="1071" y="-217.3" font-family="Times,serif" font-size="14.00">Particle</text>
</g>
<!-- 15&#45;&gt;25 -->
<g id="edge17" class="edge"><title>15&#45;&gt;25</title>
<path fill="none" stroke="black" d="M1071,-127.188C1071,-144.785 1071,-172.393 1071,-192.929"/>
<polygon fill="none" stroke="black" points="1067.5,-192.933 1071,-202.933 1074.5,-192.933 1067.5,-192.933"/>
</g>
<!-- 16 -->
<g id="node17" class="node"><title>16</title>
<polygon fill="none" stroke="black" points="1453,-383 1453,-419 1507,-419 1507,-383 1453,-383"/>
<text text-anchor="middle" x="1480" y="-397.3" font-family="Times,serif" font-size="14.00">Matrix</text>
</g>
<!-- 16&#45;&gt;28 -->
<g id="edge18" class="edge"><title>16&#45;&gt;28</title>
<path fill="none" stroke="black" d="M1461.43,-419.386C1447.17,-432.73 1427.33,-451.306 1411.58,-466.056"/>
<polygon fill="none" stroke="black" points="1409.12,-463.56 1404.21,-472.95 1413.91,-468.67 1409.12,-463.56"/>
</g>
<!-- 50 -->
<g id="node51" class="node"><title>50</title>
<polygon fill="none" stroke="black" points="1432,-473 1432,-509 1506,-509 1506,-473 1432,-473"/>
<text text-anchor="middle" x="1469" y="-487.3" font-family="Times,serif" font-size="14.00">Transform</text>
</g>
<!-- 16&#45;&gt;50 -->
<g id="edge66" class="edge"><title>16&#45;&gt;50</title>
<path fill="none" stroke="black" d="M1477.83,-419.386C1476.36,-431.153 1474.38,-446.988 1472.66,-460.681"/>
<polygon fill="black" stroke="black" points="1472.62,-461.042 1475.84,-467.492 1471.13,-472.95 1467.91,-466.5 1472.62,-461.042"/>
<text text-anchor="middle" x="1497.5" y="-442.3" font-family="Times,serif" font-size="14.00" fill="green">_matrix</text>
</g>
<!-- 17 -->
<g id="node18" class="node"><title>17</title>
<polygon fill="none" stroke="black" points="302.5,-91 302.5,-127 383.5,-127 383.5,-91 302.5,-91"/>
<text text-anchor="middle" x="343" y="-105.3" font-family="Times,serif" font-size="14.00">Micrograph</text>
</g>
<!-- 17&#45;&gt;13 -->
<g id="edge19" class="edge"><title>17&#45;&gt;13</title>
<path fill="none" stroke="black" d="M345.421,-127.276C348.352,-143.249 354.538,-167.011 367,-184 386.556,-210.66 462.336,-259.896 508.162,-288.285"/>
<polygon fill="none" stroke="black" points="506.553,-291.404 516.902,-293.671 510.226,-285.445 506.553,-291.404"/>
</g>
<!-- 41 -->
<g id="node42" class="node"><title>41</title>
<polygon fill="none" stroke="black" points="104,-203 104,-239 222,-239 222,-203 104,-203"/>
<text text-anchor="middle" x="163" y="-217.3" font-family="Times,serif" font-size="14.00">SetOfMicrographs</text>
</g>
<!-- 17&#45;&gt;41 -->
<g id="edge67" class="edge"><title>17&#45;&gt;41</title>
<path fill="none" stroke="black" d="M302.334,-112.202C254.255,-115.755 178.533,-124.659 161,-146 150.866,-158.335 151.037,-176.123 153.899,-191.167"/>
<polygon fill="black" stroke="black" points="153.936,-191.318 159.239,-196.204 156.769,-202.979 151.466,-198.093 153.936,-191.318"/>
<text text-anchor="middle" x="198.5" y="-161.3" font-family="Times,serif" font-size="14.00" fill="green">ITEM_TYPE</text>
</g>
<!-- 18 -->
<g id="node19" class="node"><title>18</title>
<polygon fill="none" stroke="black" points="1670,-293 1670,-329 1798,-329 1798,-293 1670,-293"/>
<text text-anchor="middle" x="1734" y="-307.3" font-family="Times,serif" font-size="14.00">MicrographsTiltPair</text>
</g>
<!-- 18&#45;&gt;49 -->
<g id="edge20" class="edge"><title>18&#45;&gt;49</title>
<path fill="none" stroke="black" d="M1669.91,-327.828C1666.9,-328.564 1663.92,-329.291 1661,-330 1615.45,-341.073 1504.43,-364.564 1444.44,-382.134"/>
<polygon fill="none" stroke="black" points="1443.12,-378.876 1434.56,-385.12 1445.14,-385.576 1443.12,-378.876"/>
</g>
<!-- 19 -->
<g id="node20" class="node"><title>19</title>
<polygon fill="none" stroke="black" points="360,-1 360,-37 414,-37 414,-1 360,-1"/>
<text text-anchor="middle" x="387" y="-15.3" font-family="Times,serif" font-size="14.00">Movie</text>
</g>
<!-- 19&#45;&gt;17 -->
<g id="edge21" class="edge"><title>19&#45;&gt;17</title>
<path fill="none" stroke="black" d="M378.307,-37.386C371.999,-50.0023 363.353,-67.2948 356.195,-81.6093"/>
<polygon fill="none" stroke="black" points="352.867,-80.44 351.525,-90.9496 359.128,-83.5706 352.867,-80.44"/>
</g>
<!-- 44 -->
<g id="node45" class="node"><title>44</title>
<polygon fill="none" stroke="black" points="367.5,-147 367.5,-183 456.5,-183 456.5,-147 367.5,-147"/>
<text text-anchor="middle" x="412" y="-161.3" font-family="Times,serif" font-size="14.00">SetOfMovies</text>
</g>
<!-- 19&#45;&gt;44 -->
<g id="edge68" class="edge"><title>19&#45;&gt;44</title>
<path fill="none" stroke="black" d="M389.966,-37.0842C394.157,-61.2257 401.869,-105.647 406.967,-135.008"/>
<polygon fill="black" stroke="black" points="406.985,-135.115 411.953,-140.342 409.038,-146.938 404.07,-141.711 406.985,-135.115"/>
<text text-anchor="middle" x="433.5" y="-60.3" font-family="Times,serif" font-size="14.00" fill="green">ITEM_TYPE</text>
</g>
<!-- 20&#45;&gt;11 -->
<g id="edge22" class="edge"><title>20&#45;&gt;11</title>
<path fill="none" stroke="black" d="M1080.52,-509.163C1069.39,-518.97 1055.26,-531.416 1043.06,-542.16"/>
<polygon fill="none" stroke="black" points="1040.57,-539.693 1035.38,-548.93 1045.19,-544.946 1040.57,-539.693"/>
</g>
<!-- 21 -->
<g id="node22" class="node"><title>21</title>
<polygon fill="none" stroke="black" points="1121,-91 1121,-127 1215,-127 1215,-91 1121,-91"/>
<text text-anchor="middle" x="1168" y="-105.3" font-family="Times,serif" font-size="14.00">MovieParticle</text>
</g>
<!-- 21&#45;&gt;25 -->
<g id="edge23" class="edge"><title>21&#45;&gt;25</title>
<path fill="none" stroke="black" d="M1152.84,-127.188C1136.76,-145.431 1111.18,-174.433 1092.9,-195.161"/>
<polygon fill="none" stroke="black" points="1090.04,-193.118 1086.05,-202.933 1095.29,-197.748 1090.04,-193.118"/>
</g>
<!-- 43 -->
<g id="node44" class="node"><title>43</title>
<polygon fill="none" stroke="black" points="1118.5,-203 1118.5,-239 1249.5,-239 1249.5,-203 1118.5,-203"/>
<text text-anchor="middle" x="1184" y="-217.3" font-family="Times,serif" font-size="14.00">SetOfMovieParticles</text>
</g>
<!-- 21&#45;&gt;43 -->
<g id="edge69" class="edge"><title>21&#45;&gt;43</title>
<path fill="none" stroke="black" d="M1170.5,-127.188C1172.98,-144.22 1176.82,-170.63 1179.77,-190.93"/>
<polygon fill="black" stroke="black" points="1179.79,-191.058 1184.61,-196.42 1181.52,-202.933 1176.7,-197.571 1179.79,-191.058"/>
<text text-anchor="middle" x="1216.5" y="-161.3" font-family="Times,serif" font-size="14.00" fill="green">ITEM_TYPE</text>
</g>
<!-- 22 -->
<g id="node23" class="node"><title>22</title>
<polygon fill="none" stroke="black" points="1297.5,-293 1297.5,-329 1388.5,-329 1388.5,-293 1297.5,-293"/>
<text text-anchor="middle" x="1343" y="-307.3" font-family="Times,serif" font-size="14.00">NormalMode</text>
</g>
<!-- 22&#45;&gt;11 -->
<g id="edge24" class="edge"><title>22&#45;&gt;11</title>
<path fill="none" stroke="black" d="M1342.56,-329.232C1340.61,-367.675 1330.31,-460.914 1277,-510 1269.1,-517.27 1135.91,-543.352 1062.94,-557.206"/>
<polygon fill="none" stroke="black" points="1062.23,-553.777 1053.06,-559.076 1063.53,-560.655 1062.23,-553.777"/>
</g>
<!-- 45 -->
<g id="node46" class="node"><title>45</title>
<polygon fill="none" stroke="black" points="997,-383 997,-419 1125,-419 1125,-383 997,-383"/>
<text text-anchor="middle" x="1061" y="-397.3" font-family="Times,serif" font-size="14.00">SetOfNormalModes</text>
</g>
<!-- 22&#45;&gt;45 -->
<g id="edge70" class="edge"><title>22&#45;&gt;45</title>
<path fill="none" stroke="black" d="M1297.38,-326.237C1251.29,-340.618 1179.62,-362.985 1127.27,-379.321"/>
<polygon fill="black" stroke="black" points="1127.2,-379.343 1122.66,-384.948 1115.74,-382.917 1120.28,-377.312 1127.2,-379.343"/>
<text text-anchor="middle" x="1265.5" y="-352.3" font-family="Times,serif" font-size="14.00" fill="green">ITEM_TYPE</text>
</g>
<!-- 23 -->
<g id="node24" class="node"><title>23</title>
<polygon fill="none" stroke="black" points="1284,-701 1284,-737 1338,-737 1338,-701 1284,-701"/>
<text text-anchor="middle" x="1311" y="-715.3" font-family="Times,serif" font-size="14.00">Object</text>
</g>
<!-- 24&#45;&gt;23 -->
<g id="edge25" class="edge"><title>24&#45;&gt;23</title>
<path fill="none" stroke="black" d="M1194.25,-661.163C1218.25,-672.848 1249.95,-688.28 1274.26,-700.115"/>
<polygon fill="none" stroke="black" points="1272.99,-703.39 1283.52,-704.621 1276.06,-697.096 1272.99,-703.39"/>
</g>
<!-- 25&#45;&gt;13 -->
<g id="edge26" class="edge"><title>25&#45;&gt;13</title>
<path fill="none" stroke="black" d="M1041.59,-236.87C1038.41,-238.086 1035.17,-239.165 1032,-240 937.551,-264.843 909.871,-245.6 813,-258 725.738,-269.17 704.121,-274.038 618,-292 605.987,-294.505 592.958,-297.56 581.228,-300.437"/>
<polygon fill="none" stroke="black" points="580.175,-297.092 571.314,-302.9 581.863,-303.885 580.175,-297.092"/>
</g>
<!-- 25&#45;&gt;34 -->
<g id="edge71" class="edge"><title>25&#45;&gt;34</title>
<path fill="none" stroke="black" d="M1049.76,-239.211C1035.84,-250.013 1016.96,-263.781 999,-274 990.362,-278.915 980.924,-283.6 971.609,-287.868"/>
<polygon fill="black" stroke="black" points="971.338,-287.988 967.476,-294.078 960.369,-292.855 964.231,-286.765 971.338,-287.988"/>
<text text-anchor="middle" x="1057" y="-262.3" font-family="Times,serif" font-size="14.00" fill="green">REP_TYPE</text>
</g>
<!-- 25&#45;&gt;46 -->
<g id="edge72" class="edge"><title>25&#45;&gt;46</title>
<path fill="none" stroke="black" d="M1041.58,-236.845C1038.4,-238.065 1035.17,-239.153 1032,-240 988.888,-251.519 870.257,-235.029 832,-258 822.664,-263.605 815.405,-272.876 810.035,-282.05"/>
<polygon fill="black" stroke="black" points="809.917,-282.278 810.718,-289.444 804.41,-292.939 803.61,-285.773 809.917,-282.278"/>
<text text-anchor="middle" x="869.5" y="-262.3" font-family="Times,serif" font-size="14.00" fill="green">ITEM_TYPE</text>
</g>
<!-- 25&#45;&gt;46 -->
<g id="edge73" class="edge"><title>25&#45;&gt;46</title>
<path fill="none" stroke="black" d="M1041.93,-236.395C1038.63,-237.737 1035.27,-238.975 1032,-240 988.071,-253.76 972.555,-240.446 930,-258 918.489,-262.748 918.139,-268.434 907,-274 904.393,-275.303 881.411,-282.931 857.218,-290.833"/>
<polygon fill="black" stroke="black" points="857.118,-290.865 852.653,-296.527 845.708,-294.583 850.174,-288.921 857.118,-290.865"/>
<text text-anchor="middle" x="963" y="-262.3" font-family="Times,serif" font-size="14.00" fill="green">REP_TYPE</text>
</g>
<!-- 26 -->
<g id="node27" class="node"><title>26</title>
<polygon fill="none" stroke="black" points="1548,-293 1548,-329 1652,-329 1652,-293 1548,-293"/>
<text text-anchor="middle" x="1600" y="-307.3" font-family="Times,serif" font-size="14.00">ParticlesTiltPair</text>
</g>
<!-- 26&#45;&gt;49 -->
<g id="edge27" class="edge"><title>26&#45;&gt;49</title>
<path fill="none" stroke="black" d="M1560.38,-329.176C1527.16,-343.578 1479.63,-364.18 1444.4,-379.454"/>
<polygon fill="none" stroke="black" points="1442.59,-376.422 1434.81,-383.611 1445.37,-382.845 1442.59,-376.422"/>
</g>
<!-- 27 -->
<g id="node28" class="node"><title>27</title>
<polygon fill="none" stroke="black" points="1525.5,-383 1525.5,-419 1584.5,-419 1584.5,-383 1525.5,-383"/>
<text text-anchor="middle" x="1555" y="-397.3" font-family="Times,serif" font-size="14.00">PdbFile</text>
</g>
<!-- 27&#45;&gt;10 -->
<g id="edge28" class="edge"><title>27&#45;&gt;10</title>
<path fill="none" stroke="black" d="M1555,-419.386C1555,-431.76 1555,-448.631 1555,-462.78"/>
<polygon fill="none" stroke="black" points="1551.5,-462.95 1555,-472.95 1558.5,-462.95 1551.5,-462.95"/>
</g>
<!-- 28&#45;&gt;23 -->
<g id="edge29" class="edge"><title>28&#45;&gt;23</title>
<path fill="none" stroke="black" d="M1380.24,-509.359C1367.23,-548.565 1335.49,-644.193 1319.92,-691.124"/>
<polygon fill="none" stroke="black" points="1316.51,-690.298 1316.68,-700.892 1323.15,-692.503 1316.51,-690.298"/>
</g>
<!-- 29&#45;&gt;24 -->
<g id="edge30" class="edge"><title>29&#45;&gt;24</title>
<path fill="none" stroke="black" d="M1159,-585.163C1159,-593.942 1159,-604.837 1159,-614.733"/>
<polygon fill="none" stroke="black" points="1155.5,-614.93 1159,-624.93 1162.5,-614.93 1155.5,-614.93"/>
</g>
<!-- 30&#45;&gt;7 -->
<g id="edge74" class="edge"><title>30&#45;&gt;7</title>
<path fill="none" stroke="black" d="M326.163,-226.474C368.001,-230.641 433.281,-236.692 490,-240 624.054,-247.82 961.131,-238.571 1094,-258 1121.31,-261.993 1126.79,-269.405 1154,-274 1257.03,-291.396 1287.95,-275.807 1394.25,-291.777"/>
<polygon fill="black" stroke="black" points="1394.32,-291.788 1400.87,-288.768 1406.18,-293.651 1399.63,-296.671 1394.32,-291.788"/>
<text text-anchor="middle" x="1175" y="-262.3" font-family="Times,serif" font-size="14.00" fill="green">_angles</text>
</g>
<!-- 30&#45;&gt;12 -->
<g id="edge31" class="edge"><title>30&#45;&gt;12</title>
<path fill="none" stroke="black" d="M288.304,-239.015C296.655,-262.969 315.174,-306.347 346,-330 370.122,-348.509 386.101,-332.073 412,-348 448.723,-370.583 440.727,-396.701 477,-420 535.323,-457.462 615.154,-476.148 661.488,-484.401"/>
<polygon fill="none" stroke="black" points="660.955,-487.861 671.402,-486.099 662.136,-480.961 660.955,-487.861"/>
</g>
<!-- 31 -->
<g id="node32" class="node"><title>31</title>
<polygon fill="none" stroke="black" points="924.5,-203 924.5,-239 1023.5,-239 1023.5,-203 924.5,-203"/>
<text text-anchor="middle" x="974" y="-217.3" font-family="Times,serif" font-size="14.00">SetOfAverages</text>
</g>
<!-- 31&#45;&gt;46 -->
<g id="edge32" class="edge"><title>31&#45;&gt;46</title>
<path fill="none" stroke="black" d="M924.225,-237.657C921.114,-238.489 918.021,-239.278 915,-240 869.801,-250.801 846.305,-226.651 812,-258 805.155,-264.256 801.512,-273.47 799.618,-282.411"/>
<polygon fill="none" stroke="black" points="796.114,-282.183 798.111,-292.588 803.038,-283.209 796.114,-282.183"/>
</g>
<!-- 32&#45;&gt;12 -->
<g id="edge33" class="edge"><title>32&#45;&gt;12</title>
<path fill="none" stroke="black" d="M191.632,-417.329C194.442,-418.297 197.253,-419.201 200,-420 367.55,-468.741 576.948,-484.025 661.258,-488.398"/>
<polygon fill="none" stroke="black" points="661.215,-491.9 671.377,-488.901 661.563,-484.908 661.215,-491.9"/>
</g>
<!-- 33 -->
<g id="node34" class="node"><title>33</title>
<polygon fill="none" stroke="black" points="591.5,-383 591.5,-419 680.5,-419 680.5,-383 591.5,-383"/>
<text text-anchor="middle" x="636" y="-397.3" font-family="Times,serif" font-size="14.00">SetOfClasses</text>
</g>
<!-- 33&#45;&gt;12 -->
<g id="edge34" class="edge"><title>33&#45;&gt;12</title>
<path fill="none" stroke="black" d="M648.447,-419.386C657.653,-432.245 670.336,-449.962 680.695,-464.432"/>
<polygon fill="none" stroke="black" points="678.126,-466.856 686.793,-472.95 683.818,-462.781 678.126,-466.856"/>
</g>
<!-- 34&#45;&gt;33 -->
<g id="edge35" class="edge"><title>34&#45;&gt;33</title>
<path fill="none" stroke="black" d="M863.36,-327.811C860.204,-328.595 857.066,-329.332 854,-330 800.447,-341.668 784.002,-330.683 732,-348 710.56,-355.14 688.269,-366.907 670.57,-377.443"/>
<polygon fill="none" stroke="black" points="668.48,-374.618 661.761,-382.81 672.122,-380.596 668.48,-374.618"/>
</g>
<!-- 35&#45;&gt;33 -->
<g id="edge36" class="edge"><title>35&#45;&gt;33</title>
<path fill="none" stroke="black" d="M671.307,-329.386C664.999,-342.002 656.353,-359.295 649.195,-373.609"/>
<polygon fill="none" stroke="black" points="645.867,-372.44 644.525,-382.95 652.128,-375.571 645.867,-372.44"/>
</g>
<!-- 36&#45;&gt;35 -->
<g id="edge37" class="edge"><title>36&#45;&gt;35</title>
<path fill="none" stroke="black" d="M818.428,-239.176C791.081,-253.168 752.297,-273.011 722.735,-288.136"/>
<polygon fill="none" stroke="black" points="720.795,-285.196 713.487,-292.867 723.984,-291.428 720.795,-285.196"/>
</g>
<!-- 37&#45;&gt;12 -->
<g id="edge38" class="edge"><title>37&#45;&gt;12</title>
<path fill="none" stroke="black" d="M317.293,-419.117C352.587,-430.366 400.726,-444.675 444,-454 520.304,-470.442 611.128,-481.201 661.182,-486.381"/>
<polygon fill="none" stroke="black" points="660.921,-489.873 671.224,-487.402 661.629,-482.909 660.921,-489.873"/>
</g>
<!-- 38&#45;&gt;12 -->
<g id="edge39" class="edge"><title>38&#45;&gt;12</title>
<path fill="none" stroke="black" d="M750.356,-419.386C740.915,-432.366 727.875,-450.296 717.298,-464.84"/>
<polygon fill="none" stroke="black" points="714.451,-462.804 711.4,-472.95 720.113,-466.921 714.451,-462.804"/>
</g>
<!-- 40&#45;&gt;12 -->
<g id="edge40" class="edge"><title>40&#45;&gt;12</title>
<path fill="none" stroke="black" d="M562.986,-419.176C591.503,-434.025 632.678,-455.465 662.245,-470.861"/>
<polygon fill="none" stroke="black" points="660.919,-474.117 671.406,-475.631 664.152,-467.908 660.919,-474.117"/>
</g>
<!-- 42 -->
<g id="node43" class="node"><title>42</title>
<polygon fill="none" stroke="black" points="355,-293 355,-329 499,-329 499,-293 355,-293"/>
<text text-anchor="middle" x="427" y="-307.3" font-family="Times,serif" font-size="14.00">SetOfMicrographsBase</text>
</g>
<!-- 41&#45;&gt;42 -->
<g id="edge41" class="edge"><title>41&#45;&gt;42</title>
<path fill="none" stroke="black" d="M214.215,-239.072C257.752,-253.584 320.339,-274.446 366.369,-289.79"/>
<polygon fill="none" stroke="black" points="365.334,-293.134 375.928,-292.976 367.548,-286.493 365.334,-293.134"/>
</g>
<!-- 42&#45;&gt;40 -->
<g id="edge42" class="edge"><title>42&#45;&gt;40</title>
<path fill="none" stroke="black" d="M447.349,-329.386C462.968,-342.73 484.71,-361.306 501.974,-376.056"/>
<polygon fill="none" stroke="black" points="500.167,-379.115 510.043,-382.95 504.714,-373.793 500.167,-379.115"/>
</g>
<!-- 43&#45;&gt;46 -->
<g id="edge43" class="edge"><title>43&#45;&gt;46</title>
<path fill="none" stroke="black" d="M1118.11,-237.697C1114.69,-238.482 1111.31,-239.254 1108,-240 1070.75,-248.4 1059.66,-244.367 1024,-258 1010.61,-263.118 1009.59,-269.456 996,-274 938.612,-293.185 918.111,-279.68 855.747,-291.9"/>
<polygon fill="none" stroke="black" points="854.866,-288.509 845.801,-293.993 856.308,-295.359 854.866,-288.509"/>
</g>
<!-- 44&#45;&gt;42 -->
<g id="edge44" class="edge"><title>44&#45;&gt;42</title>
<path fill="none" stroke="black" d="M413.78,-183.084C416.351,-207.767 421.13,-253.649 424.183,-282.959"/>
<polygon fill="none" stroke="black" points="420.705,-283.355 425.223,-292.938 427.668,-282.629 420.705,-283.355"/>
</g>
<!-- 45&#45;&gt;12 -->
<g id="edge45" class="edge"><title>45&#45;&gt;12</title>
<path fill="none" stroke="black" d="M996.825,-417.611C993.502,-418.419 990.212,-419.219 987,-420 897.284,-441.814 791.844,-467.439 736.799,-480.815"/>
<polygon fill="none" stroke="black" points="735.693,-477.482 726.802,-483.244 737.346,-484.284 735.693,-477.482"/>
</g>
<!-- 46&#45;&gt;40 -->
<g id="edge46" class="edge"><title>46&#45;&gt;40</title>
<path fill="none" stroke="black" d="M750.425,-327.062C747.237,-328.06 744.072,-329.046 741,-330 714.817,-338.128 708.092,-339.586 682,-348 640.202,-361.478 627.951,-366.163 583.84,-381.366"/>
<polygon fill="none" stroke="black" points="582.567,-378.103 574.249,-384.665 584.844,-384.722 582.567,-378.103"/>
</g>
<!-- 47&#45;&gt;40 -->
<g id="edge47" class="edge"><title>47&#45;&gt;40</title>
<path fill="none" stroke="black" d="M560.132,-239.142C578.11,-266.846 607.414,-322.54 585,-364 582.486,-368.649 579.082,-372.795 575.192,-376.466"/>
<polygon fill="none" stroke="black" points="572.768,-373.926 567.218,-382.951 577.185,-379.357 572.768,-373.926"/>
</g>
<!-- 48 -->
<g id="node49" class="node"><title>48</title>
<polygon fill="none" stroke="black" points="1496,-203 1496,-239 1554,-239 1554,-203 1496,-203"/>
<text text-anchor="middle" x="1525" y="-217.3" font-family="Times,serif" font-size="14.00">TiltPair</text>
</g>
<!-- 48&#45;&gt;7 -->
<g id="edge75" class="edge"><title>48&#45;&gt;7</title>
<path fill="none" stroke="black" d="M1508.63,-239.25C1503.62,-244.978 1498.3,-251.546 1494,-258 1489.12,-265.339 1484.54,-273.723 1480.62,-281.585"/>
<polygon fill="black" stroke="black" points="1480.57,-281.711 1481.6,-288.847 1475.41,-292.548 1474.38,-285.411 1480.57,-281.711"/>
<text text-anchor="middle" x="1531.5" y="-262.3" font-family="Times,serif" font-size="14.00" fill="green">ITEM_TYPE</text>
</g>
<!-- 48&#45;&gt;11 -->
<g id="edge48" class="edge"><title>48&#45;&gt;11</title>
<path fill="none" stroke="black" d="M1495.84,-222.173C1446.24,-224.079 1345.28,-235.211 1288,-292 1245.77,-333.872 1279.36,-368.861 1249,-420 1232.48,-447.836 1220.13,-448.376 1198,-472 1182.51,-488.539 1182.69,-497.179 1164,-510 1133.27,-531.085 1093.54,-545.549 1062.99,-554.488"/>
<polygon fill="none" stroke="black" points="1061.68,-551.222 1053.01,-557.31 1063.58,-557.958 1061.68,-551.222"/>
</g>
<!-- 48&#45;&gt;18 -->
<g id="edge76" class="edge"><title>48&#45;&gt;18</title>
<path fill="none" stroke="black" d="M1554.23,-226.847C1582.07,-232.151 1624.69,-242.085 1659,-258 1674.65,-265.26 1690.56,-275.752 1703.67,-285.413"/>
<polygon fill="black" stroke="black" points="1703.97,-285.645 1711.17,-286.09 1713.53,-292.905 1706.33,-292.46 1703.97,-285.645"/>
<text text-anchor="middle" x="1723.5" y="-262.3" font-family="Times,serif" font-size="14.00" fill="green">ITEM_TYPE</text>
</g>
<!-- 48&#45;&gt;26 -->
<g id="edge77" class="edge"><title>48&#45;&gt;26</title>
<path fill="none" stroke="black" d="M1549.19,-239.292C1556.04,-244.824 1563.2,-251.271 1569,-258 1575.23,-265.225 1580.93,-273.862 1585.71,-282.002"/>
<polygon fill="black" stroke="black" points="1585.78,-282.124 1592.19,-285.428 1591.6,-292.615 1585.19,-289.311 1585.78,-282.124"/>
<text text-anchor="middle" x="1617.5" y="-262.3" font-family="Times,serif" font-size="14.00" fill="green">ITEM_TYPE</text>
</g>
<!-- 49&#45;&gt;12 -->
<g id="edge49" class="edge"><title>49&#45;&gt;12</title>
<path fill="none" stroke="black" d="M1359.47,-406.731C1238.27,-422.012 858.128,-469.938 736.692,-485.248"/>
<polygon fill="none" stroke="black" points="736.23,-481.779 726.746,-486.502 737.105,-488.724 736.23,-481.779"/>
</g>
<!-- 50&#45;&gt;11 -->
<g id="edge50" class="edge"><title>50&#45;&gt;11</title>
<path fill="none" stroke="black" d="M1431.8,-507.168C1428.52,-508.226 1425.22,-509.191 1422,-510 1292.08,-542.633 1255.52,-528.44 1123,-548 1103.35,-550.901 1081.72,-554.467 1063.09,-557.657"/>
<polygon fill="none" stroke="black" points="1062.34,-554.235 1053.08,-559.385 1063.53,-561.133 1062.34,-554.235"/>
</g>
<!-- 51 -->
<g id="node52" class="node"><title>51</title>
<polygon fill="none" stroke="black" points="562.5,-91 562.5,-127 623.5,-127 623.5,-91 562.5,-91"/>
<text text-anchor="middle" x="593" y="-105.3" font-family="Times,serif" font-size="14.00">Volume</text>
</g>
<!-- 51&#45;&gt;4 -->
<g id="edge78" class="edge"><title>51&#45;&gt;4</title>
<path fill="none" stroke="black" d="M623.741,-117.455C638.637,-122.783 655.176,-131.632 664,-146 672.517,-159.869 668.682,-177.509 662.404,-192.088"/>
<polygon fill="black" stroke="black" points="662.336,-192.227 663.274,-199.377 657.035,-202.993 656.097,-195.843 662.336,-192.227"/>
<text text-anchor="middle" x="702" y="-161.3" font-family="Times,serif" font-size="14.00" fill="green">REP_TYPE</text>
</g>
<!-- 51&#45;&gt;13 -->
<g id="edge51" class="edge"><title>51&#45;&gt;13</title>
<path fill="none" stroke="black" d="M562.053,-111.843C538.38,-115.062 507.144,-123.608 491,-146 466.565,-179.89 476.519,-200.454 490,-240 495.769,-256.923 507.468,-272.938 518.506,-285.368"/>
<polygon fill="none" stroke="black" points="516.223,-288.052 525.596,-292.992 521.349,-283.285 516.223,-288.052"/>
</g>
<!-- 51&#45;&gt;35 -->
<g id="edge79" class="edge"><title>51&#45;&gt;35</title>
<path fill="none" stroke="black" d="M623.7,-113.171C662.22,-117.856 724.953,-128.069 739,-146 749.415,-159.295 745.24,-168.306 739,-184 734.935,-194.225 727.531,-192.487 722,-202 705.18,-230.926 713.086,-243.205 700,-274 698.868,-276.665 697.593,-279.388 696.249,-282.083"/>
<polygon fill="black" stroke="black" points="696.182,-282.21 696.882,-289.387 690.526,-292.793 689.826,-285.616 696.182,-282.21"/>
<text text-anchor="middle" x="755" y="-217.3" font-family="Times,serif" font-size="14.00" fill="green">REP_TYPE</text>
</g>
<!-- 51&#45;&gt;47 -->
<g id="edge80" class="edge"><title>51&#45;&gt;47</title>
<path fill="none" stroke="black" d="M589.322,-127.241C585.718,-142.56 579.525,-165.35 571,-184 569.705,-186.833 568.216,-189.706 566.631,-192.528"/>
<polygon fill="black" stroke="black" points="566.505,-192.736 566.794,-199.941 560.254,-202.979 559.965,-195.774 566.505,-192.736"/>
<text text-anchor="middle" x="622.5" y="-161.3" font-family="Times,serif" font-size="14.00" fill="green">ITEM_TYPE</text>
</g>
<!-- 51&#45;&gt;47 -->
<g id="edge81" class="edge"><title>51&#45;&gt;47</title>
<path fill="none" stroke="black" d="M562.237,-113.175C541.158,-117.133 514.633,-126.025 501,-146 491.479,-159.949 493.524,-168.856 501,-184 502.877,-187.802 505.369,-191.313 508.23,-194.529"/>
<polygon fill="black" stroke="black" points="508.305,-194.6 515.419,-195.783 517.062,-202.804 509.949,-201.621 508.305,-194.6"/>
<text text-anchor="middle" x="534" y="-161.3" font-family="Times,serif" font-size="14.00" fill="green">REP_TYPE</text>
</g>
<!-- 52 -->
<g id="node53" class="node"><title>52</title>
<polygon fill="none" stroke="black" points="547,-1 547,-37 639,-37 639,-1 547,-1"/>
<text text-anchor="middle" x="593" y="-15.3" font-family="Times,serif" font-size="14.00">VolumeMask</text>
</g>
<!-- 52&#45;&gt;51 -->
<g id="edge52" class="edge"><title>52&#45;&gt;51</title>
<path fill="none" stroke="black" d="M593,-37.386C593,-49.7597 593,-66.6314 593,-80.7802"/>
<polygon fill="none" stroke="black" points="589.5,-80.9496 593,-90.9496 596.5,-80.9496 589.5,-80.9496"/>
</g>
</g>
</svg>
