<?xml version="1.0" encoding="UTF-8" standalone="no"?>
<!DOCTYPE svg PUBLIC "-//W3C//DTD SVG 1.1//EN"
 "http://www.w3.org/Graphics/SVG/1.1/DTD/svg11.dtd">
<!-- Generated by graphviz version 2.28.0 (20130928.0220)
 -->
<!-- Title: classes_object Pages: 1 -->
<svg width="445pt" height="324pt"
 viewBox="0.00 0.00 445.00 324.00" xmlns="http://www.w3.org/2000/svg" xmlns:xlink="http://www.w3.org/1999/xlink">
<g id="graph1" class="graph" transform="scale(1 1) rotate(0) translate(4 320)">
<title>classes_object</title>
<polygon fill="white" stroke="white" points="-4,5 -4,-320 442,-320 442,5 -4,5"/>
<!-- 2 -->
<g id="node1" class="node"><title>2</title>
<polygon fill="none" stroke="black" points="144,-1 144,-37 198,-37 198,-1 144,-1"/>
<text text-anchor="middle" x="171" y="-15.3" font-family="Times,serif" font-size="14.00">Float</text>
</g>
<!-- 8 -->
<g id="node7" class="node"><title>8</title>
<polygon fill="none" stroke="black" points="196,-91 196,-127 250,-127 250,-91 196,-91"/>
<text text-anchor="middle" x="223" y="-105.3" font-family="Times,serif" font-size="14.00">Scalar</text>
</g>
<!-- 2&#45;&gt;8 -->
<g id="edge2" class="edge"><title>2&#45;&gt;8</title>
<path fill="none" stroke="black" d="M181.608,-37.1594C185.252,-43.106 189.335,-49.8282 193,-56 197.949,-64.334 203.262,-73.4754 208.021,-81.7377"/>
<polygon fill="none" stroke="black" points="205.095,-83.6723 213.109,-90.6028 211.166,-80.1876 205.095,-83.6723"/>
</g>
<!-- 3 -->
<g id="node2" class="node"><title>3</title>
<polygon fill="none" stroke="black" points="-0.5,-91 -0.5,-127 78.5,-127 78.5,-91 -0.5,-91"/>
<text text-anchor="middle" x="39" y="-105.3" font-family="Times,serif" font-size="14.00">PointerList</text>
</g>
<!-- 7 -->
<g id="node6" class="node"><title>7</title>
<polygon fill="none" stroke="black" points="30,-203 30,-239 84,-239 84,-203 30,-203"/>
<text text-anchor="middle" x="57" y="-217.3" font-family="Times,serif" font-size="14.00">List</text>
</g>
<!-- 3&#45;&gt;7 -->
<g id="edge4" class="edge"><title>3&#45;&gt;7</title>
<path fill="none" stroke="black" d="M41.8125,-127.188C44.6921,-144.785 49.2098,-172.393 52.5702,-192.929"/>
<polygon fill="none" stroke="black" points="49.1382,-193.63 54.2072,-202.933 56.0463,-192.499 49.1382,-193.63"/>
</g>
<!-- 4 -->
<g id="node3" class="node"><title>4</title>
<polygon fill="none" stroke="black" points="72,-1 72,-37 126,-37 126,-1 72,-1"/>
<text text-anchor="middle" x="99" y="-15.3" font-family="Times,serif" font-size="14.00">String</text>
</g>
<!-- 4&#45;&gt;8 -->
<g id="edge6" class="edge"><title>4&#45;&gt;8</title>
<path fill="none" stroke="black" d="M126.29,-33.7857C143.874,-42.7463 164.149,-53.2556 168,-56 179.315,-64.0631 190.666,-74.3364 200.093,-83.6186"/>
<polygon fill="none" stroke="black" points="197.676,-86.1525 207.203,-90.7891 202.647,-81.2237 197.676,-86.1525"/>
</g>
<!-- 12 -->
<g id="node11" class="node"><title>12</title>
<polygon fill="none" stroke="black" points="92,-147 92,-183 150,-183 150,-147 92,-147"/>
<text text-anchor="middle" x="121" y="-161.3" font-family="Times,serif" font-size="14.00">Pointer</text>
</g>
<!-- 4&#45;&gt;12 -->
<g id="edge28" class="edge"><title>4&#45;&gt;12</title>
<path fill="none" stroke="black" d="M100.291,-37.3777C101.138,-47.5036 102.388,-60.5036 104,-72 106.958,-93.0981 111.348,-116.728 114.925,-134.756"/>
<polygon fill="black" stroke="black" points="114.978,-135.015 120.087,-140.104 117.355,-146.778 112.245,-141.689 114.978,-135.015"/>
<text text-anchor="middle" x="134" y="-60.3" font-family="Times,serif" font-size="14.00" fill="green">_extended</text>
</g>
<!-- 5 -->
<g id="node4" class="node"><title>5</title>
<polygon fill="none" stroke="black" points="298.5,-1 298.5,-37 357.5,-37 357.5,-1 298.5,-1"/>
<text text-anchor="middle" x="328" y="-15.3" font-family="Times,serif" font-size="14.00">CsvList</text>
</g>
<!-- 5&#45;&gt;8 -->
<g id="edge8" class="edge"><title>5&#45;&gt;8</title>
<path fill="none" stroke="black" d="M302.84,-37.1252C294.738,-42.8997 285.833,-49.5263 278,-56 267.555,-64.6332 256.6,-74.7491 247.241,-83.7523"/>
<polygon fill="none" stroke="black" points="244.524,-81.5125 239.801,-90.9963 249.407,-86.5279 244.524,-81.5125"/>
</g>
<!-- 11 -->
<g id="node10" class="node"><title>11</title>
<polygon fill="none" stroke="black" points="295,-91 295,-127 349,-127 349,-91 295,-91"/>
<text text-anchor="middle" x="322" y="-105.3" font-family="Times,serif" font-size="14.00">Set</text>
</g>
<!-- 5&#45;&gt;11 -->
<g id="edge24" class="edge"><title>5&#45;&gt;11</title>
<path fill="none" stroke="black" d="M325.192,-37.1675C324.332,-43.1148 323.486,-49.8353 323,-56 322.426,-63.2913 322.115,-71.1744 321.958,-78.5449"/>
<polygon fill="black" stroke="black" points="321.957,-78.6423 325.888,-84.6877 321.819,-90.6415 317.888,-84.5961 321.957,-78.6423"/>
<text text-anchor="middle" x="360" y="-60.3" font-family="Times,serif" font-size="14.00" fill="green">_mapperPath</text>
</g>
<!-- 6 -->
<g id="node5" class="node"><title>6</title>
<polygon fill="none" stroke="black" points="145,-279 145,-315 201,-315 201,-279 145,-279"/>
<text text-anchor="middle" x="173" y="-293.3" font-family="Times,serif" font-size="14.00">Object</text>
</g>
<!-- 7&#45;&gt;6 -->
<g id="edge10" class="edge"><title>7&#45;&gt;6</title>
<path fill="none" stroke="black" d="M83.9043,-239.163C99.8626,-249.343 120.28,-262.368 137.542,-273.381"/>
<polygon fill="none" stroke="black" points="135.929,-276.503 146.242,-278.93 139.693,-270.601 135.929,-276.503"/>
</g>
<!-- 8&#45;&gt;6 -->
<g id="edge12" class="edge"><title>8&#45;&gt;6</title>
<path fill="none" stroke="black" d="M218.386,-127.165C209.679,-159.554 190.765,-229.913 180.312,-268.8"/>
<polygon fill="none" stroke="black" points="176.819,-268.311 177.603,-278.876 183.579,-270.128 176.819,-268.311"/>
</g>
<!-- 9 -->
<g id="node8" class="node"><title>9</title>
<polygon fill="none" stroke="black" points="216,-1 216,-37 280,-37 280,-1 216,-1"/>
<text text-anchor="middle" x="248" y="-15.3" font-family="Times,serif" font-size="14.00">Boolean</text>
</g>
<!-- 9&#45;&gt;8 -->
<g id="edge14" class="edge"><title>9&#45;&gt;8</title>
<path fill="none" stroke="black" d="M243.061,-37.386C239.511,-49.881 234.658,-66.9626 230.615,-81.1956"/>
<polygon fill="none" stroke="black" points="227.21,-80.3737 227.844,-90.9496 233.943,-82.2867 227.21,-80.3737"/>
</g>
<!-- 10 -->
<g id="node9" class="node"><title>10</title>
<polygon fill="none" stroke="black" points="380.5,-1 380.5,-37 437.5,-37 437.5,-1 380.5,-1"/>
<text text-anchor="middle" x="409" y="-15.3" font-family="Times,serif" font-size="14.00">Integer</text>
</g>
<!-- 10&#45;&gt;8 -->
<g id="edge16" class="edge"><title>10&#45;&gt;8</title>
<path fill="none" stroke="black" d="M380.369,-32.1288C375.581,-34.1157 370.658,-36.1338 366,-38 345.236,-46.3196 339.322,-46.6532 319,-56 298.763,-65.3076 276.876,-77.0276 259.118,-86.9838"/>
<polygon fill="none" stroke="black" points="257.219,-84.0369 250.239,-92.0074 260.666,-90.1294 257.219,-84.0369"/>
</g>
<!-- 10&#45;&gt;11 -->
<g id="edge26" class="edge"><title>10&#45;&gt;11</title>
<path fill="none" stroke="black" d="M408.752,-37.0813C407.769,-48.1021 404.874,-62.163 397,-72 387.785,-83.5116 373.992,-91.5671 360.737,-97.0922"/>
<polygon fill="black" stroke="black" points="360.606,-97.1409 356.374,-102.98 349.357,-101.319 353.589,-95.4805 360.606,-97.1409"/>
<text text-anchor="middle" x="420" y="-60.3" font-family="Times,serif" font-size="14.00" fill="green">_size</text>
</g>
<!-- 13 -->
<g id="node12" class="node"><title>13</title>
<polygon fill="none" stroke="black" points="236,-203 236,-239 340,-239 340,-203 236,-203"/>
<text text-anchor="middle" x="288" y="-217.3" font-family="Times,serif" font-size="14.00">OrderedObject</text>
</g>
<!-- 11&#45;&gt;13 -->
<g id="edge18" class="edge"><title>11&#45;&gt;13</title>
<path fill="none" stroke="black" d="M316.688,-127.188C311.223,-144.866 302.637,-172.646 296.28,-193.211"/>
<polygon fill="none" stroke="black" points="292.884,-192.346 293.275,-202.933 299.572,-194.413 292.884,-192.346"/>
</g>
<!-- 12&#45;&gt;6 -->
<g id="edge20" class="edge"><title>12&#45;&gt;6</title>
<path fill="none" stroke="black" d="M127.905,-183.263C136.685,-205.214 151.941,-243.351 162.249,-269.123"/>
<polygon fill="none" stroke="black" points="159.103,-270.681 166.066,-278.666 165.602,-268.081 159.103,-270.681"/>
</g>
<!-- 13&#45;&gt;6 -->
<g id="edge22" class="edge"><title>13&#45;&gt;6</title>
<path fill="none" stroke="black" d="M261.328,-239.163C245.507,-249.343 225.265,-262.368 208.152,-273.381"/>
<polygon fill="none" stroke="black" points="206.043,-270.575 199.528,-278.93 209.831,-276.462 206.043,-270.575"/>
</g>
</g>
</svg>
