<?xml version="1.0" encoding="UTF-8" standalone="no"?>
<!DOCTYPE svg PUBLIC "-//W3C//DTD SVG 1.1//EN"
 "http://www.w3.org/Graphics/SVG/1.1/DTD/svg11.dtd">
<!-- Generated by graphviz version 2.28.0 (20130928.0220)
 -->
<!-- Title: classes_objectFull Pages: 1 -->
<svg width="607pt" height="1836pt"
 viewBox="0.00 0.00 607.00 1836.00" xmlns="http://www.w3.org/2000/svg" xmlns:xlink="http://www.w3.org/1999/xlink">
<g id="graph1" class="graph" transform="scale(1 1) rotate(0) translate(4 1832)">
<title>classes_objectFull</title>
<polygon fill="white" stroke="white" points="-4,5 -4,-1832 604,-1832 604,5 -4,5"/>
<!-- 2 -->
<g id="node1" class="node"><title>2</title>
<polygon fill="none" stroke="black" points="117,-16 117,-100 299,-100 299,-16 117,-16"/>
<text text-anchor="middle" x="208" y="-84.8" font-family="Times,serif" font-size="14.00">Float</text>
<polyline fill="none" stroke="black" points="117,-77 299,-77 "/>
<text text-anchor="start" x="125" y="-61.8" font-family="Times,serif" font-size="14.00">EQUAL_PRECISION : float</text>
<polyline fill="none" stroke="black" points="117,-54 299,-54 "/>
<text text-anchor="start" x="125" y="-38.8" font-family="Times,serif" font-size="14.00">setPrecision()</text>
<text text-anchor="start" x="125" y="-23.8" font-family="Times,serif" font-size="14.00">equalAttributes()</text>
</g>
<!-- 8 -->
<g id="node7" class="node"><title>8</title>
<polygon fill="none" stroke="black" points="230.5,-310.5 230.5,-455.5 343.5,-455.5 343.5,-310.5 230.5,-310.5"/>
<text text-anchor="middle" x="287" y="-440.3" font-family="Times,serif" font-size="14.00">Scalar</text>
<polyline fill="none" stroke="black" points="230.5,-432.5 343.5,-432.5 "/>
<polyline fill="none" stroke="black" points="230.5,-408.5 343.5,-408.5 "/>
<text text-anchor="start" x="238.5" y="-393.3" font-family="Times,serif" font-size="14.00">equalAttributes()</text>
<text text-anchor="start" x="238.5" y="-378.3" font-family="Times,serif" font-size="14.00">get()</text>
<text text-anchor="start" x="238.5" y="-363.3" font-family="Times,serif" font-size="14.00">hasValue()</text>
<text text-anchor="start" x="238.5" y="-348.3" font-family="Times,serif" font-size="14.00">swap()</text>
<text text-anchor="start" x="238.5" y="-333.3" font-family="Times,serif" font-size="14.00">multiply()</text>
<text text-anchor="start" x="238.5" y="-318.3" font-family="Times,serif" font-size="14.00">sum()</text>
</g>
<!-- 2&#45;&gt;8 -->
<g id="edge2" class="edge"><title>2&#45;&gt;8</title>
<path fill="none" stroke="black" d="M218.086,-100.236C230.365,-150.443 251.394,-236.423 267.001,-300.234"/>
<polygon fill="none" stroke="black" points="263.682,-301.394 269.458,-310.276 270.481,-299.731 263.682,-301.394"/>
</g>
<!-- 3 -->
<g id="node2" class="node"><title>3</title>
<polygon fill="none" stroke="black" points="3.5,-348 3.5,-418 82.5,-418 82.5,-348 3.5,-348"/>
<text text-anchor="middle" x="43" y="-402.8" font-family="Times,serif" font-size="14.00">PointerList</text>
<polyline fill="none" stroke="black" points="3.5,-395 82.5,-395 "/>
<polyline fill="none" stroke="black" points="3.5,-371 82.5,-371 "/>
<text text-anchor="start" x="11.5" y="-355.8" font-family="Times,serif" font-size="14.00">append()</text>
</g>
<!-- 7 -->
<g id="node6" class="node"><title>7</title>
<polygon fill="none" stroke="black" points="-0.5,-900.5 -0.5,-999.5 130.5,-999.5 130.5,-900.5 -0.5,-900.5"/>
<text text-anchor="middle" x="65" y="-984.3" font-family="Times,serif" font-size="14.00">List</text>
<polyline fill="none" stroke="black" points="-0.5,-976.5 130.5,-976.5 "/>
<text text-anchor="start" x="7.5" y="-961.3" font-family="Times,serif" font-size="14.00">ITEM_PREFIX : str</text>
<polyline fill="none" stroke="black" points="-0.5,-953.5 130.5,-953.5 "/>
<text text-anchor="start" x="7.5" y="-938.3" font-family="Times,serif" font-size="14.00">clear()</text>
<text text-anchor="start" x="7.5" y="-923.3" font-family="Times,serif" font-size="14.00">getAttributes()</text>
<text text-anchor="start" x="7.5" y="-908.3" font-family="Times,serif" font-size="14.00">isEmpty()</text>
</g>
<!-- 3&#45;&gt;7 -->
<g id="edge4" class="edge"><title>3&#45;&gt;7</title>
<path fill="none" stroke="black" d="M43.957,-418.125C46.2799,-498.811 52.6461,-707.656 61,-882 61.1289,-884.69 61.2671,-887.44 61.4119,-890.218"/>
<polygon fill="none" stroke="black" points="57.9242,-890.541 61.9602,-900.337 64.914,-890.163 57.9242,-890.541"/>
</g>
<!-- 4 -->
<g id="node3" class="node"><title>4</title>
<polygon fill="none" stroke="black" points="37,-23 37,-93 99,-93 99,-23 37,-23"/>
<text text-anchor="middle" x="68" y="-77.8" font-family="Times,serif" font-size="14.00">String</text>
<polyline fill="none" stroke="black" points="37,-70 99,-70 "/>
<polyline fill="none" stroke="black" points="37,-46 99,-46 "/>
<text text-anchor="start" x="45" y="-30.8" font-family="Times,serif" font-size="14.00">empty()</text>
</g>
<!-- 4&#45;&gt;8 -->
<g id="edge6" class="edge"><title>4&#45;&gt;8</title>
<path fill="none" stroke="black" d="M86.2684,-93.071C92.2198,-101.583 99.5173,-109.988 108,-116 132.108,-133.085 149.503,-114.843 172,-134 222.193,-176.741 251.775,-246.118 268.335,-300.639"/>
<polygon fill="none" stroke="black" points="264.995,-301.687 271.178,-310.29 271.709,-299.709 264.995,-301.687"/>
</g>
<!-- 12 -->
<g id="node11" class="node"><title>12</title>
<polygon fill="none" stroke="black" points="70,-617 70,-881 242,-881 242,-617 70,-617"/>
<text text-anchor="middle" x="156" y="-865.8" font-family="Times,serif" font-size="14.00">Pointer</text>
<polyline fill="none" stroke="black" points="70,-858 242,-858 "/>
<text text-anchor="start" x="78" y="-842.8" font-family="Times,serif" font-size="14.00">EXTENDED_ITEMID : str</text>
<text text-anchor="start" x="78" y="-827.8" font-family="Times,serif" font-size="14.00">EXTENDED_ATTR : str</text>
<polyline fill="none" stroke="black" points="70,-820 242,-820 "/>
<text text-anchor="start" x="78" y="-804.8" font-family="Times,serif" font-size="14.00">setExtended()</text>
<text text-anchor="start" x="78" y="-789.8" font-family="Times,serif" font-size="14.00">pointsNone()</text>
<text text-anchor="start" x="78" y="-774.8" font-family="Times,serif" font-size="14.00">set()</text>
<text text-anchor="start" x="78" y="-759.8" font-family="Times,serif" font-size="14.00">get()</text>
<text text-anchor="start" x="78" y="-744.8" font-family="Times,serif" font-size="14.00">hasExtended()</text>
<text text-anchor="start" x="78" y="-729.8" font-family="Times,serif" font-size="14.00">hasValue()</text>
<text text-anchor="start" x="78" y="-714.8" font-family="Times,serif" font-size="14.00">getExtended()</text>
<text text-anchor="start" x="78" y="-699.8" font-family="Times,serif" font-size="14.00">removeExtended()</text>
<text text-anchor="start" x="78" y="-684.8" font-family="Times,serif" font-size="14.00">getAttributes()</text>
<text text-anchor="start" x="78" y="-669.8" font-family="Times,serif" font-size="14.00">getUniqueId()</text>
<text text-anchor="start" x="78" y="-654.8" font-family="Times,serif" font-size="14.00">addExtended()</text>
<text text-anchor="start" x="78" y="-639.8" font-family="Times,serif" font-size="14.00">getExtendedParts()</text>
<text text-anchor="start" x="78" y="-624.8" font-family="Times,serif" font-size="14.00">setExtendedParts()</text>
</g>
<!-- 4&#45;&gt;12 -->
<g id="edge28" class="edge"><title>4&#45;&gt;12</title>
<path fill="none" stroke="black" d="M76.1022,-93.2061C80.9502,-114.604 86.9383,-142.796 91,-168 114.861,-316.063 132.859,-486.798 143.797,-604.494"/>
<polygon fill="black" stroke="black" points="143.829,-604.837 148.363,-610.444 144.932,-616.786 140.397,-611.18 143.829,-604.837"/>
<text text-anchor="middle" x="118" y="-138.3" font-family="Times,serif" font-size="14.00" fill="green">_extended</text>
</g>
<!-- 5 -->
<g id="node4" class="node"><title>5</title>
<polygon fill="none" stroke="black" points="399.5,-0.5 399.5,-115.5 498.5,-115.5 498.5,-0.5 399.5,-0.5"/>
<text text-anchor="middle" x="449" y="-100.3" font-family="Times,serif" font-size="14.00">CsvList</text>
<polyline fill="none" stroke="black" points="399.5,-92.5 498.5,-92.5 "/>
<polyline fill="none" stroke="black" points="399.5,-68.5 498.5,-68.5 "/>
<text text-anchor="start" x="407.5" y="-53.3" font-family="Times,serif" font-size="14.00">get()</text>
<text text-anchor="start" x="407.5" y="-38.3" font-family="Times,serif" font-size="14.00">getObjValue()</text>
<text text-anchor="start" x="407.5" y="-23.3" font-family="Times,serif" font-size="14.00">isEmpty()</text>
<text text-anchor="start" x="407.5" y="-8.3" font-family="Times,serif" font-size="14.00">clear()</text>
</g>
<!-- 5&#45;&gt;8 -->
<g id="edge8" class="edge"><title>5&#45;&gt;8</title>
<path fill="none" stroke="black" d="M399.436,-109.453C384.242,-126.931 368.515,-147.344 357,-168 334.004,-209.249 317.123,-259.227 305.706,-300.507"/>
<polygon fill="none" stroke="black" points="302.301,-299.692 303.066,-310.259 309.058,-301.521 302.301,-299.692"/>
</g>
<!-- 11 -->
<g id="node10" class="node"><title>11</title>
<polygon fill="none" stroke="black" points="366,-168.5 366,-597.5 532,-597.5 532,-168.5 366,-168.5"/>
<text text-anchor="middle" x="449" y="-582.3" font-family="Times,serif" font-size="14.00">Set</text>
<polyline fill="none" stroke="black" points="366,-574.5 532,-574.5 "/>
<text text-anchor="start" x="374" y="-559.3" font-family="Times,serif" font-size="14.00">ITEM_TYPE : NoneType</text>
<polyline fill="none" stroke="black" points="366,-551.5 532,-551.5 "/>
<text text-anchor="start" x="374" y="-536.3" font-family="Times,serif" font-size="14.00">load()</text>
<text text-anchor="start" x="374" y="-521.3" font-family="Times,serif" font-size="14.00">getFiles()</text>
<text text-anchor="start" x="374" y="-506.3" font-family="Times,serif" font-size="14.00">hasRepresentative()</text>
<text text-anchor="start" x="374" y="-491.3" font-family="Times,serif" font-size="14.00">getSubset()</text>
<text text-anchor="start" x="374" y="-476.3" font-family="Times,serif" font-size="14.00">getSize()</text>
<text text-anchor="start" x="374" y="-461.3" font-family="Times,serif" font-size="14.00">close()</text>
<text text-anchor="start" x="374" y="-446.3" font-family="Times,serif" font-size="14.00">loadAllProperties()</text>
<text text-anchor="start" x="374" y="-431.3" font-family="Times,serif" font-size="14.00">append()</text>
<text text-anchor="start" x="374" y="-416.3" font-family="Times,serif" font-size="14.00">hasProperty()</text>
<text text-anchor="start" x="374" y="-401.3" font-family="Times,serif" font-size="14.00">loadProperty()</text>
<text text-anchor="start" x="374" y="-386.3" font-family="Times,serif" font-size="14.00">setRepresentative()</text>
<text text-anchor="start" x="374" y="-371.3" font-family="Times,serif" font-size="14.00">write()</text>
<text text-anchor="start" x="374" y="-356.3" font-family="Times,serif" font-size="14.00">getFileName()</text>
<text text-anchor="start" x="374" y="-341.3" font-family="Times,serif" font-size="14.00">getIdSet()</text>
<text text-anchor="start" x="374" y="-326.3" font-family="Times,serif" font-size="14.00">update()</text>
<text text-anchor="start" x="374" y="-311.3" font-family="Times,serif" font-size="14.00">aggregate()</text>
<text text-anchor="start" x="374" y="-296.3" font-family="Times,serif" font-size="14.00">setClassesDict()</text>
<text text-anchor="start" x="374" y="-281.3" font-family="Times,serif" font-size="14.00">getProperty()</text>
<text text-anchor="start" x="374" y="-266.3" font-family="Times,serif" font-size="14.00">clear()</text>
<text text-anchor="start" x="374" y="-251.3" font-family="Times,serif" font-size="14.00">setMapperClass()</text>
<text text-anchor="start" x="374" y="-236.3" font-family="Times,serif" font-size="14.00">getFirstItem()</text>
<text text-anchor="start" x="374" y="-221.3" font-family="Times,serif" font-size="14.00">getPrefix()</text>
<text text-anchor="start" x="374" y="-206.3" font-family="Times,serif" font-size="14.00">getRepresentative()</text>
<text text-anchor="start" x="374" y="-191.3" font-family="Times,serif" font-size="14.00">iterItems()</text>
<text text-anchor="start" x="374" y="-176.3" font-family="Times,serif" font-size="14.00">equalItemAttributes()</text>
</g>
<!-- 5&#45;&gt;11 -->
<g id="edge24" class="edge"><title>5&#45;&gt;11</title>
<path fill="none" stroke="black" d="M449,-115.632C449,-127.859 449,-141.498 449,-155.965"/>
<polygon fill="black" stroke="black" points="449,-156.298 453,-162.298 449,-168.298 445,-162.298 449,-156.298"/>
<text text-anchor="middle" x="486" y="-138.3" font-family="Times,serif" font-size="14.00" fill="green">_mapperPath</text>
</g>
<!-- 6 -->
<g id="node5" class="node"><title>6</title>
<polygon fill="none" stroke="black" points="141,-1038.5 141,-1827.5 325,-1827.5 325,-1038.5 141,-1038.5"/>
<text text-anchor="middle" x="233" y="-1812.3" font-family="Times,serif" font-size="14.00">Object</text>
<polyline fill="none" stroke="black" points="141,-1804.5 325,-1804.5 "/>
<text text-anchor="start" x="149" y="-1789.3" font-family="Times,serif" font-size="14.00">set</text>
<polyline fill="none" stroke="black" points="141,-1781.5 325,-1781.5 "/>
<text text-anchor="start" x="149" y="-1766.3" font-family="Times,serif" font-size="14.00">set()</text>
<text text-anchor="start" x="149" y="-1751.3" font-family="Times,serif" font-size="14.00">getClass()</text>
<text text-anchor="start" x="149" y="-1736.3" font-family="Times,serif" font-size="14.00">getStore()</text>
<text text-anchor="start" x="149" y="-1721.3" font-family="Times,serif" font-size="14.00">copyObjId()</text>
<text text-anchor="start" x="149" y="-1706.3" font-family="Times,serif" font-size="14.00">getObjDict()</text>
<text text-anchor="start" x="149" y="-1691.3" font-family="Times,serif" font-size="14.00">printAll()</text>
<text text-anchor="start" x="149" y="-1676.3" font-family="Times,serif" font-size="14.00">getValuesFromDict()</text>
<text text-anchor="start" x="149" y="-1661.3" font-family="Times,serif" font-size="14.00">setObjCreation()</text>
<text text-anchor="start" x="149" y="-1646.3" font-family="Times,serif" font-size="14.00">setStore()</text>
<text text-anchor="start" x="149" y="-1631.3" font-family="Times,serif" font-size="14.00">setObjComment()</text>
<text text-anchor="start" x="149" y="-1616.3" font-family="Times,serif" font-size="14.00">hasObjId()</text>
<text text-anchor="start" x="149" y="-1601.3" font-family="Times,serif" font-size="14.00">setName()</text>
<text text-anchor="start" x="149" y="-1586.3" font-family="Times,serif" font-size="14.00">getLastName()</text>
<text text-anchor="start" x="149" y="-1571.3" font-family="Times,serif" font-size="14.00">getName()</text>
<text text-anchor="start" x="149" y="-1556.3" font-family="Times,serif" font-size="14.00">getNameId()</text>
<text text-anchor="start" x="149" y="-1541.3" font-family="Times,serif" font-size="14.00">hasValue()</text>
<text text-anchor="start" x="149" y="-1526.3" font-family="Times,serif" font-size="14.00">getValuesFromMappedDict()</text>
<text text-anchor="start" x="149" y="-1511.3" font-family="Times,serif" font-size="14.00">getObjValue()</text>
<text text-anchor="start" x="149" y="-1496.3" font-family="Times,serif" font-size="14.00">setObjLabel()</text>
<text text-anchor="start" x="149" y="-1481.3" font-family="Times,serif" font-size="14.00">getObjCreation()</text>
<text text-anchor="start" x="149" y="-1466.3" font-family="Times,serif" font-size="14.00">getObjLabel()</text>
<text text-anchor="start" x="149" y="-1451.3" font-family="Times,serif" font-size="14.00">getObjName()</text>
<text text-anchor="start" x="149" y="-1436.3" font-family="Times,serif" font-size="14.00">getObjComment()</text>
<text text-anchor="start" x="149" y="-1421.3" font-family="Times,serif" font-size="14.00">hasObjParentId()</text>
<text text-anchor="start" x="149" y="-1406.3" font-family="Times,serif" font-size="14.00">getDoc()</text>
<text text-anchor="start" x="149" y="-1391.3" font-family="Times,serif" font-size="14.00">setEnabled()</text>
<text text-anchor="start" x="149" y="-1376.3" font-family="Times,serif" font-size="14.00">getAttributeValue()</text>
<text text-anchor="start" x="149" y="-1361.3" font-family="Times,serif" font-size="14.00">trace()</text>
<text text-anchor="start" x="149" y="-1346.3" font-family="Times,serif" font-size="14.00">get()</text>
<text text-anchor="start" x="149" y="-1331.3" font-family="Times,serif" font-size="14.00">evalCondition()</text>
<text text-anchor="start" x="149" y="-1316.3" font-family="Times,serif" font-size="14.00">clone()</text>
<text text-anchor="start" x="149" y="-1301.3" font-family="Times,serif" font-size="14.00">getAttributesToStore()</text>
<text text-anchor="start" x="149" y="-1286.3" font-family="Times,serif" font-size="14.00">getObjParentId()</text>
<text text-anchor="start" x="149" y="-1271.3" font-family="Times,serif" font-size="14.00">hasAttribute()</text>
<text text-anchor="start" x="149" y="-1256.3" font-family="Times,serif" font-size="14.00">printObjDict()</text>
<text text-anchor="start" x="149" y="-1241.3" font-family="Times,serif" font-size="14.00">copy()</text>
<text text-anchor="start" x="149" y="-1226.3" font-family="Times,serif" font-size="14.00">getNestedValue()</text>
<text text-anchor="start" x="149" y="-1211.3" font-family="Times,serif" font-size="14.00">strId()</text>
<text text-anchor="start" x="149" y="-1196.3" font-family="Times,serif" font-size="14.00">equalAttributes()</text>
<text text-anchor="start" x="149" y="-1181.3" font-family="Times,serif" font-size="14.00">isPointer()</text>
<text text-anchor="start" x="149" y="-1166.3" font-family="Times,serif" font-size="14.00">cleanObjId()</text>
<text text-anchor="start" x="149" y="-1151.3" font-family="Times,serif" font-size="14.00">getAttributes()</text>
<text text-anchor="start" x="149" y="-1136.3" font-family="Times,serif" font-size="14.00">getObjId()</text>
<text text-anchor="start" x="149" y="-1121.3" font-family="Times,serif" font-size="14.00">getMappedDict()</text>
<text text-anchor="start" x="149" y="-1106.3" font-family="Times,serif" font-size="14.00">copyAttributes()</text>
<text text-anchor="start" x="149" y="-1091.3" font-family="Times,serif" font-size="14.00">setObjId()</text>
<text text-anchor="start" x="149" y="-1076.3" font-family="Times,serif" font-size="14.00">getClassName()</text>
<text text-anchor="start" x="149" y="-1061.3" font-family="Times,serif" font-size="14.00">setAttributeValue()</text>
<text text-anchor="start" x="149" y="-1046.3" font-family="Times,serif" font-size="14.00">isEnabled()</text>
</g>
<!-- 7&#45;&gt;6 -->
<g id="edge10" class="edge"><title>7&#45;&gt;6</title>
<path fill="none" stroke="black" d="M82.0333,-999.768C95.7402,-1039.01 116.198,-1097.58 137.662,-1159.04"/>
<polygon fill="none" stroke="black" points="134.373,-1160.24 140.975,-1168.52 140.981,-1157.93 134.373,-1160.24"/>
</g>
<!-- 8&#45;&gt;6 -->
<g id="edge12" class="edge"><title>8&#45;&gt;6</title>
<path fill="none" stroke="black" d="M283.31,-455.621C277.261,-573.016 264.807,-814.714 253.804,-1028.25"/>
<polygon fill="none" stroke="black" points="250.3,-1028.23 253.281,-1038.4 257.291,-1028.59 250.3,-1028.23"/>
</g>
<!-- 9 -->
<g id="node8" class="node"><title>9</title>
<polygon fill="none" stroke="black" points="317,-23 317,-93 381,-93 381,-23 317,-23"/>
<text text-anchor="middle" x="349" y="-77.8" font-family="Times,serif" font-size="14.00">Boolean</text>
<polyline fill="none" stroke="black" points="317,-70 381,-70 "/>
<polyline fill="none" stroke="black" points="317,-46 381,-46 "/>
<text text-anchor="middle" x="349" y="-30.8" font-family="Times,serif" font-size="14.00"> </text>
</g>
<!-- 9&#45;&gt;8 -->
<g id="edge14" class="edge"><title>9&#45;&gt;8</title>
<path fill="none" stroke="black" d="M342.424,-93.2609C333.042,-142.138 315.531,-233.361 302.695,-300.235"/>
<polygon fill="none" stroke="black" points="299.205,-299.851 300.757,-310.332 306.079,-301.171 299.205,-299.851"/>
</g>
<!-- 10 -->
<g id="node9" class="node"><title>10</title>
<polygon fill="none" stroke="black" points="516.5,-23 516.5,-93 599.5,-93 599.5,-23 516.5,-23"/>
<text text-anchor="middle" x="558" y="-77.8" font-family="Times,serif" font-size="14.00">Integer</text>
<polyline fill="none" stroke="black" points="516.5,-70 599.5,-70 "/>
<polyline fill="none" stroke="black" points="516.5,-46 599.5,-46 "/>
<text text-anchor="start" x="524.5" y="-30.8" font-family="Times,serif" font-size="14.00">increment()</text>
</g>
<!-- 10&#45;&gt;8 -->
<g id="edge16" class="edge"><title>10&#45;&gt;8</title>
<path fill="none" stroke="black" d="M532.92,-93.2738C525.384,-101.684 516.553,-109.988 507,-116 482.716,-131.283 472.186,-124.821 445,-134 425.137,-140.707 371.429,-152.791 357,-168 322.982,-203.855 305.492,-256.494 296.501,-300.592"/>
<polygon fill="none" stroke="black" points="293.059,-299.959 294.603,-310.44 299.932,-301.283 293.059,-299.959"/>
</g>
<!-- 10&#45;&gt;11 -->
<g id="edge26" class="edge"><title>10&#45;&gt;11</title>
<path fill="none" stroke="black" d="M546.438,-93.2609C540.689,-110.297 533.204,-132.478 524.936,-156.979"/>
<polygon fill="black" stroke="black" points="524.922,-157.019 526.794,-163.983 521.085,-168.389 519.214,-161.425 524.922,-157.019"/>
<text text-anchor="middle" x="546" y="-138.3" font-family="Times,serif" font-size="14.00" fill="green">_size</text>
</g>
<!-- 13 -->
<g id="node12" class="node"><title>13</title>
<polygon fill="none" stroke="black" points="343,-907.5 343,-992.5 455,-992.5 455,-907.5 343,-907.5"/>
<text text-anchor="middle" x="399" y="-977.3" font-family="Times,serif" font-size="14.00">OrderedObject</text>
<polyline fill="none" stroke="black" points="343,-969.5 455,-969.5 "/>
<polyline fill="none" stroke="black" points="343,-945.5 455,-945.5 "/>
<text text-anchor="start" x="351" y="-930.3" font-family="Times,serif" font-size="14.00">getAttributes()</text>
<text text-anchor="start" x="351" y="-915.3" font-family="Times,serif" font-size="14.00">deleteAttribute()</text>
</g>
<!-- 11&#45;&gt;13 -->
<g id="edge18" class="edge"><title>11&#45;&gt;13</title>
<path fill="none" stroke="black" d="M430.097,-597.602C420.47,-706.391 409.558,-829.698 403.559,-897.485"/>
<polygon fill="none" stroke="black" points="400.07,-897.206 402.675,-907.476 407.043,-897.823 400.07,-897.206"/>
</g>
<!-- 12&#45;&gt;6 -->
<g id="edge20" class="edge"><title>12&#45;&gt;6</title>
<path fill="none" stroke="black" d="M170.801,-881.093C175.695,-924.44 181.425,-975.194 187.391,-1028.04"/>
<polygon fill="none" stroke="black" points="183.948,-1028.73 188.548,-1038.28 190.904,-1027.95 183.948,-1028.73"/>
</g>
<!-- 13&#45;&gt;6 -->
<g id="edge22" class="edge"><title>13&#45;&gt;6</title>
<path fill="none" stroke="black" d="M384.559,-992.844C371.289,-1031.29 350.378,-1091.89 328.279,-1155.92"/>
<polygon fill="none" stroke="black" points="324.964,-1154.8 325.01,-1165.39 331.581,-1157.08 324.964,-1154.8"/>
</g>
</g>
</svg>
