<?xml version="1.0" encoding="UTF-8" standalone="no"?>
<!DOCTYPE svg PUBLIC "-//W3C//DTD SVG 1.1//EN"
 "http://www.w3.org/Graphics/SVG/1.1/DTD/svg11.dtd">
<!-- Generated by graphviz version 2.36.0 (20140111.2315)
 -->
<!-- Title: classes_protocol Pages: 1 -->
<svg width="3088pt" height="712pt"
 viewBox="0.00 0.00 3088.00 712.00" xmlns="http://www.w3.org/2000/svg" xmlns:xlink="http://www.w3.org/1999/xlink">
<g id="graph0" class="graph" transform="scale(1 1) rotate(0) translate(4 708)">
<title>classes_protocol</title>
<polygon fill="white" stroke="none" points="-4,4 -4,-708 3084,-708 3084,4 -4,4"/>
<!-- 0 -->
<g id="node1" class="node"><title>0</title>
<polygon fill="none" stroke="black" points="127,-297 127,-333 221,-333 221,-297 127,-297"/>
<text text-anchor="middle" x="174" y="-311.3" font-family="Times,serif" font-size="14.00">BatchProtocol</text>
</g>
<!-- 1 -->
<g id="node2" class="node"><title>1</title>
<polygon fill="none" stroke="black" points="1788.5,-371 1788.5,-407 1871.5,-407 1871.5,-371 1788.5,-371"/>
<text text-anchor="middle" x="1830" y="-385.3" font-family="Times,serif" font-size="14.00">EMProtocol</text>
</g>
<!-- 0&#45;&gt;1 -->
<g id="edge1" class="edge"><title>0&#45;&gt;1</title>
<path fill="none" stroke="black" d="M221.006,-318.727C285.647,-322.432 405.621,-329.151 508,-334 1002.36,-357.417 1601.02,-379.668 1778.23,-386.128"/>
<polygon fill="none" stroke="black" points="1778.19,-389.629 1788.31,-386.495 1778.45,-382.633 1778.19,-389.629"/>
</g>
<!-- 59 -->
<g id="node60" class="node"><title>59</title>
<polygon fill="none" stroke="black" points="1855,-445 1855,-481 1917,-481 1917,-445 1855,-445"/>
<text text-anchor="middle" x="1886" y="-459.3" font-family="Times,serif" font-size="14.00">Protocol</text>
</g>
<!-- 1&#45;&gt;59 -->
<g id="edge2" class="edge"><title>1&#45;&gt;59</title>
<path fill="none" stroke="black" d="M1843.27,-407.063C1850.08,-415.811 1858.5,-426.646 1866.07,-436.374"/>
<polygon fill="none" stroke="black" points="1863.53,-438.815 1872.44,-444.559 1869.06,-434.517 1863.53,-438.815"/>
</g>
<!-- 2 -->
<g id="node3" class="node"><title>2</title>
<polygon fill="none" stroke="black" points="1859,-667 1859,-703 1913,-703 1913,-667 1859,-667"/>
<text text-anchor="middle" x="1886" y="-681.3" font-family="Times,serif" font-size="14.00">Object</text>
</g>
<!-- 3 -->
<g id="node4" class="node"><title>3</title>
<polygon fill="none" stroke="black" points="1837.5,-593 1837.5,-629 1934.5,-629 1934.5,-593 1837.5,-593"/>
<text text-anchor="middle" x="1886" y="-607.3" font-family="Times,serif" font-size="14.00">OrderedObject</text>
</g>
<!-- 3&#45;&gt;2 -->
<g id="edge3" class="edge"><title>3&#45;&gt;2</title>
<path fill="none" stroke="black" d="M1886,-629.063C1886,-637.193 1886,-647.124 1886,-656.295"/>
<polygon fill="none" stroke="black" points="1882.5,-656.559 1886,-666.559 1889.5,-656.559 1882.5,-656.559"/>
</g>
<!-- 4 -->
<g id="node5" class="node"><title>4</title>
<polygon fill="none" stroke="black" points="517,-297 517,-333 573,-333 573,-297 517,-297"/>
<text text-anchor="middle" x="545" y="-311.3" font-family="Times,serif" font-size="14.00">Prot2D</text>
</g>
<!-- 4&#45;&gt;1 -->
<g id="edge4" class="edge"><title>4&#45;&gt;1</title>
<path fill="none" stroke="black" d="M573.034,-317.571C736.077,-326.706 1562.41,-373.007 1778.33,-385.105"/>
<polygon fill="none" stroke="black" points="1778.26,-388.606 1788.44,-385.671 1778.65,-381.617 1778.26,-388.606"/>
</g>
<!-- 5 -->
<g id="node6" class="node"><title>5</title>
<polygon fill="none" stroke="black" points="1147,-297 1147,-333 1203,-333 1203,-297 1147,-297"/>
<text text-anchor="middle" x="1175" y="-311.3" font-family="Times,serif" font-size="14.00">Prot3D</text>
</g>
<!-- 5&#45;&gt;1 -->
<g id="edge5" class="edge"><title>5&#45;&gt;1</title>
<path fill="none" stroke="black" d="M1203.14,-319.094C1303.75,-330.153 1646.57,-367.837 1778.07,-382.292"/>
<polygon fill="none" stroke="black" points="1777.96,-385.8 1788.28,-383.414 1778.72,-378.842 1777.96,-385.8"/>
</g>
<!-- 6 -->
<g id="node7" class="node"><title>6</title>
<polygon fill="none" stroke="black" points="502,-223 502,-259 588,-259 588,-223 502,-223"/>
<text text-anchor="middle" x="545" y="-237.3" font-family="Times,serif" font-size="14.00">ProtAlign2D</text>
</g>
<!-- 6&#45;&gt;4 -->
<g id="edge6" class="edge"><title>6&#45;&gt;4</title>
<path fill="none" stroke="black" d="M545,-259.063C545,-267.193 545,-277.124 545,-286.295"/>
<polygon fill="none" stroke="black" points="541.5,-286.559 545,-296.559 548.5,-286.559 541.5,-286.559"/>
</g>
<!-- 7 -->
<g id="node8" class="node"><title>7</title>
<polygon fill="none" stroke="black" points="1102,-149 1102,-185 1216,-185 1216,-149 1102,-149"/>
<text text-anchor="middle" x="1159" y="-163.3" font-family="Times,serif" font-size="14.00">ProtAlignVolume</text>
</g>
<!-- 48 -->
<g id="node49" class="node"><title>48</title>
<polygon fill="none" stroke="black" points="1101.5,-223 1101.5,-259 1248.5,-259 1248.5,-223 1101.5,-223"/>
<text text-anchor="middle" x="1175" y="-237.3" font-family="Times,serif" font-size="14.00">ProtPreprocessVolumes</text>
</g>
<!-- 7&#45;&gt;48 -->
<g id="edge7" class="edge"><title>7&#45;&gt;48</title>
<path fill="none" stroke="black" d="M1162.79,-185.063C1164.62,-193.281 1166.85,-203.34 1168.91,-212.594"/>
<polygon fill="none" stroke="black" points="1165.54,-213.557 1171.12,-222.559 1172.37,-212.038 1165.54,-213.557"/>
</g>
<!-- 8 -->
<g id="node9" class="node"><title>8</title>
<polygon fill="none" stroke="black" points="493.5,-149 493.5,-185 628.5,-185 628.5,-149 493.5,-149"/>
<text text-anchor="middle" x="561" y="-163.3" font-family="Times,serif" font-size="14.00">ProtAlignmentAssign</text>
</g>
<!-- 8&#45;&gt;6 -->
<g id="edge8" class="edge"><title>8&#45;&gt;6</title>
<path fill="none" stroke="black" d="M557.208,-185.063C555.382,-193.281 553.147,-203.34 551.09,-212.594"/>
<polygon fill="none" stroke="black" points="547.628,-212.038 548.876,-222.559 554.462,-213.557 547.628,-212.038"/>
</g>
<!-- 9 -->
<g id="node10" class="node"><title>9</title>
<polygon fill="none" stroke="black" points="606.5,-223 606.5,-259 709.5,-259 709.5,-223 606.5,-223"/>
<text text-anchor="middle" x="658" y="-237.3" font-family="Times,serif" font-size="14.00">ProtAnalysis2D</text>
</g>
<!-- 9&#45;&gt;4 -->
<g id="edge9" class="edge"><title>9&#45;&gt;4</title>
<path fill="none" stroke="black" d="M631.221,-259.063C616.132,-268.677 597.09,-280.81 580.742,-291.226"/>
<polygon fill="none" stroke="black" points="578.532,-288.485 571.979,-296.81 582.293,-294.388 578.532,-288.485"/>
</g>
<!-- 10 -->
<g id="node11" class="node"><title>10</title>
<polygon fill="none" stroke="black" points="727.5,-223 727.5,-259 830.5,-259 830.5,-223 727.5,-223"/>
<text text-anchor="middle" x="779" y="-237.3" font-family="Times,serif" font-size="14.00">ProtAnalysis3D</text>
</g>
<!-- 10&#45;&gt;5 -->
<g id="edge10" class="edge"><title>10&#45;&gt;5</title>
<path fill="none" stroke="black" d="M830.796,-257.771C833.9,-258.565 836.985,-259.315 840,-260 946.438,-284.18 1074.29,-301.645 1136.8,-309.45"/>
<polygon fill="none" stroke="black" points="1136.62,-312.954 1146.97,-310.707 1137.48,-306.007 1136.62,-312.954"/>
</g>
<!-- 11 -->
<g id="node12" class="node"><title>11</title>
<polygon fill="none" stroke="black" points="2116.5,-149 2116.5,-185 2217.5,-185 2217.5,-149 2116.5,-149"/>
<text text-anchor="middle" x="2167" y="-163.3" font-family="Times,serif" font-size="14.00">ProtCTFAssign</text>
</g>
<!-- 12 -->
<g id="node13" class="node"><title>12</title>
<polygon fill="none" stroke="black" points="2048,-223 2048,-259 2182,-259 2182,-223 2048,-223"/>
<text text-anchor="middle" x="2115" y="-237.3" font-family="Times,serif" font-size="14.00">ProtCTFMicrographs</text>
</g>
<!-- 11&#45;&gt;12 -->
<g id="edge11" class="edge"><title>11&#45;&gt;12</title>
<path fill="none" stroke="black" d="M2154.68,-185.063C2148.36,-193.811 2140.53,-204.646 2133.51,-214.374"/>
<polygon fill="none" stroke="black" points="2130.61,-212.403 2127.6,-222.559 2136.29,-216.502 2130.61,-212.403"/>
</g>
<!-- 42 -->
<g id="node43" class="node"><title>42</title>
<polygon fill="none" stroke="black" points="2060.5,-297 2060.5,-333 2169.5,-333 2169.5,-297 2060.5,-297"/>
<text text-anchor="middle" x="2115" y="-311.3" font-family="Times,serif" font-size="14.00">ProtMicrographs</text>
</g>
<!-- 12&#45;&gt;42 -->
<g id="edge12" class="edge"><title>12&#45;&gt;42</title>
<path fill="none" stroke="black" d="M2115,-259.063C2115,-267.193 2115,-277.124 2115,-286.295"/>
<polygon fill="none" stroke="black" points="2111.5,-286.559 2115,-296.559 2118.5,-286.559 2111.5,-286.559"/>
</g>
<!-- 13 -->
<g id="node14" class="node"><title>13</title>
<polygon fill="none" stroke="black" points="338.5,-149 338.5,-185 475.5,-185 475.5,-149 338.5,-149"/>
<text text-anchor="middle" x="407" y="-163.3" font-family="Times,serif" font-size="14.00">ProtClassesConsensus</text>
</g>
<!-- 13&#45;&gt;6 -->
<g id="edge13" class="edge"><title>13&#45;&gt;6</title>
<path fill="none" stroke="black" d="M439.704,-185.063C458.643,-194.944 482.681,-207.486 503.006,-218.09"/>
<polygon fill="none" stroke="black" points="501.568,-221.287 512.052,-222.81 504.806,-215.081 501.568,-221.287"/>
</g>
<!-- 14 -->
<g id="node15" class="node"><title>14</title>
<polygon fill="none" stroke="black" points="244,-223 244,-259 344,-259 344,-223 244,-223"/>
<text text-anchor="middle" x="294" y="-237.3" font-family="Times,serif" font-size="14.00">ProtClassify2D</text>
</g>
<!-- 14&#45;&gt;4 -->
<g id="edge14" class="edge"><title>14&#45;&gt;4</title>
<path fill="none" stroke="black" d="M344.19,-257.394C347.169,-258.282 350.123,-259.157 353,-260 406.38,-275.647 468.371,-292.921 507.147,-303.618"/>
<polygon fill="none" stroke="black" points="506.393,-307.04 516.963,-306.322 508.252,-300.292 506.393,-307.04"/>
</g>
<!-- 15 -->
<g id="node16" class="node"><title>15</title>
<polygon fill="none" stroke="black" points="849,-223 849,-259 949,-259 949,-223 849,-223"/>
<text text-anchor="middle" x="899" y="-237.3" font-family="Times,serif" font-size="14.00">ProtClassify3D</text>
</g>
<!-- 15&#45;&gt;5 -->
<g id="edge15" class="edge"><title>15&#45;&gt;5</title>
<path fill="none" stroke="black" d="M949.16,-257.498C952.147,-258.36 955.11,-259.2 958,-260 1020.35,-277.256 1093.48,-294.928 1136.93,-305.162"/>
<polygon fill="none" stroke="black" points="1136.25,-308.598 1146.79,-307.476 1137.85,-301.784 1136.25,-308.598"/>
</g>
<!-- 16 -->
<g id="node17" class="node"><title>16</title>
<polygon fill="none" stroke="black" points="-0.5,-223 -0.5,-259 104.5,-259 104.5,-223 -0.5,-223"/>
<text text-anchor="middle" x="52" y="-237.3" font-family="Times,serif" font-size="14.00">ProtCreateMask</text>
</g>
<!-- 16&#45;&gt;0 -->
<g id="edge16" class="edge"><title>16&#45;&gt;0</title>
<path fill="none" stroke="black" d="M80.9123,-259.063C97.3533,-268.766 118.142,-281.034 135.901,-291.515"/>
<polygon fill="none" stroke="black" points="134.481,-294.742 144.872,-296.81 138.039,-288.713 134.481,-294.742"/>
</g>
<!-- 17 -->
<g id="node18" class="node"><title>17</title>
<polygon fill="none" stroke="black" points="362,-223 362,-259 484,-259 484,-223 362,-223"/>
<text text-anchor="middle" x="423" y="-237.3" font-family="Times,serif" font-size="14.00">ProtCreateMask2D</text>
</g>
<!-- 17&#45;&gt;4 -->
<g id="edge17" class="edge"><title>17&#45;&gt;4</title>
<path fill="none" stroke="black" d="M451.912,-259.063C468.593,-268.908 489.75,-281.393 507.677,-291.973"/>
<polygon fill="none" stroke="black" points="506.325,-295.24 516.716,-297.308 509.883,-289.211 506.325,-295.24"/>
</g>
<!-- 18 -->
<g id="node19" class="node"><title>18</title>
<polygon fill="none" stroke="black" points="1234,-149 1234,-185 1356,-185 1356,-149 1234,-149"/>
<text text-anchor="middle" x="1295" y="-163.3" font-family="Times,serif" font-size="14.00">ProtCreateMask3D</text>
</g>
<!-- 18&#45;&gt;48 -->
<g id="edge18" class="edge"><title>18&#45;&gt;48</title>
<path fill="none" stroke="black" d="M1266.56,-185.063C1250.39,-194.766 1229.94,-207.034 1212.47,-217.515"/>
<polygon fill="none" stroke="black" points="1210.42,-214.664 1203.65,-222.81 1214.03,-220.666 1210.42,-214.664"/>
</g>
<!-- 19 -->
<g id="node20" class="node"><title>19</title>
<polygon fill="none" stroke="black" points="1796,-1 1796,-37 1924,-37 1924,-1 1796,-1"/>
<text text-anchor="middle" x="1860" y="-15.3" font-family="Times,serif" font-size="14.00">ProtEvenClassify2D</text>
</g>
<!-- 20 -->
<g id="node21" class="node"><title>20</title>
<polygon fill="none" stroke="black" points="2376.5,-149 2376.5,-185 2493.5,-185 2493.5,-149 2376.5,-149"/>
<text text-anchor="middle" x="2435" y="-163.3" font-family="Times,serif" font-size="14.00">ProtExtractCoords</text>
</g>
<!-- 45 -->
<g id="node46" class="node"><title>45</title>
<polygon fill="none" stroke="black" points="2386,-223 2386,-259 2508,-259 2508,-223 2386,-223"/>
<text text-anchor="middle" x="2447" y="-237.3" font-family="Times,serif" font-size="14.00">ProtParticlePicking</text>
</g>
<!-- 20&#45;&gt;45 -->
<g id="edge19" class="edge"><title>20&#45;&gt;45</title>
<path fill="none" stroke="black" d="M2437.84,-185.063C2439.21,-193.281 2440.89,-203.34 2442.43,-212.594"/>
<polygon fill="none" stroke="black" points="2439,-213.271 2444.09,-222.559 2445.9,-212.12 2439,-213.271"/>
</g>
<!-- 21 -->
<g id="node22" class="node"><title>21</title>
<polygon fill="none" stroke="black" points="2354.5,-75 2354.5,-111 2515.5,-111 2515.5,-75 2354.5,-75"/>
<text text-anchor="middle" x="2435" y="-89.3" font-family="Times,serif" font-size="14.00">ProtExtractMovieParticles</text>
</g>
<!-- 22 -->
<g id="node23" class="node"><title>22</title>
<polygon fill="none" stroke="black" points="2511.5,-149 2511.5,-185 2636.5,-185 2636.5,-149 2511.5,-149"/>
<text text-anchor="middle" x="2574" y="-163.3" font-family="Times,serif" font-size="14.00">ProtExtractParticles</text>
</g>
<!-- 21&#45;&gt;22 -->
<g id="edge20" class="edge"><title>21&#45;&gt;22</title>
<path fill="none" stroke="black" d="M2467.94,-111.063C2487.02,-120.944 2511.23,-133.486 2531.7,-144.09"/>
<polygon fill="none" stroke="black" points="2530.32,-147.318 2540.81,-148.81 2533.54,-141.103 2530.32,-147.318"/>
</g>
<!-- 49 -->
<g id="node50" class="node"><title>49</title>
<polygon fill="none" stroke="black" points="2236,-149 2236,-185 2358,-185 2358,-149 2236,-149"/>
<text text-anchor="middle" x="2297" y="-163.3" font-family="Times,serif" font-size="14.00">ProtProcessMovies</text>
</g>
<!-- 21&#45;&gt;49 -->
<g id="edge21" class="edge"><title>21&#45;&gt;49</title>
<path fill="none" stroke="black" d="M2402.3,-111.063C2383.36,-120.944 2359.32,-133.486 2338.99,-144.09"/>
<polygon fill="none" stroke="black" points="2337.19,-141.081 2329.95,-148.81 2340.43,-147.287 2337.19,-141.081"/>
</g>
<!-- 46 -->
<g id="node47" class="node"><title>46</title>
<polygon fill="none" stroke="black" points="2455,-297 2455,-333 2541,-333 2541,-297 2455,-297"/>
<text text-anchor="middle" x="2498" y="-311.3" font-family="Times,serif" font-size="14.00">ProtParticles</text>
</g>
<!-- 22&#45;&gt;46 -->
<g id="edge22" class="edge"><title>22&#45;&gt;46</title>
<path fill="none" stroke="black" d="M2565.13,-185.034C2551.99,-210.283 2527.22,-257.858 2511.73,-287.632"/>
<polygon fill="none" stroke="black" points="2508.56,-286.136 2507.05,-296.622 2514.77,-289.368 2508.56,-286.136"/>
</g>
<!-- 23 -->
<g id="node24" class="node"><title>23</title>
<polygon fill="none" stroke="black" points="2654.5,-149 2654.5,-185 2769.5,-185 2769.5,-149 2654.5,-149"/>
<text text-anchor="middle" x="2712" y="-163.3" font-family="Times,serif" font-size="14.00">ProtFilterParticles</text>
</g>
<!-- 50 -->
<g id="node51" class="node"><title>50</title>
<polygon fill="none" stroke="black" points="2648.5,-223 2648.5,-259 2775.5,-259 2775.5,-223 2648.5,-223"/>
<text text-anchor="middle" x="2712" y="-237.3" font-family="Times,serif" font-size="14.00">ProtProcessParticles</text>
</g>
<!-- 23&#45;&gt;50 -->
<g id="edge23" class="edge"><title>23&#45;&gt;50</title>
<path fill="none" stroke="black" d="M2712,-185.063C2712,-193.193 2712,-203.124 2712,-212.295"/>
<polygon fill="none" stroke="black" points="2708.5,-212.559 2712,-222.559 2715.5,-212.559 2708.5,-212.559"/>
</g>
<!-- 24 -->
<g id="node25" class="node"><title>24</title>
<polygon fill="none" stroke="black" points="679,-149 679,-185 797,-185 797,-149 679,-149"/>
<text text-anchor="middle" x="738" y="-163.3" font-family="Times,serif" font-size="14.00">ProtFilterVolumes</text>
</g>
<!-- 24&#45;&gt;48 -->
<g id="edge24" class="edge"><title>24&#45;&gt;48</title>
<path fill="none" stroke="black" d="M797.231,-184.176C800.188,-184.827 803.123,-185.44 806,-186 931.322,-210.389 965.132,-200.605 1091,-222 1091.11,-222.018 1091.21,-222.036 1091.32,-222.054"/>
<polygon fill="none" stroke="black" points="1090.86,-225.527 1101.32,-223.838 1092.09,-218.636 1090.86,-225.527"/>
</g>
<!-- 25 -->
<g id="node26" class="node"><title>25</title>
<polygon fill="none" stroke="black" points="1791.5,-297 1791.5,-333 1868.5,-333 1868.5,-297 1791.5,-297"/>
<text text-anchor="middle" x="1830" y="-311.3" font-family="Times,serif" font-size="14.00">ProtImport</text>
</g>
<!-- 25&#45;&gt;1 -->
<g id="edge25" class="edge"><title>25&#45;&gt;1</title>
<path fill="none" stroke="black" d="M1830,-333.063C1830,-341.193 1830,-351.124 1830,-360.295"/>
<polygon fill="none" stroke="black" points="1826.5,-360.559 1830,-370.559 1833.5,-360.559 1826.5,-360.559"/>
</g>
<!-- 26 -->
<g id="node27" class="node"><title>26</title>
<polygon fill="none" stroke="black" points="1368,-1 1368,-37 1496,-37 1496,-1 1368,-1"/>
<text text-anchor="middle" x="1432" y="-15.3" font-family="Times,serif" font-size="14.00">ProtImportAverages</text>
</g>
<!-- 36 -->
<g id="node37" class="node"><title>36</title>
<polygon fill="none" stroke="black" points="1370.5,-75 1370.5,-111 1493.5,-111 1493.5,-75 1370.5,-75"/>
<text text-anchor="middle" x="1432" y="-89.3" font-family="Times,serif" font-size="14.00">ProtImportParticles</text>
</g>
<!-- 26&#45;&gt;36 -->
<g id="edge26" class="edge"><title>26&#45;&gt;36</title>
<path fill="none" stroke="black" d="M1432,-37.063C1432,-45.1928 1432,-55.1239 1432,-64.2953"/>
<polygon fill="none" stroke="black" points="1428.5,-64.5593 1432,-74.5593 1435.5,-64.5594 1428.5,-64.5593"/>
</g>
<!-- 27 -->
<g id="node28" class="node"><title>27</title>
<polygon fill="none" stroke="black" points="1836.5,-149 1836.5,-185 1937.5,-185 1937.5,-149 1836.5,-149"/>
<text text-anchor="middle" x="1887" y="-163.3" font-family="Times,serif" font-size="14.00">ProtImportCTF</text>
</g>
<!-- 29 -->
<g id="node30" class="node"><title>29</title>
<polygon fill="none" stroke="black" points="1717.5,-223 1717.5,-259 1820.5,-259 1820.5,-223 1717.5,-223"/>
<text text-anchor="middle" x="1769" y="-237.3" font-family="Times,serif" font-size="14.00">ProtImportFiles</text>
</g>
<!-- 27&#45;&gt;29 -->
<g id="edge27" class="edge"><title>27&#45;&gt;29</title>
<path fill="none" stroke="black" d="M1859.04,-185.063C1843.13,-194.766 1823.03,-207.034 1805.85,-217.515"/>
<polygon fill="none" stroke="black" points="1803.89,-214.614 1797.17,-222.81 1807.53,-220.589 1803.89,-214.614"/>
</g>
<!-- 28 -->
<g id="node29" class="node"><title>28</title>
<polygon fill="none" stroke="black" points="1956,-149 1956,-185 2098,-185 2098,-149 1956,-149"/>
<text text-anchor="middle" x="2027" y="-163.3" font-family="Times,serif" font-size="14.00">ProtImportCoordinates</text>
</g>
<!-- 28&#45;&gt;29 -->
<g id="edge28" class="edge"><title>28&#45;&gt;29</title>
<path fill="none" stroke="black" d="M1962.68,-185.101C1926.32,-194.873 1879.78,-207.547 1830.56,-221.58"/>
<polygon fill="none" stroke="black" points="1829.34,-218.29 1820.69,-224.404 1831.26,-225.02 1829.34,-218.29"/>
</g>
<!-- 28&#45;&gt;45 -->
<g id="edge29" class="edge"><title>28&#45;&gt;45</title>
<path fill="none" stroke="black" d="M2098.03,-184.324C2101.06,-184.911 2104.06,-185.473 2107,-186 2225.73,-207.26 2257.56,-199.141 2376,-222 2376.1,-222.02 2376.2,-222.039 2376.3,-222.059"/>
<polygon fill="none" stroke="black" points="2375.41,-225.448 2385.91,-224.037 2376.82,-218.592 2375.41,-225.448"/>
</g>
<!-- 29&#45;&gt;25 -->
<g id="edge30" class="edge"><title>29&#45;&gt;25</title>
<path fill="none" stroke="black" d="M1783.46,-259.063C1790.94,-267.9 1800.23,-278.865 1808.54,-288.669"/>
<polygon fill="none" stroke="black" points="1806.09,-291.192 1815.22,-296.559 1811.43,-286.667 1806.09,-291.192"/>
</g>
<!-- 30 -->
<g id="node31" class="node"><title>30</title>
<polygon fill="none" stroke="black" points="1374,-149 1374,-185 1490,-185 1490,-149 1374,-149"/>
<text text-anchor="middle" x="1432" y="-163.3" font-family="Times,serif" font-size="14.00">ProtImportImages</text>
</g>
<!-- 30&#45;&gt;29 -->
<g id="edge31" class="edge"><title>30&#45;&gt;29</title>
<path fill="none" stroke="black" d="M1490.05,-183.842C1493.07,-184.59 1496.07,-185.314 1499,-186 1570.09,-202.641 1652.47,-218.648 1707.36,-228.853"/>
<polygon fill="none" stroke="black" points="1706.81,-232.311 1717.28,-230.69 1708.08,-225.428 1706.81,-232.311"/>
</g>
<!-- 31 -->
<g id="node32" class="node"><title>31</title>
<polygon fill="none" stroke="black" points="1838.5,-223 1838.5,-259 1945.5,-259 1945.5,-223 1838.5,-223"/>
<text text-anchor="middle" x="1892" y="-237.3" font-family="Times,serif" font-size="14.00">ProtImportMask</text>
</g>
<!-- 31&#45;&gt;25 -->
<g id="edge32" class="edge"><title>31&#45;&gt;25</title>
<path fill="none" stroke="black" d="M1877.31,-259.063C1869.62,-267.988 1860.07,-279.084 1851.56,-288.963"/>
<polygon fill="none" stroke="black" points="1848.89,-286.698 1845.02,-296.559 1854.2,-291.265 1848.89,-286.698"/>
</g>
<!-- 32 -->
<g id="node33" class="node"><title>32</title>
<polygon fill="none" stroke="black" points="1227.5,-75 1227.5,-111 1352.5,-111 1352.5,-75 1227.5,-75"/>
<text text-anchor="middle" x="1290" y="-89.3" font-family="Times,serif" font-size="14.00">ProtImportMicBase</text>
</g>
<!-- 32&#45;&gt;30 -->
<g id="edge33" class="edge"><title>32&#45;&gt;30</title>
<path fill="none" stroke="black" d="M1323.65,-111.063C1343.23,-120.988 1368.1,-133.599 1389.07,-144.234"/>
<polygon fill="none" stroke="black" points="1387.6,-147.409 1398.1,-148.81 1390.76,-141.166 1387.6,-147.409"/>
</g>
<!-- 33 -->
<g id="node34" class="node"><title>33</title>
<polygon fill="none" stroke="black" points="1068,-1 1068,-37 1214,-37 1214,-1 1068,-1"/>
<text text-anchor="middle" x="1141" y="-15.3" font-family="Times,serif" font-size="14.00">ProtImportMicrographs</text>
</g>
<!-- 33&#45;&gt;32 -->
<g id="edge34" class="edge"><title>33&#45;&gt;32</title>
<path fill="none" stroke="black" d="M1176.31,-37.063C1197.02,-47.0693 1223.37,-59.8044 1245.49,-70.4932"/>
<polygon fill="none" stroke="black" points="1244.16,-73.7353 1254.68,-74.9349 1247.2,-67.4326 1244.16,-73.7353"/>
</g>
<!-- 34 -->
<g id="node35" class="node"><title>34</title>
<polygon fill="none" stroke="black" points="1508.5,-149 1508.5,-185 1701.5,-185 1701.5,-149 1508.5,-149"/>
<text text-anchor="middle" x="1605" y="-163.3" font-family="Times,serif" font-size="14.00">ProtImportMicrographsTiltPairs</text>
</g>
<!-- 34&#45;&gt;29 -->
<g id="edge35" class="edge"><title>34&#45;&gt;29</title>
<path fill="none" stroke="black" d="M1643.87,-185.063C1666.86,-195.159 1696.18,-208.032 1720.66,-218.779"/>
<polygon fill="none" stroke="black" points="1719.57,-222.12 1730.13,-222.935 1722.38,-215.71 1719.57,-222.12"/>
</g>
<!-- 35 -->
<g id="node36" class="node"><title>35</title>
<polygon fill="none" stroke="black" points="1232,-1 1232,-37 1350,-37 1350,-1 1232,-1"/>
<text text-anchor="middle" x="1291" y="-15.3" font-family="Times,serif" font-size="14.00">ProtImportMovies</text>
</g>
<!-- 35&#45;&gt;32 -->
<g id="edge36" class="edge"><title>35&#45;&gt;32</title>
<path fill="none" stroke="black" d="M1290.76,-37.063C1290.65,-45.1928 1290.51,-55.1239 1290.38,-64.2953"/>
<polygon fill="none" stroke="black" points="1286.88,-64.5117 1290.24,-74.5593 1293.88,-64.6089 1286.88,-64.5117"/>
</g>
<!-- 36&#45;&gt;30 -->
<g id="edge37" class="edge"><title>36&#45;&gt;30</title>
<path fill="none" stroke="black" d="M1432,-111.063C1432,-119.193 1432,-129.124 1432,-138.295"/>
<polygon fill="none" stroke="black" points="1428.5,-138.559 1432,-148.559 1435.5,-138.559 1428.5,-138.559"/>
</g>
<!-- 37 -->
<g id="node38" class="node"><title>37</title>
<polygon fill="none" stroke="black" points="1720,-149 1720,-185 1818,-185 1818,-149 1720,-149"/>
<text text-anchor="middle" x="1769" y="-163.3" font-family="Times,serif" font-size="14.00">ProtImportPdb</text>
</g>
<!-- 37&#45;&gt;29 -->
<g id="edge38" class="edge"><title>37&#45;&gt;29</title>
<path fill="none" stroke="black" d="M1769,-185.063C1769,-193.193 1769,-203.124 1769,-212.295"/>
<polygon fill="none" stroke="black" points="1765.5,-212.559 1769,-222.559 1772.5,-212.559 1765.5,-212.559"/>
</g>
<!-- 38 -->
<g id="node39" class="node"><title>38</title>
<polygon fill="none" stroke="black" points="1512,-75 1512,-111 1638,-111 1638,-75 1512,-75"/>
<text text-anchor="middle" x="1575" y="-89.3" font-family="Times,serif" font-size="14.00">ProtImportVolumes</text>
</g>
<!-- 38&#45;&gt;30 -->
<g id="edge39" class="edge"><title>38&#45;&gt;30</title>
<path fill="none" stroke="black" d="M1541.11,-111.063C1521.4,-120.988 1496.35,-133.599 1475.23,-144.234"/>
<polygon fill="none" stroke="black" points="1473.5,-141.187 1466.14,-148.81 1476.65,-147.439 1473.5,-141.187"/>
</g>
<!-- 39 -->
<g id="node40" class="node"><title>39</title>
<polygon fill="none" stroke="black" points="967,-223 967,-259 1083,-259 1083,-223 967,-223"/>
<text text-anchor="middle" x="1025" y="-237.3" font-family="Times,serif" font-size="14.00">ProtInitialVolume</text>
</g>
<!-- 39&#45;&gt;5 -->
<g id="edge40" class="edge"><title>39&#45;&gt;5</title>
<path fill="none" stroke="black" d="M1060.55,-259.063C1083.7,-270.174 1113.85,-284.649 1137.4,-295.952"/>
<polygon fill="none" stroke="black" points="1136.19,-299.254 1146.72,-300.426 1139.22,-292.943 1136.19,-299.254"/>
</g>
<!-- 40 -->
<g id="node41" class="node"><title>40</title>
<polygon fill="none" stroke="black" points="2788,-149 2788,-185 2904,-185 2904,-149 2788,-149"/>
<text text-anchor="middle" x="2846" y="-163.3" font-family="Times,serif" font-size="14.00">ProtMaskParticles</text>
</g>
<!-- 40&#45;&gt;50 -->
<g id="edge41" class="edge"><title>40&#45;&gt;50</title>
<path fill="none" stroke="black" d="M2814.24,-185.063C2795.94,-194.899 2772.72,-207.373 2753.04,-217.947"/>
<polygon fill="none" stroke="black" points="2751.14,-214.994 2743.99,-222.81 2754.46,-221.16 2751.14,-214.994"/>
</g>
<!-- 41 -->
<g id="node42" class="node"><title>41</title>
<polygon fill="none" stroke="black" points="815.5,-149 815.5,-185 934.5,-185 934.5,-149 815.5,-149"/>
<text text-anchor="middle" x="875" y="-163.3" font-family="Times,serif" font-size="14.00">ProtMaskVolumes</text>
</g>
<!-- 41&#45;&gt;48 -->
<g id="edge42" class="edge"><title>41&#45;&gt;48</title>
<path fill="none" stroke="black" d="M934.678,-183.906C937.489,-184.621 940.274,-185.322 943,-186 992.156,-198.224 1047.38,-211.112 1091.62,-221.231"/>
<polygon fill="none" stroke="black" points="1090.93,-224.664 1101.46,-223.478 1092.49,-217.84 1090.93,-224.664"/>
</g>
<!-- 42&#45;&gt;1 -->
<g id="edge43" class="edge"><title>42&#45;&gt;1</title>
<path fill="none" stroke="black" d="M2060.18,-326.83C2014.7,-336.224 1948.24,-350.903 1881.47,-370.026"/>
<polygon fill="none" stroke="black" points="1880.26,-366.735 1871.62,-372.88 1882.2,-373.459 1880.26,-366.735"/>
</g>
<!-- 43 -->
<g id="node44" class="node"><title>43</title>
<polygon fill="none" stroke="black" points="2922,-149 2922,-185 3050,-185 3050,-149 2922,-149"/>
<text text-anchor="middle" x="2986" y="-163.3" font-family="Times,serif" font-size="14.00">ProtOperateParticles</text>
</g>
<!-- 43&#45;&gt;50 -->
<g id="edge44" class="edge"><title>43&#45;&gt;50</title>
<path fill="none" stroke="black" d="M2921.76,-184.881C2880.96,-195.601 2828.04,-209.507 2785.56,-220.669"/>
<polygon fill="none" stroke="black" points="2784.62,-217.298 2775.84,-223.225 2786.4,-224.069 2784.62,-217.298"/>
</g>
<!-- 44 -->
<g id="node45" class="node"><title>44</title>
<polygon fill="none" stroke="black" points="952.5,-149 952.5,-185 1083.5,-185 1083.5,-149 952.5,-149"/>
<text text-anchor="middle" x="1018" y="-163.3" font-family="Times,serif" font-size="14.00">ProtOperateVolumes</text>
</g>
<!-- 44&#45;&gt;48 -->
<g id="edge45" class="edge"><title>44&#45;&gt;48</title>
<path fill="none" stroke="black" d="M1055.21,-185.063C1077.12,-195.114 1105.04,-207.918 1128.42,-218.636"/>
<polygon fill="none" stroke="black" points="1127.24,-221.948 1137.79,-222.935 1130.16,-215.585 1127.24,-221.948"/>
</g>
<!-- 45&#45;&gt;46 -->
<g id="edge46" class="edge"><title>45&#45;&gt;46</title>
<path fill="none" stroke="black" d="M2459.09,-259.063C2465.28,-267.811 2472.96,-278.646 2479.85,-288.374"/>
<polygon fill="none" stroke="black" points="2477.01,-290.422 2485.65,-296.559 2482.72,-286.376 2477.01,-290.422"/>
</g>
<!-- 46&#45;&gt;1 -->
<g id="edge47" class="edge"><title>46&#45;&gt;1</title>
<path fill="none" stroke="black" d="M2454.79,-318.362C2336.59,-325.043 2008.86,-345.09 1881.41,-370.331"/>
<polygon fill="none" stroke="black" points="1880.58,-366.928 1871.5,-372.393 1882,-373.781 1880.58,-366.928"/>
</g>
<!-- 47 -->
<g id="node48" class="node"><title>47</title>
<polygon fill="none" stroke="black" points="2200.5,-223 2200.5,-259 2367.5,-259 2367.5,-223 2200.5,-223"/>
<text text-anchor="middle" x="2284" y="-237.3" font-family="Times,serif" font-size="14.00">ProtPreprocessMicrographs</text>
</g>
<!-- 47&#45;&gt;42 -->
<g id="edge48" class="edge"><title>47&#45;&gt;42</title>
<path fill="none" stroke="black" d="M2243.95,-259.063C2220.15,-269.203 2189.77,-282.146 2164.48,-292.922"/>
<polygon fill="none" stroke="black" points="2162.88,-289.795 2155.06,-296.935 2165.63,-296.235 2162.88,-289.795"/>
</g>
<!-- 48&#45;&gt;5 -->
<g id="edge49" class="edge"><title>48&#45;&gt;5</title>
<path fill="none" stroke="black" d="M1175,-259.063C1175,-267.193 1175,-277.124 1175,-286.295"/>
<polygon fill="none" stroke="black" points="1171.5,-286.559 1175,-296.559 1178.5,-286.559 1171.5,-286.559"/>
</g>
<!-- 49&#45;&gt;47 -->
<g id="edge50" class="edge"><title>49&#45;&gt;47</title>
<path fill="none" stroke="black" d="M2293.92,-185.063C2292.44,-193.281 2290.62,-203.34 2288.95,-212.594"/>
<polygon fill="none" stroke="black" points="2285.48,-212.097 2287.15,-222.559 2292.37,-213.34 2285.48,-212.097"/>
</g>
<!-- 50&#45;&gt;46 -->
<g id="edge51" class="edge"><title>50&#45;&gt;46</title>
<path fill="none" stroke="black" d="M2661.28,-259.063C2627.99,-270.266 2584.52,-284.89 2550.81,-296.233"/>
<polygon fill="none" stroke="black" points="2549.49,-292.983 2541.13,-299.489 2551.72,-299.618 2549.49,-292.983"/>
</g>
<!-- 51 -->
<g id="node52" class="node"><title>51</title>
<polygon fill="none" stroke="black" points="1267,-223 1267,-259 1387,-259 1387,-223 1267,-223"/>
<text text-anchor="middle" x="1327" y="-237.3" font-family="Times,serif" font-size="14.00">ProtReconstruct3D</text>
</g>
<!-- 51&#45;&gt;5 -->
<g id="edge52" class="edge"><title>51&#45;&gt;5</title>
<path fill="none" stroke="black" d="M1290.98,-259.063C1267.26,-270.297 1236.29,-284.97 1212.31,-296.325"/>
<polygon fill="none" stroke="black" points="1210.71,-293.212 1203.17,-300.656 1213.71,-299.538 1210.71,-293.212"/>
</g>
<!-- 52 -->
<g id="node53" class="node"><title>52</title>
<polygon fill="none" stroke="black" points="1405,-223 1405,-259 1497,-259 1497,-223 1405,-223"/>
<text text-anchor="middle" x="1451" y="-237.3" font-family="Times,serif" font-size="14.00">ProtRefine3D</text>
</g>
<!-- 52&#45;&gt;5 -->
<g id="edge53" class="edge"><title>52&#45;&gt;5</title>
<path fill="none" stroke="black" d="M1404.93,-257.09C1401.58,-258.102 1398.24,-259.082 1395,-260 1331.77,-277.899 1257.35,-295.439 1213.29,-305.463"/>
<polygon fill="none" stroke="black" points="1212.28,-302.103 1203.3,-307.725 1213.82,-308.93 1212.28,-302.103"/>
</g>
<!-- 53 -->
<g id="node54" class="node"><title>53</title>
<polygon fill="none" stroke="black" points="2853,-297 2853,-333 2915,-333 2915,-297 2853,-297"/>
<text text-anchor="middle" x="2884" y="-311.3" font-family="Times,serif" font-size="14.00">ProtSets</text>
</g>
<!-- 53&#45;&gt;1 -->
<g id="edge54" class="edge"><title>53&#45;&gt;1</title>
<path fill="none" stroke="black" d="M2852.69,-317.688C2793.54,-320.877 2661.33,-328.004 2550,-334 2256.01,-349.832 2174.85,-312.708 1881.83,-370.202"/>
<polygon fill="none" stroke="black" points="1880.89,-366.82 1871.76,-372.197 1882.25,-373.686 1880.89,-366.82"/>
</g>
<!-- 54 -->
<g id="node55" class="node"><title>54</title>
<polygon fill="none" stroke="black" points="2794,-223 2794,-259 2876,-259 2876,-223 2794,-223"/>
<text text-anchor="middle" x="2835" y="-237.3" font-family="Times,serif" font-size="14.00">ProtSplitSet</text>
</g>
<!-- 54&#45;&gt;53 -->
<g id="edge55" class="edge"><title>54&#45;&gt;53</title>
<path fill="none" stroke="black" d="M2846.61,-259.063C2852.51,-267.723 2859.79,-278.427 2866.36,-288.079"/>
<polygon fill="none" stroke="black" points="2863.61,-290.261 2872.13,-296.559 2869.4,-286.323 2863.61,-290.261"/>
</g>
<!-- 55 -->
<g id="node56" class="node"><title>55</title>
<polygon fill="none" stroke="black" points="2894.5,-223 2894.5,-259 2971.5,-259 2971.5,-223 2894.5,-223"/>
<text text-anchor="middle" x="2933" y="-237.3" font-family="Times,serif" font-size="14.00">ProtSubSet</text>
</g>
<!-- 55&#45;&gt;53 -->
<g id="edge56" class="edge"><title>55&#45;&gt;53</title>
<path fill="none" stroke="black" d="M2921.39,-259.063C2915.49,-267.723 2908.21,-278.427 2901.64,-288.079"/>
<polygon fill="none" stroke="black" points="2898.6,-286.323 2895.87,-296.559 2904.39,-290.261 2898.6,-286.323"/>
</g>
<!-- 56 -->
<g id="node57" class="node"><title>56</title>
<polygon fill="none" stroke="black" points="1890,-371 1890,-407 1994,-407 1994,-371 1890,-371"/>
<text text-anchor="middle" x="1942" y="-385.3" font-family="Times,serif" font-size="14.00">ProtTestParallel</text>
</g>
<!-- 56&#45;&gt;59 -->
<g id="edge57" class="edge"><title>56&#45;&gt;59</title>
<path fill="none" stroke="black" d="M1928.73,-407.063C1921.92,-415.811 1913.5,-426.646 1905.93,-436.374"/>
<polygon fill="none" stroke="black" points="1902.94,-434.517 1899.56,-444.559 1908.47,-438.815 1902.94,-434.517"/>
</g>
<!-- 57 -->
<g id="node58" class="node"><title>57</title>
<polygon fill="none" stroke="black" points="2990,-223 2990,-259 3080,-259 3080,-223 2990,-223"/>
<text text-anchor="middle" x="3035" y="-237.3" font-family="Times,serif" font-size="14.00">ProtUnionSet</text>
</g>
<!-- 57&#45;&gt;53 -->
<g id="edge58" class="edge"><title>57&#45;&gt;53</title>
<path fill="none" stroke="black" d="M2999.22,-259.063C2976.76,-269.772 2947.74,-283.606 2924.45,-294.713"/>
<polygon fill="none" stroke="black" points="2922.7,-291.669 2915.18,-299.133 2925.71,-297.988 2922.7,-291.669"/>
</g>
<!-- 58 -->
<g id="node59" class="node"><title>58</title>
<polygon fill="none" stroke="black" points="122.5,-223 122.5,-259 225.5,-259 225.5,-223 122.5,-223"/>
<text text-anchor="middle" x="174" y="-237.3" font-family="Times,serif" font-size="14.00">ProtUserSubSet</text>
</g>
<!-- 58&#45;&gt;0 -->
<g id="edge59" class="edge"><title>58&#45;&gt;0</title>
<path fill="none" stroke="black" d="M174,-259.063C174,-267.193 174,-277.124 174,-286.295"/>
<polygon fill="none" stroke="black" points="170.5,-286.559 174,-296.559 177.5,-286.559 170.5,-286.559"/>
</g>
<!-- 61 -->
<g id="node62" class="node"><title>61</title>
<polygon fill="none" stroke="black" points="1859,-519 1859,-555 1913,-555 1913,-519 1859,-519"/>
<text text-anchor="middle" x="1886" y="-533.3" font-family="Times,serif" font-size="14.00">Step</text>
</g>
<!-- 59&#45;&gt;61 -->
<g id="edge60" class="edge"><title>59&#45;&gt;61</title>
<path fill="none" stroke="black" d="M1886,-481.063C1886,-489.193 1886,-499.124 1886,-508.295"/>
<polygon fill="none" stroke="black" points="1882.5,-508.559 1886,-518.559 1889.5,-508.559 1882.5,-508.559"/>
</g>
<!-- 60 -->
<g id="node61" class="node"><title>60</title>
<polygon fill="none" stroke="black" points="2228.5,-1 2228.5,-37 2323.5,-37 2323.5,-1 2228.5,-1"/>
<text text-anchor="middle" x="2276" y="-15.3" font-family="Times,serif" font-size="14.00">ScipionImport</text>
</g>
<!-- 61&#45;&gt;3 -->
<g id="edge61" class="edge"><title>61&#45;&gt;3</title>
<path fill="none" stroke="black" d="M1886,-555.063C1886,-563.193 1886,-573.124 1886,-582.295"/>
<polygon fill="none" stroke="black" points="1882.5,-582.559 1886,-592.559 1889.5,-582.559 1882.5,-582.559"/>
</g>
<!-- 62 -->
<g id="node63" class="node"><title>62</title>
<polygon fill="none" stroke="black" points="2534,-75 2534,-111 2590,-111 2590,-75 2534,-75"/>
<text text-anchor="middle" x="2562" y="-89.3" font-family="Times,serif" font-size="14.00">Viewer</text>
</g>
<!-- 63 -->
<g id="node64" class="node"><title>63</title>
<polygon fill="none" stroke="black" points="2484.5,-1 2484.5,-37 2639.5,-37 2639.5,-1 2484.5,-1"/>
<text text-anchor="middle" x="2562" y="-15.3" font-family="Times,serif" font-size="14.00">ViewerClassesConsensus</text>
</g>
<!-- 63&#45;&gt;62 -->
<g id="edge62" class="edge"><title>63&#45;&gt;62</title>
<path fill="none" stroke="black" d="M2562,-37.063C2562,-45.1928 2562,-55.1239 2562,-64.2953"/>
<polygon fill="none" stroke="black" points="2558.5,-64.5593 2562,-74.5593 2565.5,-64.5594 2558.5,-64.5593"/>
</g>
</g>
</svg>
