<?xml version="1.0" encoding="UTF-8" standalone="no"?>
<!DOCTYPE svg PUBLIC "-//W3C//DTD SVG 1.1//EN"
 "http://www.w3.org/Graphics/SVG/1.1/DTD/svg11.dtd">
<!-- Generated by graphviz version 2.44.0 (0)
 -->
<!-- Title: classes_object Pages: 1 -->
<svg width="507pt" height="317pt"
 viewBox="0.00 0.00 507.00 317.00" xmlns="http://www.w3.org/2000/svg" xmlns:xlink="http://www.w3.org/1999/xlink">
<g id="graph0" class="graph" transform="scale(1 1) rotate(0) translate(4 313)">
<title>classes_object</title>
<polygon fill="white" stroke="transparent" points="-4,4 -4,-313 503,-313 503,4 -4,4"/>
<!-- 0 -->
<g id="node1" class="node">
<title>0</title>
<polygon fill="none" stroke="black" points="221,-0.5 221,-36.5 283,-36.5 283,-0.5 221,-0.5"/>
<text text-anchor="middle" x="252" y="-14.8" font-family="Times,serif" font-size="14.00">Boolean</text>
</g>
<!-- 10 -->
<g id="node11" class="node">
<title>10</title>
<polygon fill="none" stroke="black" points="246,-88.5 246,-124.5 300,-124.5 300,-88.5 246,-88.5"/>
<text text-anchor="middle" x="273" y="-102.8" font-family="Times,serif" font-size="14.00">Scalar</text>
</g>
<!-- 0&#45;&gt;10 -->
<g id="edge1" class="edge">
<title>0&#45;&gt;10</title>
<path fill="none" stroke="black" d="M264,-36.81C267.22,-42.37 270.29,-48.72 272,-55 274.01,-62.36 274.77,-70.55 274.89,-78.16"/>
<polygon fill="none" stroke="black" points="271.39,-78.31 274.72,-88.37 278.39,-78.43 271.39,-78.31"/>
</g>
<!-- 1 -->
<g id="node2" class="node">
<title>1</title>
<polygon fill="none" stroke="black" points="143.5,-0.5 143.5,-36.5 202.5,-36.5 202.5,-0.5 143.5,-0.5"/>
<text text-anchor="middle" x="173" y="-14.8" font-family="Times,serif" font-size="14.00">CsvList</text>
</g>
<!-- 1&#45;&gt;10 -->
<g id="edge2" class="edge">
<title>1&#45;&gt;10</title>
<path fill="none" stroke="black" d="M202.88,-33.3C222.62,-42.51 245.19,-53.24 247,-55 253.88,-61.69 259.29,-70.6 263.35,-79.07"/>
<polygon fill="none" stroke="black" points="260.17,-80.53 267.37,-88.3 266.59,-77.73 260.17,-80.53"/>
</g>
<!-- 11 -->
<g id="node12" class="node">
<title>11</title>
<polygon fill="none" stroke="black" points="146,-88.5 146,-124.5 200,-124.5 200,-88.5 146,-88.5"/>
<text text-anchor="middle" x="173" y="-102.8" font-family="Times,serif" font-size="14.00">Set</text>
</g>
<!-- 1&#45;&gt;11 -->
<g id="edge12" class="edge">
<title>1&#45;&gt;11</title>
<path fill="none" stroke="black" d="M173,-36.9C173,-48.17 173,-63.12 173,-76.18"/>
<polygon fill="black" stroke="black" points="173,-76.42 177,-82.42 173,-88.42 169,-82.42 173,-76.42"/>
<text text-anchor="middle" x="209.5" y="-58.8" font-family="Times,serif" font-size="14.00" fill="green">_mapperPath</text>
</g>
<!-- 2 -->
<g id="node3" class="node">
<title>2</title>
<polygon fill="none" stroke="black" points="445,-0.5 445,-36.5 499,-36.5 499,-0.5 445,-0.5"/>
<text text-anchor="middle" x="472" y="-14.8" font-family="Times,serif" font-size="14.00">Dict</text>
</g>
<!-- 3 -->
<g id="node4" class="node">
<title>3</title>
<polygon fill="none" stroke="black" points="301,-0.5 301,-36.5 355,-36.5 355,-0.5 301,-0.5"/>
<text text-anchor="middle" x="328" y="-14.8" font-family="Times,serif" font-size="14.00">Float</text>
</g>
<!-- 3&#45;&gt;10 -->
<g id="edge3" class="edge">
<title>3&#45;&gt;10</title>
<path fill="none" stroke="black" d="M316.87,-36.9C308.99,-49.22 298.29,-65.95 289.43,-79.8"/>
<polygon fill="none" stroke="black" points="286.37,-78.11 283.93,-88.42 292.26,-81.88 286.37,-78.11"/>
</g>
<!-- 4 -->
<g id="node5" class="node">
<title>4</title>
<polygon fill="none" stroke="black" points="26.5,-0.5 26.5,-36.5 81.5,-36.5 81.5,-0.5 26.5,-0.5"/>
<text text-anchor="middle" x="54" y="-14.8" font-family="Times,serif" font-size="14.00">Integer</text>
</g>
<!-- 4&#45;&gt;10 -->
<g id="edge4" class="edge">
<title>4&#45;&gt;10</title>
<path fill="none" stroke="black" d="M81.61,-32.41C104.73,-43.04 138.72,-58.21 169,-70 191.05,-78.59 216.15,-87.19 236.17,-93.77"/>
<polygon fill="none" stroke="black" points="235.25,-97.15 245.84,-96.93 237.42,-90.5 235.25,-97.15"/>
</g>
<!-- 4&#45;&gt;11 -->
<g id="edge13" class="edge">
<title>4&#45;&gt;11</title>
<path fill="none" stroke="black" d="M26.23,-32.77C9.12,-42.71 -7.52,-56.8 4,-70 21.64,-90.21 92.41,-81.65 134.01,-88.77"/>
<polygon fill="black" stroke="black" points="134.2,-88.82 140.95,-86.28 145.89,-91.54 139.14,-94.07 134.2,-88.82"/>
<text text-anchor="middle" x="18" y="-58.8" font-family="Times,serif" font-size="14.00" fill="green">_size</text>
</g>
<!-- 4&#45;&gt;11 -->
<g id="edge14" class="edge">
<title>4&#45;&gt;11</title>
<path fill="none" stroke="black" d="M49.39,-36.78C47.63,-47.5 47.56,-60.91 55,-70 76.26,-95.97 97.02,-79.67 134.27,-88.42"/>
<polygon fill="black" stroke="black" points="134.29,-88.42 141.18,-86.28 145.8,-91.81 138.92,-93.95 134.29,-88.42"/>
<text text-anchor="middle" x="90.5" y="-58.8" font-family="Times,serif" font-size="14.00" fill="green">_streamState</text>
</g>
<!-- 5 -->
<g id="node6" class="node">
<title>5</title>
<polygon fill="none" stroke="black" points="75,-198.5 75,-234.5 129,-234.5 129,-198.5 75,-198.5"/>
<text text-anchor="middle" x="102" y="-212.8" font-family="Times,serif" font-size="14.00">List</text>
</g>
<!-- 6 -->
<g id="node7" class="node">
<title>6</title>
<polygon fill="none" stroke="black" points="226,-272.5 226,-308.5 280,-308.5 280,-272.5 226,-272.5"/>
<text text-anchor="middle" x="253" y="-286.8" font-family="Times,serif" font-size="14.00">Object</text>
</g>
<!-- 5&#45;&gt;6 -->
<g id="edge5" class="edge">
<title>5&#45;&gt;6</title>
<path fill="none" stroke="black" d="M129.11,-230.72C132.11,-232.17 135.12,-233.62 138,-235 164.14,-247.55 193.71,-261.56 216.31,-272.23"/>
<polygon fill="none" stroke="black" points="215.01,-275.48 225.55,-276.58 217.99,-269.15 215.01,-275.48"/>
</g>
<!-- 7 -->
<g id="node8" class="node">
<title>7</title>
<polygon fill="none" stroke="black" points="147.5,-198.5 147.5,-234.5 244.5,-234.5 244.5,-198.5 147.5,-198.5"/>
<text text-anchor="middle" x="196" y="-212.8" font-family="Times,serif" font-size="14.00">OrderedObject</text>
</g>
<!-- 7&#45;&gt;6 -->
<g id="edge6" class="edge">
<title>7&#45;&gt;6</title>
<path fill="none" stroke="black" d="M209.51,-234.56C216.5,-243.4 225.18,-254.36 232.95,-264.17"/>
<polygon fill="none" stroke="black" points="230.24,-266.39 239.19,-272.06 235.73,-262.05 230.24,-266.39"/>
</g>
<!-- 8 -->
<g id="node9" class="node">
<title>8</title>
<polygon fill="none" stroke="black" points="329,-143.5 329,-179.5 385,-179.5 385,-143.5 329,-143.5"/>
<text text-anchor="middle" x="357" y="-157.8" font-family="Times,serif" font-size="14.00">Pointer</text>
</g>
<!-- 8&#45;&gt;6 -->
<g id="edge7" class="edge">
<title>8&#45;&gt;6</title>
<path fill="none" stroke="black" d="M344.65,-179.81C331.07,-198.55 308.34,-229.09 287,-254 283.98,-257.52 280.71,-261.15 277.44,-264.68"/>
<polygon fill="none" stroke="black" points="274.68,-262.5 270.34,-272.16 279.76,-267.31 274.68,-262.5"/>
</g>
<!-- 9 -->
<g id="node10" class="node">
<title>9</title>
<polygon fill="none" stroke="black" points="50.5,-88.5 50.5,-124.5 127.5,-124.5 127.5,-88.5 50.5,-88.5"/>
<text text-anchor="middle" x="89" y="-102.8" font-family="Times,serif" font-size="14.00">PointerList</text>
</g>
<!-- 9&#45;&gt;5 -->
<g id="edge8" class="edge">
<title>9&#45;&gt;5</title>
<path fill="none" stroke="black" d="M91.09,-124.85C93.15,-141.94 96.32,-168.28 98.71,-188.18"/>
<polygon fill="none" stroke="black" points="95.25,-188.68 99.92,-198.19 102.2,-187.84 95.25,-188.68"/>
</g>
<!-- 10&#45;&gt;6 -->
<g id="edge9" class="edge">
<title>10&#45;&gt;6</title>
<path fill="none" stroke="black" d="M271.12,-124.62C267.65,-156.19 260.22,-223.83 256.03,-261.93"/>
<polygon fill="none" stroke="black" points="252.5,-261.97 254.89,-272.29 259.46,-262.73 252.5,-261.97"/>
</g>
<!-- 11&#45;&gt;7 -->
<g id="edge10" class="edge">
<title>11&#45;&gt;7</title>
<path fill="none" stroke="black" d="M176.7,-124.85C180.33,-141.94 185.95,-168.28 190.18,-188.18"/>
<polygon fill="none" stroke="black" points="186.81,-189.14 192.31,-198.19 193.65,-187.68 186.81,-189.14"/>
</g>
<!-- 12 -->
<g id="node13" class="node">
<title>12</title>
<polygon fill="none" stroke="black" points="373,-0.5 373,-36.5 427,-36.5 427,-0.5 373,-0.5"/>
<text text-anchor="middle" x="400" y="-14.8" font-family="Times,serif" font-size="14.00">String</text>
</g>
<!-- 12&#45;&gt;8 -->
<g id="edge15" class="edge">
<title>12&#45;&gt;8</title>
<path fill="none" stroke="black" d="M394.81,-36.51C387.61,-60.12 374.49,-103.14 365.76,-131.77"/>
<polygon fill="black" stroke="black" points="365.71,-131.95 367.78,-138.86 362.21,-143.43 360.13,-136.53 365.71,-131.95"/>
<text text-anchor="middle" x="417" y="-58.8" font-family="Times,serif" font-size="14.00" fill="green">_extended</text>
</g>
<!-- 12&#45;&gt;10 -->
<g id="edge11" class="edge">
<title>12&#45;&gt;10</title>
<path fill="none" stroke="black" d="M374.61,-36.7C355.14,-49.88 328.09,-68.2 306.79,-82.62"/>
<polygon fill="none" stroke="black" points="304.67,-79.83 298.35,-88.33 308.59,-85.62 304.67,-79.83"/>
</g>
</g>
</svg>
